<?xml version="1.0" encoding="utf-8"?>
<!-- Generator: Adobe Illustrator 24.2.1, SVG Export Plug-In . SVG Version: 6.00 Build 0)  -->
<svg version="1.1" id="Layer_1" xmlns="http://www.w3.org/2000/svg" xmlns:xlink="http://www.w3.org/1999/xlink" x="0px" y="0px"
	 viewBox="0 0 92.7 78.6" style="enable-background:new 0 0 92.7 78.6;" xml:space="preserve">
<style type="text/css">
	.st0{fill:#EAEBF7;}
</style>
<path class="st0" d="M72.7,8.1h-8.2V4c0-1.8-1.5-3.4-3.4-3.4S57.8,2.2,57.8,4v4.1H34.6V4c0-1.8-1.5-3.4-3.4-3.4S27.8,2.1,27.8,4v4.1
	h-8.1c-7.1,0-12.8,5.8-12.8,12.8v44c0,7.1,5.8,12.8,12.8,12.8h53c7.1,0,12.8-5.8,12.8-12.8v-44C85.6,13.9,79.8,8.1,72.7,8.1z
	 M19.7,14.8h8.2v4.1c0,1.8,1.5,3.4,3.4,3.4c1.9,0,3.4-1.5,3.4-3.4v-4.1h23.2v4.1c0,1.8,1.5,3.4,3.4,3.4s3.4-1.5,3.4-3.4v-4.1h8
	c3.4,0,6.1,2.7,6.1,6.1v9.9H13.6v-9.9C13.6,17.5,16.3,14.8,19.7,14.8z"/>
</svg>
