<?xml version="1.0" encoding="utf-8"?>
<!-- Generator: Adobe Illustrator 24.2.1, SVG Export Plug-In . SVG Version: 6.00 Build 0)  -->
<svg version="1.1" id="Layer_1" xmlns="http://www.w3.org/2000/svg" xmlns:xlink="http://www.w3.org/1999/xlink" x="0px" y="0px"
	 viewBox="0 0 40.1 38.8" style="enable-background:new 0 0 40.1 38.8;" xml:space="preserve">
<style type="text/css">
	.st0{fill:url(#XMLID_2_);}
	.st1{fill:#FFFFFF;}
</style>
<g id="XMLID_1346_">
	<radialGradient id="XMLID_2_" cx="1.2136" cy="37.8144" r="66.3808" gradientUnits="userSpaceOnUse">
		<stop  offset="0" style="stop-color:#F5EC53"/>
		<stop  offset="0.2412" style="stop-color:#E48244"/>
		<stop  offset="0.3974" style="stop-color:#D15767"/>
		<stop  offset="0.4888" style="stop-color:#C84278"/>
		<stop  offset="1" style="stop-color:#192CFA"/>
	</radialGradient>
	<path id="XMLID_1418_" class="st0" d="M20.1,37.7L20.1,37.7c-9.9,0-18-8-18-18l0,0c0-9.9,8-18,18-18h0c9.9,0,18,8,18,18l0,0
		C38,29.7,30,37.7,20.1,37.7z"/>
	<g id="XMLID_1347_">
		<path id="XMLID_1352_" class="st1" d="M20.1,11.7c2.6,0,2.9,0,4,0.1c1,0,1.5,0.2,1.8,0.3c0.5,0.2,0.8,0.4,1.1,0.7
			c0.3,0.3,0.6,0.7,0.7,1.1c0.1,0.3,0.3,0.9,0.3,1.8c0,1,0.1,1.3,0.1,4c0,2.6,0,2.9-0.1,4c0,1-0.2,1.5-0.3,1.8
			c-0.2,0.5-0.4,0.8-0.7,1.1c-0.3,0.3-0.7,0.6-1.1,0.7c-0.3,0.1-0.9,0.3-1.8,0.3c-1,0-1.3,0.1-4,0.1c-2.6,0-2.9,0-4-0.1
			c-1,0-1.5-0.2-1.8-0.3c-0.5-0.2-0.8-0.4-1.1-0.7c-0.3-0.3-0.6-0.7-0.7-1.1c-0.1-0.3-0.3-0.9-0.3-1.8c0-1-0.1-1.3-0.1-4
			c0-2.6,0-2.9,0.1-4c0-1,0.2-1.5,0.3-1.8c0.2-0.5,0.4-0.8,0.7-1.1c0.3-0.3,0.7-0.6,1.1-0.7c0.3-0.1,0.9-0.3,1.8-0.3
			C17.1,11.7,17.4,11.7,20.1,11.7 M20.1,9.9c-2.7,0-3,0-4.1,0.1c-1,0-1.8,0.2-2.4,0.5c-0.6,0.3-1.2,0.6-1.7,1.1
			c-0.5,0.5-0.9,1.1-1.1,1.7c-0.2,0.6-0.4,1.3-0.5,2.4c0,1-0.1,1.4-0.1,4.1s0,3,0.1,4.1c0,1,0.2,1.8,0.5,2.4
			c0.3,0.6,0.6,1.2,1.1,1.7c0.5,0.5,1.1,0.9,1.7,1.1c0.6,0.2,1.3,0.4,2.4,0.5c1,0,1.4,0.1,4.1,0.1c2.7,0,3,0,4.1-0.1
			c1,0,1.8-0.2,2.4-0.5c0.6-0.3,1.2-0.6,1.7-1.1c0.5-0.5,0.9-1.1,1.1-1.7c0.2-0.6,0.4-1.3,0.5-2.4c0-1,0.1-1.4,0.1-4.1s0-3-0.1-4.1
			c0-1-0.2-1.8-0.5-2.4c-0.3-0.6-0.6-1.2-1.1-1.7c-0.5-0.5-1.1-0.9-1.7-1.1c-0.6-0.2-1.3-0.4-2.4-0.5C23.1,9.9,22.7,9.9,20.1,9.9"/>
		<path id="XMLID_1349_" class="st1" d="M20.1,14.7c-2.8,0-5.1,2.3-5.1,5.1c0,2.8,2.3,5.1,5.1,5.1c2.8,0,5.1-2.3,5.1-5.1
			C25.1,17,22.9,14.7,20.1,14.7 M20.1,23c-1.8,0-3.3-1.5-3.3-3.3c0-1.8,1.5-3.3,3.3-3.3c1.8,0,3.3,1.5,3.3,3.3
			C23.3,21.6,21.9,23,20.1,23"/>
		<path id="XMLID_1348_" class="st1" d="M26.5,14.5c0,0.7-0.5,1.2-1.2,1.2c-0.7,0-1.2-0.5-1.2-1.2c0-0.7,0.5-1.2,1.2-1.2
			C26,13.3,26.5,13.8,26.5,14.5"/>
	</g>
</g>
</svg>
