<?xml version="1.0" encoding="utf-8"?>
<!-- Generator: Adobe Illustrator 24.2.1, SVG Export Plug-In . SVG Version: 6.00 Build 0)  -->
<svg version="1.1" id="Layer_1" xmlns="http://www.w3.org/2000/svg" xmlns:xlink="http://www.w3.org/1999/xlink" x="0px" y="0px"
	 viewBox="0 0 20.7 22.7" style="enable-background:new 0 0 20.7 22.7;" xml:space="preserve">
<style type="text/css">
	.st0{fill:#FFC700;}
</style>
<g>
	<g>
		<path class="st0" d="M18.8,15.8h-0.1c0.3-0.4,0.5-0.9,0.5-1.3c0-1.2-1-2.2-2.2-2.2c-1.2,0-2.2,1-2.2,2.2c0,0.5,0.2,1,0.5,1.3h-0.1
			c-0.5,0-0.9,0.4-0.9,0.9v2.7c0,0.7,0.5,1.2,1.2,1.2h3c0.7,0,1.2-0.5,1.2-1.2v-2.7C19.7,16.2,19.3,15.8,18.8,15.8z M15.6,14.4
			c0-0.7,0.6-1.3,1.3-1.3s1.3,0.6,1.3,1.3c0,0.7-0.6,1.3-1.3,1.3S15.6,15.2,15.6,14.4z M18.9,19.4c0,0.2-0.2,0.4-0.4,0.4h-3
			c-0.2,0-0.4-0.2-0.4-0.4v-2.7c0,0,0-0.1,0.1-0.1h3.6c0.1,0,0.1,0,0.1,0.1L18.9,19.4L18.9,19.4z"/>
	</g>
	<g>
		<path class="st0" d="M5.6,15.8H5.5C5.8,15.4,6,14.9,6,14.4c0-1.2-1-2.2-2.2-2.2s-2.2,1-2.2,2.2c0,0.5,0.2,1,0.5,1.3H2
			c-0.5,0-0.9,0.4-0.9,0.9v2.7c0,0.7,0.5,1.2,1.2,1.2h3c0.7,0,1.2-0.5,1.2-1.2v-2.7C6.5,16.2,6.1,15.8,5.6,15.8z M2.4,14.4
			c0-0.7,0.6-1.3,1.3-1.3s1.3,0.6,1.3,1.3c0,0.7-0.6,1.3-1.3,1.3S2.4,15.2,2.4,14.4z M5.7,19.4c0,0.2-0.2,0.4-0.4,0.4h-3
			c-0.2,0-0.4-0.2-0.4-0.4v-2.7c0,0,0-0.1,0.1-0.1h3.6c0.1,0,0.1,0,0.1,0.1L5.7,19.4L5.7,19.4z"/>
	</g>
	<g>
		<path class="st0" d="M16.7,11.4H4c-0.7,0-1.2-0.5-1.2-1.2V3.3c0-0.7,0.5-1.2,1.2-1.2h12.6c0.7,0,1.2,0.5,1.2,1.2v6.9
			C17.9,10.9,17.4,11.4,16.7,11.4z M4,2.9C3.8,2.9,3.6,3,3.6,3.3v6.9c0,0.2,0.2,0.4,0.4,0.4h12.6c0.2,0,0.4-0.2,0.4-0.4V3.3
			c0-0.2-0.2-0.4-0.4-0.4H4z"/>
	</g>
	<g>
		<path class="st0" d="M10.4,9.8c-1.7,0-3.1-1.4-3.1-3.1s1.4-3.1,3.1-3.1s3.1,1.4,3.1,3.1S12,9.8,10.4,9.8z M10.4,4.5
			c-1.2,0-2.2,1-2.2,2.2S9.1,9,10.4,9s2.2-1,2.2-2.2S11.6,4.5,10.4,4.5z"/>
	</g>
	<g>
		<path class="st0" d="M11,7.2h-0.6C10.1,7.2,10,7,10,6.8V5.2c0-0.2,0.2-0.4,0.4-0.4s0.4,0.2,0.4,0.4v1.1H11c0.2,0,0.4,0.2,0.4,0.4
			C11.4,7,11.2,7.2,11,7.2z"/>
	</g>
	<g>
		<path class="st0" d="M12.2,15.8h-0.1c0.3-0.4,0.5-0.9,0.5-1.3c0-1.2-1-2.2-2.2-2.2s-2.2,1-2.2,2.2c0,0.5,0.2,1,0.5,1.3H8.6
			c-0.5,0-0.9,0.4-0.9,0.9v2.7c0,0.7,0.5,1.2,1.2,1.2h3c0.7,0,1.2-0.5,1.2-1.2v-2.7C13.1,16.2,12.7,15.8,12.2,15.8z M9.1,14.4
			c0-0.7,0.6-1.3,1.3-1.3c0.7,0,1.3,0.6,1.3,1.3c0,0.7-0.6,1.3-1.3,1.3C9.6,15.8,9.1,15.2,9.1,14.4z M12.3,19.4
			c0,0.2-0.2,0.4-0.4,0.4h-3c-0.2,0-0.4-0.2-0.4-0.4v-2.7c0,0,0-0.1,0.1-0.1h3.6c0.1,0,0.1,0,0.1,0.1L12.3,19.4L12.3,19.4z"/>
	</g>
</g>
</svg>
