<?xml version="1.0" encoding="utf-8"?>
<!-- Generator: Adobe Illustrator 24.2.1, SVG Export Plug-In . SVG Version: 6.00 Build 0)  -->
<svg version="1.1" id="Layer_1" xmlns="http://www.w3.org/2000/svg" xmlns:xlink="http://www.w3.org/1999/xlink" x="0px" y="0px"
	 viewBox="0 0 27.5 26.1" style="enable-background:new 0 0 27.5 26.1;" xml:space="preserve">
<style type="text/css">
	.st0{opacity:0.61;}
	.st1{fill:#8BAFB6;}
</style>
<g class="st0">
	<path class="st1" d="M13.8,0.4c-7,0-12.6,5.7-12.6,12.6s5.7,12.6,12.6,12.6S26.4,20,26.4,13.1S20.7,0.4,13.8,0.4z M13.8,24.3
		c-6.2,0-11.2-5-11.2-11.2s5-11.2,11.2-11.2S25,6.9,25,13.1S20,24.3,13.8,24.3z"/>
	<circle class="st1" cx="18.7" cy="10.7" r="1.6"/>
	<circle class="st1" cx="8.8" cy="10.7" r="1.6"/>
	<path class="st1" d="M18.3,15.6c-2.5,2.3-6.5,2.3-9,0c-0.3-0.3-0.7-0.2-1,0.1c-0.3,0.3-0.2,0.7,0.1,1c1.5,1.4,3.5,2,5.5,2
		s3.9-0.7,5.5-2c0.3-0.3,0.3-0.7,0.1-1C19,15.3,18.6,15.3,18.3,15.6z"/>
</g>
</svg>
