<?xml version="1.0" encoding="utf-8"?>
<!-- Generator: Adobe Illustrator 24.2.1, SVG Export Plug-In . SVG Version: 6.00 Build 0)  -->
<svg version="1.1" id="Layer_1" xmlns="http://www.w3.org/2000/svg" xmlns:xlink="http://www.w3.org/1999/xlink" x="0px" y="0px"
	 viewBox="0 0 40.1 38.8" style="enable-background:new 0 0 40.1 38.8;" xml:space="preserve">
<style type="text/css">
	.st0{fill:#FFFFFF;}
</style>
<g>
	<g>
		<g>
			<path class="st0" d="M19.9,36.9c2.9,0,5.8-0.7,8.4-2.1l9.6,2.6l-2.5-9.4c1.5-2.7,2.3-5.7,2.3-8.7c0-9.8-8-17.8-17.8-17.8
				S2.2,9.4,2.2,19.2S10.2,36.9,19.9,36.9z M19.9,3.8c8.5,0,15.4,6.9,15.4,15.4c0,2.8-0.8,5.6-2.2,7.9l-0.3,0.4l1.7,6.4L28,32.2
				l-0.4,0.2c-2.3,1.3-5,2.1-7.7,2.1c-8.5,0-15.4-6.9-15.4-15.4C4.6,10.7,11.5,3.8,19.9,3.8z"/>
			<circle class="st0" cx="27.4" cy="19.2" r="1.9"/>
			<circle class="st0" cx="19.9" cy="19.2" r="1.9"/>
			<circle class="st0" cx="12.5" cy="19.2" r="1.9"/>
		</g>
	</g>
</g>
</svg>
