<?xml version="1.0" encoding="utf-8"?>
<!-- Generator: Adobe Illustrator 24.2.1, SVG Export Plug-In . SVG Version: 6.00 Build 0)  -->
<svg version="1.1" id="Layer_1" xmlns="http://www.w3.org/2000/svg" xmlns:xlink="http://www.w3.org/1999/xlink" x="0px" y="0px"
	 viewBox="0 0 33.1 28.1" style="enable-background:new 0 0 33.1 28.1;" xml:space="preserve">
<style type="text/css">
	.st0{fill-rule:evenodd;clip-rule:evenodd;fill:#FFC700;}
</style>
<g>
	<g transform="translate(-806.000000, -2730.000000)">
		<g transform="translate(-14.000000, -75.000000)">
			<g transform="translate(307.000000, 2555.000000)">
				<g transform="translate(0.000000, 237.000000)">
					<g transform="translate(513.000000, 13.000000)">
						<path class="st0" d="M16.4,24.5c-5.8,0-10.6-4.7-10.6-10.6c0-5.8,4.7-10.6,10.6-10.6s10.6,4.7,10.6,10.6
							C26.9,19.8,22.2,24.5,16.4,24.5 M16.4,1.2c7,0,12.7,5.7,12.7,12.7c0,7-5.7,12.7-12.7,12.7S3.7,20.9,3.7,13.9
							C3.7,6.9,9.4,1.2,16.4,1.2z M16.4,5.5c-0.6,0-1.1,0.5-1.1,1.1v7.3c0,0,0,0,0,0c0,0.3,0.1,0.6,0.3,0.8l5.2,5.2
							c0.2,0.2,0.5,0.3,0.8,0.3c0.3,0,0.5-0.1,0.8-0.3c0.4-0.4,0.4-1.1,0-1.5l-4.9-4.9V6.6C17.5,6,17,5.5,16.4,5.5z"/>
					</g>
				</g>
			</g>
		</g>
	</g>
</g>
</svg>
