<?xml version="1.0" encoding="utf-8"?>
<!-- Generator: Adobe Illustrator 24.2.1, SVG Export Plug-In . SVG Version: 6.00 Build 0)  -->
<svg version="1.1" id="Layer_1" xmlns="http://www.w3.org/2000/svg" xmlns:xlink="http://www.w3.org/1999/xlink" x="0px" y="0px"
	 viewBox="0 0 42.2 35.8" style="enable-background:new 0 0 42.2 35.8;" xml:space="preserve">
<style type="text/css">
	.st0{fill:#FFFFFF;}
</style>
<g>
	<path class="st0" d="M35.6,0.4h-23C9.4,0.4,6.8,3,6.8,6.2v1.5H5.2c-0.6,0-1.2,0.3-1.4,0.9c-0.4,1.1,0.4,2.2,1.4,2.2h1.5v5.5H5.2
		c-0.6,0-1.2,0.3-1.4,0.9c-0.4,1.1,0.4,2.2,1.4,2.2h1.5v6.1H5.2c-0.6,0-1.2,0.3-1.4,0.9c-0.4,1.1,0.4,2.2,1.4,2.2h1.5v0.9
		c0,3.2,2.6,5.8,5.8,5.8h23c1.6,0,2.9-1.3,2.9-2.9v-29C38.5,1.7,37.2,0.4,35.6,0.4z M36.1,32.7H12.7c-1.6,0-2.9-1.3-2.9-2.9v-1.4
		h1.5c0.6,0,1.2-0.3,1.4-0.9c0.4-1.1-0.4-2.2-1.4-2.2H9.8v-6.1h1.5c0.6,0,1.2-0.3,1.4-0.9c0.4-1.1-0.4-2.2-1.4-2.2H9.8v-5.5h1.5
		c0.6,0,1.2-0.3,1.4-0.9c0.4-1.1-0.4-2.2-1.4-2.2H9.8V6.4c0-1.6,1.3-2.9,2.9-2.9h23.3V32.7z"/>
	<path class="st0" d="M16.2,28.1c1.1,0.4,2.2-0.4,2.2-1.4v-1.2c0-3.1,2.3-5.8,5.4-6c3.4-0.2,6.2,2.5,6.2,5.8v1.4
		c0,0.6,0.3,1.2,0.9,1.4c1.1,0.4,2.2-0.4,2.2-1.4v-1.3c0-3.2-1.8-6.2-4.6-7.7c2.6-2.7,2.1-7.3-1.5-9.3c-1.8-1-4-1-5.8,0.1
		c-3.4,2.1-3.9,6.5-1.3,9.2c-2.8,1.6-4.6,4.5-4.6,7.7v1.3C15.3,27.3,15.6,27.8,16.2,28.1z M21.5,13.6c0-1.6,1.3-2.9,2.9-2.9
		s2.9,1.3,2.9,2.9s-1.3,2.9-2.9,2.9S21.5,15.2,21.5,13.6z"/>
</g>
</svg>
