<?xml version="1.0" encoding="utf-8"?>
<!-- Generator: Adobe Illustrator 24.2.1, SVG Export Plug-In . SVG Version: 6.00 Build 0)  -->
<svg version="1.1" id="Layer_1" xmlns="http://www.w3.org/2000/svg" xmlns:xlink="http://www.w3.org/1999/xlink" x="0px" y="0px"
	 viewBox="0 0 29.5 31.7" style="enable-background:new 0 0 29.5 31.7;" xml:space="preserve">
<style type="text/css">
	.st0{fill:#00818D;}
</style>
<g>
	<g>
		<g>
			<g>
				<g>
					<g>
						<g>
							<path class="st0" d="M10.2,27c-0.2,0-0.3-0.2-0.3-0.3V1.9c0-0.2,0.1-0.3,0.3-0.3c0.2,0,0.3,0.2,0.3,0.3v24.8
								C10.5,26.8,10.3,27,10.2,27z"/>
						</g>
					</g>
				</g>
				<g>
					<g>
						<g>
							<path class="st0" d="M19,30.3c-0.2,0-0.3-0.2-0.3-0.3V5.2C18.6,5,18.8,4.9,19,4.9s0.3,0.2,0.3,0.3V30
								C19.3,30.1,19.2,30.3,19,30.3z"/>
						</g>
					</g>
				</g>
				<g>
					<g>
						<g>
							<path class="st0" d="M18.9,30.8c-0.3,0-0.5-0.1-0.8-0.2l-7.7-3.3c-0.2-0.1-0.4-0.1-0.5,0l-7.3,3.1c-0.4,0.2-0.9,0.1-1.3-0.1
								c-0.4-0.3-0.6-0.7-0.6-1.2V6.8c0-0.5,0.3-1,0.7-1.2l7.9-4.5c0.5-0.3,1.1-0.3,1.7-0.1l7.7,3.3c0.2,0.1,0.4,0.1,0.6,0l7.2-3.1
								C26.8,1,27.3,1,27.7,1.3c0.4,0.3,0.6,0.7,0.6,1.2V26c0,0.6-0.3,1.1-0.9,1.3l-7.8,3.4C19.4,30.8,19.2,30.8,18.9,30.8z
								 M10.1,25.9c0.3,0,0.5,0.1,0.8,0.2l7.7,3.3c0.2,0.1,0.4,0.1,0.5,0l7.8-3.3l0,0c0,0,0,0,0-0.1V2.5c0,0,0,0,0,0c0,0,0,0-0.1,0
								l-7.2,3.1c-0.5,0.2-1.1,0.2-1.6,0l-7.7-3.3c-0.2-0.1-0.3-0.1-0.5,0L2,6.8c0,0,0,0,0,0.1v22.3c0,0,0,0,0,0c0,0,0,0,0.1,0
								l7.2-3.1C9.6,26,9.8,25.9,10.1,25.9z"/>
						</g>
					</g>
				</g>
			</g>
			<g>
				<g>
					<g>
						<path class="st0" d="M4.8,12.9c-0.2,0-0.4,0-0.5-0.1c-0.3-0.2-0.5-0.5-0.5-0.9V9.2c0-0.4,0.2-0.7,0.5-0.9l2.9-1.7
							c0.3-0.2,0.7-0.2,1,0c0.3,0.2,0.5,0.5,0.5,0.9v2.8c0,0.4-0.2,0.7-0.5,0.9l0,0l-2.9,1.6C5.1,12.9,4.9,12.9,4.8,12.9z M7.5,7.2
							c-0.1,0-0.1,0-0.2,0L4.5,8.9C4.4,8.9,4.3,9.1,4.3,9.2v2.7c0,0.2,0.1,0.3,0.2,0.3c0.1,0,0.2,0.1,0.3,0l2.9-1.6
							c0.1-0.1,0.2-0.2,0.2-0.3V7.5c0-0.2-0.1-0.3-0.2-0.3C7.7,7.2,7.6,7.2,7.5,7.2z M7.9,10.9L7.9,10.9L7.9,10.9z"/>
					</g>
				</g>
			</g>
			<g>
				<g>
					<g>
						<path class="st0" d="M15.9,25.6c-0.2,0-0.3,0-0.5-0.1l-2.7-1.1c-0.4-0.2-0.7-0.6-0.7-1.1v-2c0-0.4,0.2-0.8,0.5-1
							c0.3-0.2,0.7-0.3,1.1-0.1l2.7,1c0.5,0.2,0.8,0.6,0.8,1.1l0,2.1c0,0.4-0.2,0.8-0.5,1C16.4,25.5,16.2,25.6,15.9,25.6z
							 M13.1,20.7c-0.1,0-0.2,0-0.3,0.1c-0.1,0.1-0.2,0.3-0.2,0.4l0,2c0,0.2,0.1,0.4,0.3,0.5l2.7,1.1l0,0c0.2,0.1,0.3,0,0.5,0
							s0.2-0.3,0.2-0.4l0-2.1c0-0.2-0.1-0.4-0.3-0.5l-2.7-1C13.2,20.7,13.2,20.7,13.1,20.7z"/>
					</g>
				</g>
			</g>
			<g>
				<g>
					<g>
						<path class="st0" d="M21.8,11.1c-0.5,0-1-0.3-1.1-0.9c0-0.1,0-0.2,0-0.2V8c0-0.5,0.3-0.9,0.7-1.1l3-1.2
							c0.4-0.2,0.9-0.1,1.3,0.3C25.9,6.2,26,6.5,26,6.8l0,2c0,0.5-0.3,0.9-0.8,1.1l0,0l-3,1.1C22.1,11.1,22,11.1,21.8,11.1z
							 M24.7,6.3c-0.1,0-0.1,0-0.2,0l-3,1.2c-0.2,0.1-0.3,0.2-0.3,0.4v2c0,0.2,0.1,0.3,0.2,0.4c0.1,0.1,0.3,0.1,0.4,0.1l3-1.1l0,0
							c0.2-0.1,0.3-0.2,0.3-0.4l0-2.1c0-0.1,0-0.3-0.1-0.4C25,6.4,24.9,6.3,24.7,6.3z"/>
					</g>
				</g>
			</g>
			<g>
				<g>
					<g>
						<path class="st0" d="M4,16.8c-0.1,0-0.2-0.1-0.3-0.2c-0.1-0.2,0-0.4,0.2-0.4l4.6-2.2c0.2-0.1,0.4,0,0.4,0.2
							c0.1,0.2,0,0.4-0.2,0.4l-4.6,2.2C4.1,16.8,4.1,16.8,4,16.8z"/>
					</g>
				</g>
			</g>
			<g>
				<g>
					<g>
						<path class="st0" d="M4,20.1c-0.1,0-0.2-0.1-0.3-0.2c-0.1-0.2,0-0.4,0.2-0.4l4.6-2.2c0.2-0.1,0.4,0,0.4,0.2
							c0.1,0.2,0,0.4-0.2,0.4l-4.6,2.2C4.1,20.1,4.1,20.1,4,20.1z"/>
					</g>
				</g>
			</g>
			<g>
				<g>
					<g>
						<path class="st0" d="M4,23.4c-0.1,0-0.2-0.1-0.3-0.2c-0.1-0.2,0-0.4,0.2-0.4l4.6-2.2c0.2-0.1,0.4,0,0.4,0.2
							c0.1,0.2,0,0.4-0.2,0.4l-4.6,2.2C4.1,23.4,4.1,23.4,4,23.4z"/>
					</g>
				</g>
			</g>
			<g>
				<g>
					<g>
						<path class="st0" d="M16.8,18.7c0,0-0.1,0-0.1,0l-4.5-1.5c-0.2-0.1-0.3-0.2-0.2-0.4c0.1-0.2,0.2-0.3,0.4-0.2l4.5,1.5
							c0.2,0.1,0.3,0.2,0.2,0.4C17,18.6,16.9,18.7,16.8,18.7z"/>
					</g>
				</g>
			</g>
			<g>
				<g>
					<g>
						<path class="st0" d="M16.8,15.6c0,0-0.1,0-0.1,0l-4.5-1.5c-0.2-0.1-0.3-0.2-0.2-0.4c0.1-0.2,0.2-0.3,0.4-0.2l4.5,1.5
							c0.2,0.1,0.3,0.2,0.2,0.4C17,15.5,16.9,15.6,16.8,15.6z"/>
					</g>
				</g>
			</g>
			<g>
				<g>
					<g>
						<path class="st0" d="M16.8,12c0,0-0.1,0-0.1,0l-4.5-1.5c-0.2-0.1-0.3-0.2-0.2-0.4c0.1-0.2,0.2-0.3,0.4-0.2l4.5,1.5
							c0.2,0.1,0.3,0.2,0.2,0.4C17,11.9,16.9,12,16.8,12z"/>
					</g>
				</g>
			</g>
			<g>
				<g>
					<g>
						<path class="st0" d="M16.8,8.9c0,0-0.1,0-0.1,0l-4.5-1.5c-0.2-0.1-0.3-0.2-0.2-0.4c0.1-0.2,0.2-0.3,0.4-0.2l4.5,1.5
							c0.2,0.1,0.3,0.2,0.2,0.4C17,8.8,16.9,8.9,16.8,8.9z"/>
					</g>
				</g>
			</g>
			<g>
				<g>
					<g>
						<path class="st0" d="M20.9,14.3c-0.1,0-0.3-0.1-0.3-0.2c-0.1-0.2,0-0.4,0.2-0.4l4.6-1.5c0.2-0.1,0.4,0,0.4,0.2
							c0.1,0.2,0,0.4-0.2,0.4l-4.6,1.5C21,14.3,21,14.3,20.9,14.3z"/>
					</g>
				</g>
			</g>
			<g>
				<g>
					<g>
						<path class="st0" d="M20.9,17.4c-0.1,0-0.3-0.1-0.3-0.2c-0.1-0.2,0-0.4,0.2-0.4l4.6-1.5c0.2-0.1,0.4,0,0.4,0.2s0,0.4-0.2,0.4
							l-4.6,1.5C21,17.4,21,17.4,20.9,17.4z"/>
					</g>
				</g>
			</g>
			<g>
				<g>
					<g>
						<path class="st0" d="M20.9,20.9c-0.1,0-0.3-0.1-0.3-0.2c-0.1-0.2,0-0.4,0.2-0.4l4.6-1.5c0.2-0.1,0.4,0,0.4,0.2
							c0.1,0.2,0,0.4-0.2,0.4l-4.6,1.5C21,20.9,21,20.9,20.9,20.9z"/>
					</g>
				</g>
			</g>
			<g>
				<g>
					<g>
						<path class="st0" d="M20.9,24.3c-0.1,0-0.3-0.1-0.3-0.2c-0.1-0.2,0-0.4,0.2-0.4l4.6-1.5c0.2-0.1,0.4,0,0.4,0.2
							c0.1,0.2,0,0.4-0.2,0.4L21,24.3C21,24.3,21,24.3,20.9,24.3z"/>
					</g>
				</g>
			</g>
		</g>
	</g>
</g>
</svg>
