<?xml version="1.0" encoding="utf-8"?>
<!-- Generator: Adobe Illustrator 24.2.1, SVG Export Plug-In . SVG Version: 6.00 Build 0)  -->
<svg version="1.1" id="Layer_1" xmlns="http://www.w3.org/2000/svg" xmlns:xlink="http://www.w3.org/1999/xlink" x="0px" y="0px"
	 viewBox="0 0 60.1 58.1" style="enable-background:new 0 0 60.1 58.1;" xml:space="preserve">
<style type="text/css">
	.st0{fill:#FFFFFF;}
</style>
<path class="st0" d="M56.3,10.3C56,7.9,53.8,6,51.2,6H31.6V2.1c0-0.6-0.4-1.2-1-1.4c-0.5-0.2-1.1-0.1-1.5,0.2
	c-0.4,0.3-0.7,0.7-0.7,1.2V6H8.7C6,6,3.8,8.1,3.8,10.7c0,1.8,1,3.4,2.7,4.2l0.1,0v23.3c0,1.7,1.4,3.1,3.2,3.1h18.7v4l-14,9.5
	c-0.3,0.2-0.6,0.6-0.6,1c-0.1,0.4,0,0.8,0.3,1.1c0.5,0.6,1.5,0.8,2.2,0.3L28.5,49v7c0,0.6,0.4,1.2,1,1.4c0.2,0.1,0.4,0.1,0.6,0.1
	c0.3,0,0.7-0.1,0.9-0.3c0.4-0.3,0.7-0.7,0.7-1.2v-7L43,57.2c0.3,0.2,0.7,0.3,1.1,0.3c0.4-0.1,0.8-0.3,1-0.6c0.5-0.7,0.4-1.6-0.3-2.1
	l-13.2-9.5v-4h18.6c1.8,0,3.2-1.4,3.2-3.1V15l0.1,0C55.4,14,56.4,12.2,56.3,10.3z M50.8,15.4v22.9h-41V15.4H50.8z M8.1,9.1H52
	c0.8,0,1.6,0.5,1.8,1.2c0.2,0.6,0.1,1.2-0.3,1.7c-0.4,0.5-0.9,0.8-1.5,0.8H8.1c-0.8,0-1.6-0.5-1.8-1.2c-0.2-0.6-0.1-1.2,0.3-1.7
	C6.9,9.3,7.5,9.1,8.1,9.1z"/>
</svg>
