<?xml version="1.0" encoding="utf-8"?>
<!-- Generator: Adobe Illustrator 24.2.1, SVG Export Plug-In . SVG Version: 6.00 Build 0)  -->
<svg version="1.1" id="Layer_1" xmlns="http://www.w3.org/2000/svg" xmlns:xlink="http://www.w3.org/1999/xlink" x="0px" y="0px"
	 viewBox="0 0 40.1 38.8" style="enable-background:new 0 0 40.1 38.8;" xml:space="preserve">
<style type="text/css">
	.st0{fill:#FFFFFF;}
</style>
<g>
	<path class="st0" d="M34.4,8.1V3.1c0-0.2-0.2-0.4-0.4-0.4H6.2c-0.2,0-0.4,0.2-0.4,0.4v32.7c0,0.2,0.2,0.4,0.4,0.4h24.6
		c0.2,0,0.4-0.2,0.4-0.4V32c1.8-0.2,3.1-1.7,3.1-3.5v-5.2c0-0.1,0-0.2-0.1-0.3c-0.1-0.1-0.2-0.1-0.3-0.1l-2.7,0.1v-1.1
		c1.8-0.2,3.1-1.7,3.1-3.5v-5.2c0-0.1,0-0.2-0.1-0.3c-0.1-0.1-0.2-0.1-0.3-0.1l-2.7,0.1v-1C33,11.4,34.4,9.9,34.4,8.1z M30.4,35.3
		H6.6V3.5h26.9v4.6c0,1.4-1.2,2.7-2.7,2.7c-0.2,0-0.4,0.2-0.4,0.4v1.9v8.2v2v8.2V35.3z M33.5,23.7v4.7c0,1.3-1,2.4-2.2,2.6v-7.3
		L33.5,23.7z M33.5,13.5v4.7c0,1.3-1,2.4-2.2,2.6v-7.3L33.5,13.5z"/>
	<path class="st0" d="M15.7,12.8c1.7,0,3-1.4,3-3c0-1.7-1.4-3-3-3c-1.7,0-3,1.4-3,3C12.7,11.4,14,12.8,15.7,12.8z M15.7,7.6
		c1.2,0,2.1,1,2.1,2.1c0,1.2-1,2.1-2.1,2.1c-1.2,0-2.1-1-2.1-2.1C13.6,8.5,14.5,7.6,15.7,7.6z"/>
	<path class="st0" d="M10.7,19.6h2.2c0,0,0,0,0,0c0,0,0,0,0,0H21c0.2,0,0.4-0.2,0.4-0.4v-3.7c0-1.7-1.3-3-3-3c-0.1,0-0.2,0-0.3,0.1
		c-0.3,0.3-0.7,0.6-1,0.7c0,0,0,0-0.1,0c-0.3,0.2-0.7,0.2-1.2,0.2c-0.5,0-0.8-0.1-1.2-0.2c-0.4-0.2-0.8-0.4-1.1-0.7
		c-0.1-0.1-0.2-0.1-0.3-0.1c-1.6,0-3,1.4-3,3v3.7C10.2,19.4,10.4,19.6,10.7,19.6z M11.1,15.4c0-1.1,0.8-2,1.9-2.1
		c0.4,0.3,0.8,0.5,1.2,0.7c0.5,0.2,1,0.3,1.6,0.3c0.6,0,1.1-0.1,1.6-0.3c0.4-0.1,0.8-0.4,1.2-0.7c1.1,0.1,1.9,1,1.9,2.1v3.3h-1.8
		v-1.9c0-0.2-0.2-0.4-0.4-0.4s-0.4,0.2-0.4,0.4v1.9h-4.5v-1.9c0-0.2-0.2-0.4-0.4-0.4c0,0,0,0,0,0c-0.2,0-0.4,0.2-0.4,0.4l-0.1,1.9
		h-1.3V15.4z"/>
	<path class="st0" d="M26.8,31.3H10.5c-0.2,0-0.4,0.2-0.4,0.4c0,0.2,0.2,0.4,0.4,0.4h16.3c0.2,0,0.4-0.2,0.4-0.4
		C27.2,31.5,27,31.3,26.8,31.3z"/>
	<path class="st0" d="M26.8,28.1H10.5c-0.2,0-0.4,0.2-0.4,0.4c0,0.2,0.2,0.4,0.4,0.4h16.3c0.2,0,0.4-0.2,0.4-0.4
		C27.2,28.3,27,28.1,26.8,28.1z"/>
	<path class="st0" d="M26.8,25H10.5c-0.2,0-0.4,0.2-0.4,0.4c0,0.2,0.2,0.4,0.4,0.4h16.3c0.2,0,0.4-0.2,0.4-0.4
		C27.2,25.2,27,25,26.8,25z"/>
	<path class="st0" d="M26.8,21.9H10.5c-0.2,0-0.4,0.2-0.4,0.4s0.2,0.4,0.4,0.4h16.3c0.2,0,0.4-0.2,0.4-0.4S27,21.9,26.8,21.9z"/>
</g>
</svg>
