<?xml version="1.0" encoding="utf-8"?>
<!-- Generator: Adobe Illustrator 24.2.1, SVG Export Plug-In . SVG Version: 6.00 Build 0)  -->
<svg version="1.1" id="Layer_1" xmlns="http://www.w3.org/2000/svg" xmlns:xlink="http://www.w3.org/1999/xlink" x="0px" y="0px"
	 viewBox="0 0 40.1 38.8" style="enable-background:new 0 0 40.1 38.8;" xml:space="preserve">
<style type="text/css">
	.st0{fill:#117BB8;}
	.st1{fill:#FFFFFF;}
</style>
<g id="XMLID_425_">
	<path id="XMLID_431_" class="st0" d="M20.1,37.3L20.1,37.3c-9.9,0-18-8-18-18l0,0c0-9.9,8-18,18-18l0,0c9.9,0,18,8,18,18l0,0
		C38,29.3,30,37.3,20.1,37.3z"/>
	<g id="XMLID_426_">
		<g id="XMLID_428_">
			<rect id="XMLID_430_" x="11.9" y="15.4" class="st1" width="3.7" height="12"/>
			<path id="XMLID_429_" class="st1" d="M13.8,13.8c1.2,0,2.2-1,2.2-2.2c0-1.2-1-2.2-2.2-2.2c-1.2,0-2.2,1-2.2,2.2
				C11.6,12.8,12.5,13.8,13.8,13.8z"/>
		</g>
		<path id="XMLID_427_" class="st1" d="M21.6,21.1c0-1.7,0.8-2.7,2.3-2.7c1.4,0,2,1,2,2.7c0,1.7,0,6.3,0,6.3h3.7c0,0,0-4.4,0-7.6
			c0-3.2-1.8-4.8-4.4-4.8c-2.5,0-3.6,2-3.6,2v-1.6H18v12h3.6C21.6,27.4,21.6,22.9,21.6,21.1z"/>
	</g>
</g>
</svg>
