<?xml version="1.0" encoding="utf-8"?>
<!-- Generator: Adobe Illustrator 24.2.1, SVG Export Plug-In . SVG Version: 6.00 Build 0)  -->
<svg version="1.1" id="Layer_1" xmlns="http://www.w3.org/2000/svg" xmlns:xlink="http://www.w3.org/1999/xlink" x="0px" y="0px"
	 viewBox="0 0 60.1 58.1" style="enable-background:new 0 0 60.1 58.1;" xml:space="preserve">
<style type="text/css">
	.st0{fill:#FFFFFF;}
</style>
<path class="st0" d="M11.4,0.1c-0.5,0.1-1,0.5-1.2,1C9.9,2.8,8.5,5.4,7.6,8C7.2,9.3,6.9,10.6,6.9,12c0.1,1.3,0.7,2.7,1.9,3.6
	c0,0,0.1,0.1,0.1,0.1c0.4,0.2,0.9,0.4,1.3,0.5v18.6c-0.7,0-1.3,0-2,0c-0.6,0.1-1.1,0.7-1.1,1.3v17.2c0,0.7,0.6,1.3,1.3,1.3h1.8v2
	c0,0.7,0.6,1.3,1.2,1.3s1.2-0.6,1.2-1.3v-2h34.7v2c0,0.7,0.6,1.3,1.2,1.3c0.7,0,1.2-0.6,1.2-1.3v-2h1.8c0.7,0,1.3-0.6,1.3-1.3V36.1
	c0-0.7-0.6-1.3-1.3-1.3h-1.8V16.2c0.4-0.1,0.9-0.3,1.3-0.5c0,0,0.1-0.1,0.1-0.1c1.2-0.9,1.8-2.3,1.9-3.6c0.1-1.3-0.3-2.6-0.7-3.9
	c-0.9-2.6-2.3-5.2-2.6-6.9c-0.1-0.6-0.7-1-1.3-1C35.9,0.1,22.8,0.1,11.4,0.1L11.4,0.1z M12.6,2.6h34.9c0.6,2.3,1.7,4.5,2.3,6.4
	c0.4,1.1,0.6,2.2,0.6,3c0,0.7-0.2,1.2-0.7,1.6c-1.6,0.8-2.6,0.5-3.9-0.3c-1.3-0.9-2.5-2.6-3.4-4.4c-0.3-0.5-0.9-0.8-1.4-0.7
	c-0.5,0.1-1,0.6-1.1,1.1c-0.4,3.5-2.6,4.7-4.6,4.7c-2.2,0-4-2-4-3.9v-0.1c0.1-0.7-0.6-1.3-1.2-1.3s-1.3,0.6-1.2,1.3v0.1
	c0,1.9-1.8,3.9-4,3.9c-2,0-4.2-1.2-4.6-4.7c-0.1-0.6-0.5-1-1.1-1.1S18,8.4,17.7,8.9c-0.9,1.8-2.2,3.5-3.4,4.4
	c-1.2,0.9-2.3,1.1-3.9,0.3c-0.5-0.4-0.7-0.9-0.7-1.6c0-0.8,0.2-1.8,0.6-3c0.7-2,1.7-4.1,2.3-6.1L12.6,2.6z M18.2,12.3
	c1.3,2.7,3.9,4.1,6.3,4.1c2.2,0,4.1-1.2,5.2-2.8c1.2,1.6,3,2.8,5.2,2.8c2.4,0,5-1.4,6.3-4.1c0.8,1,1.6,2,2.6,2.8
	c0.8,0.6,1.8,1,2.8,1.2v18.5H12.7V16.3c1-0.2,2-0.6,2.8-1.2C16.6,14.4,17.4,13.4,18.2,12.3z M9.6,37.9h40.9v2.5
	c-12.3,0-24.6,0-36.9,0c-0.7,0-1.3,0.6-1.3,1.3c0,0.6,0.7,1.2,1.4,1.2h36.8v1.2c-12.3,0-24.6,0-36.9,0c-0.7,0-1.3,0.6-1.3,1.3
	c0,0.6,0.7,1.2,1.4,1.2h36.8v5.6H9.6L9.6,37.9z"/>
</svg>
