<?xml version="1.0" encoding="utf-8"?>
<!-- Generator: Adobe Illustrator 24.2.1, SVG Export Plug-In . SVG Version: 6.00 Build 0)  -->
<svg version="1.1" id="Layer_1" xmlns="http://www.w3.org/2000/svg" xmlns:xlink="http://www.w3.org/1999/xlink" x="0px" y="0px"
	 viewBox="0 0 34.3 35.8" style="enable-background:new 0 0 34.3 35.8;" xml:space="preserve">
<style type="text/css">
	.st0{fill:#FFFFFF;}
</style>
<g>
	<g>
		<g>
			<g>
				<g>
					<g>
						<g>
							<path class="st0" d="M12.6,30.3c-0.2,0-0.4-0.2-0.3-0.4V2.2c0-0.2,0.1-0.4,0.3-0.4S13,2,13,2.2v27.7
								C13,30.1,12.8,30.3,12.6,30.3z"/>
						</g>
					</g>
				</g>
				<g>
					<g>
						<g>
							<path class="st0" d="M22.5,34c-0.2,0-0.4-0.2-0.3-0.4V5.9c-0.1-0.2,0.1-0.4,0.3-0.4c0.2,0,0.4,0.2,0.4,0.4v27.7
								C22.8,33.8,22.7,34,22.5,34z"/>
						</g>
					</g>
				</g>
				<g>
					<g>
						<g>
							<path class="st0" d="M22.4,34.6c-0.3,0-0.6-0.1-0.9-0.2l-8.6-3.7c-0.2-0.1-0.4-0.1-0.6,0l-8.1,3.5c-0.5,0.2-1,0.2-1.5-0.1
								C2.2,33.8,2,33.3,2,32.7v-25c0-0.6,0.3-1.1,0.8-1.4l8.8-5C12.1,1,12.9,1,13.5,1.2l8.6,3.7c0.2,0.1,0.4,0.1,0.6,0l8.1-3.5
								c0.5-0.2,1-0.2,1.5,0.1C32.7,1.9,33,2.4,33,2.9v26.3c0,0.6-0.4,1.2-1,1.4l-8.7,3.7C23,34.5,22.7,34.6,22.4,34.6z M12.6,29.1
								c0.3,0,0.6,0.1,0.9,0.2l8.6,3.7c0.2,0.1,0.4,0.1,0.6,0l8.7-3.7l0,0c0,0,0,0,0-0.1V2.9c0,0,0,0,0-0.1c0,0,0,0-0.1,0l-8.1,3.5
								c-0.6,0.2-1.2,0.2-1.8,0l-8.6-3.7c-0.2-0.1-0.4-0.1-0.5,0l-8.8,5c0,0,0,0,0,0.1v24.9c0,0,0,0,0,0.1c0,0,0,0,0.1,0l8.1-3.5
								C12,29.2,12.3,29.1,12.6,29.1z"/>
						</g>
					</g>
				</g>
			</g>
			<g>
				<g>
					<g>
						<path class="st0" d="M6.6,14.6c-0.2,0-0.4-0.1-0.6-0.2c-0.4-0.2-0.6-0.6-0.6-1v-3c0-0.4,0.2-0.8,0.6-1l3.2-1.9
							c0.4-0.2,0.8-0.2,1.1,0c0.4,0.2,0.6,0.6,0.6,1v3.1c0,0.4-0.2,0.8-0.6,1l0,0l-3.2,1.8C7,14.5,6.8,14.6,6.6,14.6z M9.7,8.1
							c-0.1,0-0.1,0-0.2,0.1l-3.2,1.9c-0.1,0.1-0.2,0.2-0.2,0.3v3c0,0.2,0.1,0.3,0.2,0.3s0.2,0.1,0.4,0L9.9,12
							c0.1-0.1,0.2-0.2,0.2-0.3V8.5c0-0.2-0.1-0.3-0.2-0.3C9.9,8.2,9.8,8.1,9.7,8.1z M10.1,12.3L10.1,12.3L10.1,12.3z"/>
					</g>
				</g>
			</g>
			<g>
				<g>
					<g>
						<path class="st0" d="M19.1,28.7c-0.2,0-0.3,0-0.5-0.1l-3-1.3c-0.5-0.2-0.8-0.7-0.8-1.2v-2.3c0-0.4,0.2-0.8,0.6-1.1
							c0.4-0.2,0.8-0.3,1.2-0.1l3.1,1.2c0.5,0.2,0.9,0.7,0.9,1.3l0,2.4c0,0.4-0.2,0.8-0.6,1.1C19.6,28.6,19.3,28.7,19.1,28.7z
							 M15.9,23.3c-0.1,0-0.3,0-0.4,0.2c-0.1,0.1-0.2,0.3-0.2,0.5l0,2.2c0,0.2,0.1,0.4,0.4,0.5l3,1.3l0,0c0.2,0.1,0.4,0.1,0.5-0.1
							c0.2-0.1,0.3-0.3,0.3-0.5l0-2.4c0-0.2-0.1-0.5-0.4-0.5l-3-1.1C16.1,23.3,16,23.3,15.9,23.3z"/>
					</g>
				</g>
			</g>
			<g>
				<g>
					<g>
						<path class="st0" d="M25.7,12.6c-0.6,0-1.1-0.4-1.3-1c0-0.1,0-0.2,0-0.3V9.1c0-0.5,0.3-1,0.8-1.2l3.4-1.3
							c0.5-0.2,1-0.1,1.4,0.3c0.2,0.2,0.3,0.6,0.3,0.9l0,2.3c0,0.5-0.3,1-0.8,1.2l0,0l-3.4,1.2C26,12.5,25.8,12.6,25.7,12.6z
							 M28.9,7.2c-0.1,0-0.1,0-0.2,0l-3.3,1.3C25.2,8.7,25,8.9,25,9.1v2.2c0,0.2,0.1,0.3,0.2,0.4c0.1,0.1,0.3,0.1,0.5,0.1l3.3-1.2
							l0,0c0.2-0.1,0.3-0.3,0.3-0.5l0-2.3c0-0.1,0-0.3-0.2-0.4C29.2,7.3,29,7.2,28.9,7.2z"/>
					</g>
				</g>
			</g>
			<g>
				<g>
					<g>
						<path class="st0" d="M5.8,18.9c-0.1,0-0.3-0.1-0.3-0.2c-0.1-0.2,0-0.4,0.2-0.5l5.1-2.5c0.2-0.1,0.4,0,0.5,0.2
							c0.1,0.2,0,0.4-0.2,0.5l-5.1,2.5C5.9,18.9,5.8,18.9,5.8,18.9z"/>
					</g>
				</g>
			</g>
			<g>
				<g>
					<g>
						<path class="st0" d="M5.8,22.6c-0.1,0-0.3-0.1-0.3-0.2c-0.1-0.2,0-0.4,0.2-0.5l5.1-2.5c0.2-0.1,0.4,0,0.5,0.2
							c0.1,0.2,0,0.4-0.2,0.5l-5.1,2.5C5.9,22.6,5.8,22.6,5.8,22.6z"/>
					</g>
				</g>
			</g>
			<g>
				<g>
					<g>
						<path class="st0" d="M5.8,26.3c-0.1,0-0.3-0.1-0.3-0.2c-0.1-0.2,0-0.4,0.2-0.5l5.1-2.5c0.2-0.1,0.4,0,0.5,0.2
							c0.1,0.2,0,0.4-0.2,0.5l-5.1,2.5C5.9,26.3,5.8,26.3,5.8,26.3z"/>
					</g>
				</g>
			</g>
			<g>
				<g>
					<g>
						<path class="st0" d="M20,21.1c0,0-0.1,0-0.1,0l-5-1.7c-0.2-0.1-0.3-0.3-0.2-0.5c0.1-0.2,0.3-0.3,0.5-0.2l5,1.7
							c0.2,0.1,0.3,0.3,0.2,0.5C20.3,21,20.2,21.1,20,21.1z"/>
					</g>
				</g>
			</g>
			<g>
				<g>
					<g>
						<path class="st0" d="M20,17.6c0,0-0.1,0-0.1,0l-5-1.7c-0.2-0.1-0.3-0.3-0.2-0.5c0.1-0.2,0.3-0.3,0.5-0.2l5,1.7
							c0.2,0.1,0.3,0.3,0.2,0.5C20.3,17.5,20.2,17.6,20,17.6z"/>
					</g>
				</g>
			</g>
			<g>
				<g>
					<g>
						<path class="st0" d="M20,13.5c0,0-0.1,0-0.1,0l-5-1.7c-0.2-0.1-0.3-0.3-0.2-0.5c0.1-0.2,0.3-0.3,0.5-0.2l5,1.7
							c0.2,0.1,0.3,0.3,0.2,0.5C20.3,13.4,20.2,13.5,20,13.5z"/>
					</g>
				</g>
			</g>
			<g>
				<g>
					<g>
						<path class="st0" d="M20,10c0,0-0.1,0-0.1,0l-5-1.7c-0.2-0.1-0.3-0.3-0.2-0.5c0.1-0.2,0.3-0.3,0.5-0.2l5,1.7
							c0.2,0.1,0.3,0.3,0.2,0.5C20.3,9.9,20.2,10,20,10z"/>
					</g>
				</g>
			</g>
			<g>
				<g>
					<g>
						<path class="st0" d="M24.7,16.1c-0.2,0-0.3-0.1-0.4-0.3c-0.1-0.2,0-0.4,0.2-0.5l5.2-1.7c0.2-0.1,0.4,0,0.5,0.2
							c0.1,0.2,0,0.4-0.2,0.5l-5.2,1.7C24.8,16.1,24.7,16.1,24.7,16.1z"/>
					</g>
				</g>
			</g>
			<g>
				<g>
					<g>
						<path class="st0" d="M24.7,19.6c-0.2,0-0.3-0.1-0.4-0.3c-0.1-0.2,0-0.4,0.2-0.5l5.2-1.7c0.2-0.1,0.4,0,0.5,0.2
							c0.1,0.2,0,0.4-0.2,0.5l-5.2,1.7C24.8,19.6,24.7,19.6,24.7,19.6z"/>
					</g>
				</g>
			</g>
			<g>
				<g>
					<g>
						<path class="st0" d="M24.7,23.5c-0.2,0-0.3-0.1-0.4-0.3c-0.1-0.2,0-0.4,0.2-0.5l5.2-1.7c0.2-0.1,0.4,0,0.5,0.2
							c0.1,0.2,0,0.4-0.2,0.5l-5.2,1.7C24.8,23.5,24.7,23.5,24.7,23.5z"/>
					</g>
				</g>
			</g>
			<g>
				<g>
					<g>
						<path class="st0" d="M24.7,27.3c-0.2,0-0.3-0.1-0.4-0.3c-0.1-0.2,0-0.4,0.2-0.5l5.2-1.7c0.2-0.1,0.4,0,0.5,0.2
							c0.1,0.2,0,0.4-0.2,0.5l-5.2,1.7C24.7,27.3,24.7,27.3,24.7,27.3z"/>
					</g>
				</g>
			</g>
		</g>
	</g>
</g>
</svg>
