<?xml version="1.0" encoding="utf-8"?>
<!-- Generator: Adobe Illustrator 24.2.1, SVG Export Plug-In . SVG Version: 6.00 Build 0)  -->
<svg version="1.1" id="Layer_1" xmlns="http://www.w3.org/2000/svg" xmlns:xlink="http://www.w3.org/1999/xlink" x="0px" y="0px"
	 viewBox="0 0 42.2 35.8" style="enable-background:new 0 0 42.2 35.8;" xml:space="preserve">
<style type="text/css">
	.st0{fill:#FFFFFF;}
</style>
<g>
	<g>
		<path class="st0" d="M34.7,2.9h-1.2V1.6c0-0.7-0.5-1.2-1.2-1.2S31,0.9,31,1.6v1.2h-5V1.6c0-0.7-0.5-1.2-1.2-1.2
			c-0.8,0-1.2,0.5-1.2,1.2v1.2h-5V1.6c0-0.7-0.5-1.2-1.2-1.2c-0.8,0-1.2,0.5-1.2,1.2v1.2h-5V1.6c0-0.7-0.5-1.2-1.2-1.2
			C9,0.4,8.5,0.9,8.5,1.6v1.2H7.2c-2.1,0-3.8,1.6-3.8,3.8v25c0,2.1,1.6,3.8,3.8,3.8h27.5c2.1,0,3.8-1.6,3.8-3.8v-25
			C38.5,4.5,36.8,2.9,34.7,2.9z M7.2,5.4h1.3v1.2c0,0.8,0.5,1.2,1.2,1.2c0.7,0,1.2-0.5,1.2-1.2V5.4h5v1.2c0,0.8,0.5,1.2,1.2,1.2
			c0.8,0,1.2-0.5,1.2-1.2V5.4h5v1.2c0,0.8,0.5,1.2,1.2,1.2c0.8,0,1.2-0.5,1.2-1.2V5.4h5v1.2c0,0.8,0.5,1.2,1.2,1.2s1.2-0.5,1.2-1.2
			V5.4h1.2c0.8,0,1.2,0.5,1.2,1.2v3.8H6V6.6C6,5.9,6.5,5.4,7.2,5.4z M34.7,32.9H7.2c-0.8,0-1.2-0.5-1.2-1.2V12.9h30v18.8
			C36,32.4,35.5,32.9,34.7,32.9z"/>
		<path class="st0" d="M26.7,16.3c-1.2-1.2-3.4-1.2-4.5,0l-8.4,8.4c-0.2,0.2-0.4,0.5-0.4,0.9v3.6c0,0.8,0.5,1.2,1.2,1.2h3.6
			c0.4,0,0.6-0.1,0.9-0.4l8.4-8.4c1.2-1.2,1.2-3.2,0-4.5L26.7,16.3z M25.7,19.9l-7.9,8H16v-1.8l8-8c0.3-0.3,0.8-0.3,1,0l0.8,0.8
			C26.1,19.1,26.1,19.6,25.7,19.9z"/>
	</g>
</g>
</svg>
