<?xml version="1.0" encoding="utf-8"?>
<!-- Generator: Adobe Illustrator 24.2.1, SVG Export Plug-In . SVG Version: 6.00 Build 0)  -->
<svg version="1.1" id="Layer_1" xmlns="http://www.w3.org/2000/svg" xmlns:xlink="http://www.w3.org/1999/xlink" x="0px" y="0px"
	 viewBox="0 0 40.1 38.8" style="enable-background:new 0 0 40.1 38.8;" xml:space="preserve">
<g>
	<path d="M20,0.5C11.7,0.5,5.3,7,5.3,15.4c0,9.7,9.4,19,13.5,22.5C18.9,38,19,38,19,38.1l0.1,0.1c0.4,0.2,0.6,0.2,0.9,0.2
		c0.3,0,0.5-0.1,0.7-0.2c0.1,0,0.1-0.1,0.2-0.1c0.1-0.1,13.9-10.8,13.9-22.7C34.7,6.9,28.2,0.5,20,0.5z M31.8,15.2
		c0,8.2-8.2,16.4-11.9,19.7C10.6,27,8.1,18.8,8.1,15.2C8.1,8.7,13.4,3.3,20,3.3S31.8,8.7,31.8,15.2z"/>
	<path d="M20,8.3c-4,0-7.3,3.3-7.3,7.3c0,4,3.3,7.3,7.3,7.3s7.3-3.3,7.3-7.3C27.2,11.5,24,8.3,20,8.3z M24.4,15.5
		c0,2.5-1.9,4.4-4.4,4.4s-4.4-1.9-4.4-4.4s1.9-4.4,4.4-4.4S24.4,13,24.4,15.5z"/>
</g>
</svg>
