<?xml version="1.0" encoding="utf-8"?>
<!-- Generator: Adobe Illustrator 24.2.1, SVG Export Plug-In . SVG Version: 6.00 Build 0)  -->
<svg version="1.1" id="Layer_1" xmlns="http://www.w3.org/2000/svg" xmlns:xlink="http://www.w3.org/1999/xlink" x="0px" y="0px"
	 viewBox="0 0 60.1 58.1" style="enable-background:new 0 0 60.1 58.1;" xml:space="preserve">
<style type="text/css">
	.st0{fill:#FFFFFF;}
</style>
<g>
	<g>
		<path class="st0" d="M10.1,37.6v11.6h40l0-11.5c0-1.4,1-2.7,2.4-3c2-0.4,3.7,1.1,3.7,3v12c0,3.1-2.5,5.7-5.7,5.7H7.2
			C5.4,55.2,4,53.8,4,52l0-15.2c0-0.5,0.2-1,0.6-1.3C7.1,33.3,10.1,35.1,10.1,37.6z"/>
		<path class="st0" d="M32.1,38.5l12.4-12.4c1.2-1.2,1.2-3.1,0-4.3c-1.2-1.2-3.1-1.2-4.3,0L33.1,29l0-23.1c0-1.4-1-2.7-2.4-3
			c-2-0.4-3.7,1.1-3.7,3v23.4l-7.3-7.3c-0.9-0.9-2.5-1.2-3.6-0.6c-1.1,0.6-1.6,1.6-1.6,2.7c0,0.8,0.3,1.6,0.9,2.1l12.4,12.4
			c0.6,0.6,1.3,0.9,2.1,0.9C30.7,39.4,31.5,39.1,32.1,38.5z"/>
	</g>
</g>
</svg>
