<?xml version="1.0" encoding="utf-8"?>
<!-- Generator: Adobe Illustrator 24.2.1, SVG Export Plug-In . SVG Version: 6.00 Build 0)  -->
<svg version="1.1" id="Layer_1" xmlns="http://www.w3.org/2000/svg" xmlns:xlink="http://www.w3.org/1999/xlink" x="0px" y="0px"
	 viewBox="0 0 29.5 26.2" style="enable-background:new 0 0 29.5 26.2;" xml:space="preserve">
<style type="text/css">
	.st0{fill:#00818D;}
</style>
<g>
	<path class="st0" d="M27.7,5.6h-3.7v-3c0-0.5-0.4-0.9-0.9-0.9H1.8C1.3,1.7,1,2.1,1,2.6v16.8c0,0.5,0.4,0.9,0.9,0.9h3.3v3
		c0,0.5,0.4,0.9,0.9,0.9h21.7c0.5,0,0.9-0.4,0.9-0.9V6.5C28.6,6,28.2,5.6,27.7,5.6z M2.7,18.5V3.5h19.6v15.1H2.7z M26.5,22.4H6.9
		v-2.1h16.3c0.5,0,0.9-0.4,0.9-0.9V7.3h2.5V22.4z"/>
	<path class="st0" d="M15.2,9.8c1.4,0,2.6-1.2,2.6-2.6s-1.2-2.6-2.6-2.6c-1.4,0-2.6,1.2-2.6,2.6C12.6,8.7,13.8,9.8,15.2,9.8z"/>
	<path class="st0" d="M17.6,11.4c-0.1-0.2-0.4-0.3-0.6-0.4c-0.3,0-0.6,0.1-0.8,0.3l-1.5,1.8l-3.4-5c-0.3-0.4-0.8-0.5-1.2-0.2
		C10,8,9.9,8.1,9.8,8.2l-5.2,7.6c-0.3,0.4-0.2,1,0.2,1.2c0.1,0.1,0.3,0.2,0.5,0.2h15c0.5,0,0.9-0.4,0.9-0.9c0-0.2-0.1-0.4-0.2-0.6
		L17.6,11.4z"/>
</g>
</svg>
