<?xml version="1.0" encoding="utf-8"?>
<!-- Generator: Adobe Illustrator 24.2.1, SVG Export Plug-In . SVG Version: 6.00 Build 0)  -->
<svg version="1.1" id="Layer_1" xmlns="http://www.w3.org/2000/svg" xmlns:xlink="http://www.w3.org/1999/xlink" x="0px" y="0px"
	 viewBox="0 0 26.6 22.5" style="enable-background:new 0 0 26.6 22.5;" xml:space="preserve">
<style type="text/css">
	.st0{fill:#FFFFFF;}
</style>
<g transform="translate(0,-952.36218)">
	<g>
		<path class="st0" d="M6.7,953.1c-2.3,0-4.2,1.9-4.2,4.2c0,1.6,0.9,3,2.2,3.7H3.9c-1.2,0-2.2,1-2.2,2.1v8.9c0,1.2,1,2.2,2.2,2.2H18
			c1.2,0,2.2-1,2.2-2.2v-0.2l3.6,1.8c0.4,0.2,0.9,0,1.1-0.3c0.1-0.1,0.1-0.2,0.1-0.4v-10.7c0-0.4-0.3-0.8-0.8-0.8c0,0-0.1,0-0.1,0
			c-0.1,0-0.2,0-0.3,0.1l-3.6,1.8v-0.2c0-1.2-1-2.1-2.2-2.1h-0.8c1.3-0.7,2.2-2.1,2.2-3.7c0-2.3-1.9-4.2-4.2-4.2s-4.2,1.9-4.2,4.2
			c0,1.6,0.9,3,2.2,3.7H8.8c1.3-0.7,2.2-2.1,2.2-3.7C10.9,955,9,953.1,6.7,953.1z M6.7,954.7c1.5,0,2.6,1.2,2.6,2.6
			s-1.2,2.6-2.6,2.6s-2.6-1.2-2.6-2.6S5.3,954.7,6.7,954.7z M15.1,954.7c1.5,0,2.6,1.2,2.6,2.6s-1.2,2.6-2.6,2.6s-2.6-1.2-2.6-2.6
			S13.7,954.7,15.1,954.7z M3.9,962.6H18c0.3,0,0.6,0.2,0.6,0.6v8.9c0,0.3-0.2,0.6-0.6,0.6H3.9c-0.3,0-0.6-0.2-0.6-0.6v-8.9
			C3.3,962.8,3.5,962.6,3.9,962.6z M23.3,963.5v8.1l-3.2-1.6v-4.9L23.3,963.5z"/>
	</g>
</g>
</svg>
