<?xml version="1.0" encoding="utf-8"?>
<!-- Generator: Adobe Illustrator 24.2.1, SVG Export Plug-In . SVG Version: 6.00 Build 0)  -->
<svg version="1.1" id="Layer_1" xmlns="http://www.w3.org/2000/svg" xmlns:xlink="http://www.w3.org/1999/xlink" x="0px" y="0px"
	 viewBox="0 0 20.7 22.7" style="enable-background:new 0 0 20.7 22.7;" xml:space="preserve">
<style type="text/css">
	.st0{fill:#FFC700;}
</style>
<path class="st0" d="M17.5,3.2H11V1.9c0-0.3-0.2-0.5-0.4-0.6c-0.2-0.1-0.4,0-0.6,0.1C9.9,1.5,9.8,1.7,9.8,1.9v1.3H3.2
	C2.3,3.2,1.5,4,1.5,4.9c0,0.6,0.4,1.2,0.9,1.5v8.1c0,0.6,0.5,1.2,1.1,1.2h6.2V17l-4.7,3.3c-0.1,0.1-0.2,0.2-0.2,0.4
	c0,0.2,0,0.3,0.1,0.4c0.2,0.2,0.6,0.3,0.8,0.1l3.9-2.8v2.3c0,0.3,0.2,0.5,0.4,0.6c0.1,0,0.2,0,0.2,0c0.1,0,0.2,0,0.4-0.1
	c0.2-0.1,0.3-0.3,0.3-0.5v-2.3l3.7,2.8c0.1,0.1,0.3,0.1,0.4,0.1c0.2,0,0.3-0.1,0.4-0.2c0.2-0.3,0.1-0.6-0.1-0.8L11,17v-1.3h6.2
	c0.6,0,1.2-0.5,1.2-1.2V6.5c0.6-0.3,1-1,0.9-1.7C19.1,3.9,18.4,3.2,17.5,3.2z M3.6,14.5V6.6h13.6v7.9H3.6z M18.2,5.3
	c-0.1,0.1-0.3,0.2-0.5,0.2H3c-0.3,0-0.5-0.2-0.5-0.4C2.4,5,2.4,4.8,2.6,4.7C2.7,4.5,2.8,4.4,3,4.4h14.7c0.3,0,0.5,0.2,0.6,0.4
	C18.3,5,18.3,5.2,18.2,5.3z"/>
</svg>
