<?xml version="1.0" encoding="utf-8"?>
<!-- Generator: Adobe Illustrator 24.2.1, SVG Export Plug-In . SVG Version: 6.00 Build 0)  -->
<svg version="1.1" id="Layer_1" xmlns="http://www.w3.org/2000/svg" xmlns:xlink="http://www.w3.org/1999/xlink" x="0px" y="0px"
	 viewBox="0 0 17 20.3" style="enable-background:new 0 0 17 20.3;" xml:space="preserve">
<g>
	<g>
		<path d="M1,10.1c0-0.1,0-0.1,0-0.2c0,0,0-0.1,0-0.1c0-0.1,0.1-0.1,0.1-0.2L3,7.8c0.2-0.2,0.6-0.2,0.9,0c0.2,0.2,0.2,0.6,0,0.9
			L3.1,9.4h8.2c0.3,0.1,0.6,0.4,0.6,0.7c0,0.3-0.3,0.6-0.6,0.3H3.1l0.8,1.1c0.2,0.2,0.2,0.6,0,0.9s-0.6,0.2-0.9,0l-1.8-1.8
			c-0.1-0.1-0.1-0.1-0.1-0.2c0,0,0-0.1,0-0.1C1,10.2,1,10.1,1,10.1z"/>
		<path d="M14.9,19H5.3c0,0-0.6-0.2-0.5-0.5v0v-4.8c-0.1-0.3,0.2-0.6,0.5-0.6c0.3,0,0.5,0.6,0.5,0.6v4.4H14V2.5H5.7v3.9
			C5.9,6.8,5.6,7,5.3,7C4.9,7,4.8,6.4,4.8,6.4V1.6C4.8,1.3,5,1,5.4,1c0,0,0,0,0,0h9.5c0.3,0,0.6,0.3,0.6,0.6c0,0,0,0,0,0v16.8
			C15.5,18.8,15.2,19,14.9,19C14.9,19,14.9,19,14.9,19z"/>
	</g>
</g>
</svg>
