<?xml version="1.0" encoding="utf-8"?>
<!-- Generator: Adobe Illustrator 24.2.1, SVG Export Plug-In . SVG Version: 6.00 Build 0)  -->
<svg version="1.1" id="Layer_1" xmlns="http://www.w3.org/2000/svg" xmlns:xlink="http://www.w3.org/1999/xlink" x="0px" y="0px"
	 viewBox="0 0 22.5 21.8" style="enable-background:new 0 0 22.5 21.8;" xml:space="preserve">
<path d="M21.1,19.7l-6.4-6.4c0,0,0,0-0.1,0c2.3-2.9,2-7.2-0.6-9.9C12.6,2,10.7,1.3,8.7,1.3c-2,0-3.9,0.8-5.3,2.2S1.2,6.8,1.2,8.8
	c0,2,0.8,3.9,2.2,5.3c1.5,1.5,3.4,2.2,5.3,2.2c1.9,0,3.8-0.7,5.3-2.2l6.4,6.4c0.1,0.1,0.2,0.1,0.4,0.1s0.3,0,0.4-0.1
	C21.3,20.2,21.3,19.9,21.1,19.7z M4.1,13.4c-1.2-1.2-1.9-2.9-1.9-4.6c0-1.7,0.7-3.4,1.9-4.6S7,2.3,8.7,2.3c1.7,0,3.4,0.7,4.6,1.9
	c2.5,2.5,2.5,6.7,0,9.2C10.8,15.9,6.7,15.9,4.1,13.4z"/>
</svg>
