<?xml version="1.0" encoding="utf-8"?>
<!-- Generator: Adobe Illustrator 24.2.1, SVG Export Plug-In . SVG Version: 6.00 Build 0)  -->
<svg version="1.1" id="Layer_1" xmlns="http://www.w3.org/2000/svg" xmlns:xlink="http://www.w3.org/1999/xlink" x="0px" y="0px"
	 viewBox="0 0 29.5 30" style="enable-background:new 0 0 29.5 30;" xml:space="preserve">
<style type="text/css">
	.st0{fill:#00818D;}
</style>
<g>
	<path class="st0" d="M25.7,2.9h-1v-1c0-0.6-0.4-1-1-1s-1,0.4-1,1v1h-4v-1c0-0.6-0.4-1-1-1s-1,0.4-1,1v1h-4v-1c0-0.6-0.4-1-1-1
		s-1,0.4-1,1v1h-4v-1c0-0.6-0.4-1-1-1s-1,0.4-1,1v1h-1c-1.7,0-3,1.3-3,3v20c0,1.7,1.3,3,3,3h22c1.7,0,3-1.3,3-3v-20
		C28.7,4.2,27.4,2.9,25.7,2.9z M3.7,4.9h1v1c0,0.6,0.4,1,1,1s1-0.4,1-1v-1h4v1c0,0.6,0.4,1,1,1s1-0.4,1-1v-1h4v1c0,0.6,0.4,1,1,1
		s1-0.4,1-1v-1h4v1c0,0.6,0.4,1,1,1s1-0.4,1-1v-1h1c0.6,0,1,0.4,1,1v3h-24v-3C2.7,5.3,3.1,4.9,3.7,4.9z M25.7,26.9h-22
		c-0.6,0-1-0.4-1-1v-15h24v15C26.7,26.5,26.3,26.9,25.7,26.9z"/>
	<path class="st0" d="M19.3,13.6c-1-1-2.7-1-3.6,0L9,20.3c-0.2,0.2-0.3,0.4-0.3,0.7v2.9c0,0.6,0.4,1,1,1h2.9c0.3,0,0.5-0.1,0.7-0.3
		l6.7-6.7c1-1,1-2.6,0-3.6L19.3,13.6z M18.5,16.5l-6.3,6.4h-1.5v-1.4l6.4-6.4c0.2-0.2,0.6-0.2,0.8,0l0.6,0.6
		C18.8,15.9,18.8,16.3,18.5,16.5z"/>
</g>
</svg>
