<?xml version="1.0" encoding="utf-8"?>
<!-- Generator: Adobe Illustrator 24.2.1, SVG Export Plug-In . SVG Version: 6.00 Build 0)  -->
<svg version="1.1" id="Layer_1" xmlns="http://www.w3.org/2000/svg" xmlns:xlink="http://www.w3.org/1999/xlink" x="0px" y="0px"
	 viewBox="0 0 22.5 21.8" style="enable-background:new 0 0 22.5 21.8;" xml:space="preserve">
<style type="text/css">
	.st0{fill:#FFFFFF;}
</style>
<path class="st0" d="M20,10.9c0.5-0.5,0.8-1.2,0.8-1.9c0-0.7-0.3-1.4-0.8-1.9l-4.4-4.4c-0.5-0.5-1.2-0.8-1.9-0.8
	c-0.7,0-1.4,0.3-1.9,0.8l-9.2,9.2c-1,1-1,2.8,0,3.8l3.9,3.9c0.2,0.2,0.4,0.3,0.7,0.3h13.6V18h-7.9L20,10.9z M7.5,18l-3.6-3.6
	c-0.3-0.3-0.3-0.8,0-1.1L8.2,9l5.5,5.5L10.1,18H7.5z"/>
</svg>
