<?xml version="1.0" encoding="utf-8"?>
<!-- Generator: Adobe Illustrator 24.2.1, SVG Export Plug-In . SVG Version: 6.00 Build 0)  -->
<svg version="1.1" id="Layer_1" xmlns="http://www.w3.org/2000/svg" xmlns:xlink="http://www.w3.org/1999/xlink" x="0px" y="0px"
	 viewBox="0 0 60.1 58.1" style="enable-background:new 0 0 60.1 58.1;" xml:space="preserve">
<style type="text/css">
	.st0{fill:#FFFFFF;}
</style>
<g>
	<path class="st0" d="M50.8,1.4h-33c-4.6,0-8.4,4.1-8.4,9.2V13H7.3c-0.9,0-1.7,0.5-2,1.4c-0.6,1.8,0.5,3.4,2,3.4h2.2v8.7l-2.2,0
		c-0.9,0-1.7,0.5-2,1.4c-0.6,1.8,0.5,3.4,2,3.4h2.2v9.7H7.3c-0.9,0-1.7,0.5-2,1.4c-0.6,1.8,0.5,3.4,2,3.4h2.2v1.4
		c0,5.1,3.7,9.2,8.4,9.2h33c2.3,0,4.2-2.1,4.2-4.6V6C55,3.4,53.1,1.4,50.8,1.4z M51.5,52.7H18c-2.3,0-4.2-2.1-4.2-4.6v-2.2H16
		c0.9,0,1.7-0.5,2-1.4c0.6-1.8-0.5-3.4-2-3.4h-2.2v-9.7H16c0.9,0,1.7-0.5,2-1.4c0.6-1.8-0.5-3.4-2-3.4h-2.2v-8.7H16
		c0.9,0,1.7-0.5,2-1.4c0.6-1.8-0.5-3.4-2-3.4h-2.2v-2.2c0-2.6,1.9-4.6,4.2-4.6h33.5V52.7z"/>
	<path class="st0" d="M23,45.3c1.6,0.7,3.1-0.6,3.1-2.2v-1.9c0-4.9,3.4-9.2,7.8-9.5c4.8-0.3,8.8,3.9,8.8,9.2V43c0,1,0.5,1.9,1.3,2.2
		c1.6,0.7,3.1-0.6,3.1-2.2V41c0-5.1-2.5-9.8-6.6-12.3c3.7-4.3,3-11.6-2.1-14.7c-2.6-1.6-5.7-1.5-8.3,0.1c-4.9,3.3-5.6,10.4-1.9,14.6
		c-4.1,2.5-6.6,7.2-6.6,12.3V43C21.7,44,22.2,44.9,23,45.3z M30.5,22.3c0-2.6,1.9-4.6,4.2-4.6c2.3,0,4.2,2.1,4.2,4.6
		s-1.9,4.6-4.2,4.6C32.4,26.9,30.5,24.9,30.5,22.3z"/>
</g>
</svg>
