<?xml version="1.0" encoding="utf-8"?>
<!-- Generator: Adobe Illustrator 24.2.1, SVG Export Plug-In . SVG Version: 6.00 Build 0)  -->
<svg version="1.1" id="Layer_1" xmlns="http://www.w3.org/2000/svg" xmlns:xlink="http://www.w3.org/1999/xlink" x="0px" y="0px"
	 viewBox="0 0 78.2 84.6" style="enable-background:new 0 0 78.2 84.6;" xml:space="preserve">
<g>
	<g>
		<g>
			<g>
				<g>
					<g>
						<g>
							<g>
								<path d="M27.5,72.3c-0.5,0-0.9-0.4-0.8-0.9V5.1c-0.1-0.5,0.3-0.9,0.8-0.9s0.9,0.4,0.8,0.9v66.3C28.4,71.9,28,72.3,27.5,72.3
									z"/>
							</g>
						</g>
					</g>
					<g>
						<g>
							<g>
								<path d="M51.1,81.2c-0.5,0-0.9-0.4-0.7-0.9V14c-0.2-0.5,0.2-0.9,0.7-0.9S52,13.5,52,14v66.3C52,80.8,51.6,81.2,51.1,81.2z"
									/>
							</g>
						</g>
					</g>
					<g>
						<g>
							<g>
								<path d="M50.9,82.7c-0.7,0-1.5-0.1-2.1-0.4L28,73.4c-0.4-0.2-0.9-0.2-1.4,0L7.2,81.7c-1.2,0.5-2.5,0.4-3.6-0.3
									c-1.1-0.7-1.7-1.9-1.7-3.1V18.4c0-1.3,0.7-2.6,1.9-3.3L25,3c1.4-0.8,3.1-0.9,4.5-0.3l20.6,8.8c0.5,0.2,1,0.2,1.5,0L71,3.3
									c1.2-0.5,2.5-0.4,3.6,0.3c1.1,0.7,1.7,1.9,1.7,3.1v63.1c0,1.5-0.9,2.9-2.3,3.5l-21,9C52.3,82.5,51.6,82.7,50.9,82.7z
									 M27.3,69.6c0.7,0,1.4,0.1,2.1,0.4l20.7,8.9c0.5,0.2,1,0.2,1.4,0l20.9-9l0,0c0.1,0,0.1-0.1,0.1-0.1V6.8c0,0,0-0.1-0.1-0.1
									c-0.1,0-0.1,0-0.1,0L53,15c-1.4,0.6-3,0.6-4.4,0L28.1,6.2C27.7,6,27.2,6,26.8,6.2L5.7,18.3c0,0-0.1,0.1-0.1,0.1v59.7
									c0,0,0,0.1,0.1,0.1c0.1,0,0.1,0,0.1,0L25.2,70C25.9,69.7,26.6,69.6,27.3,69.6z"/>
							</g>
						</g>
					</g>
				</g>
				<g>
					<g>
						<g>
							<path d="M13.1,34.6c-0.5,0-1-0.1-1.4-0.4c-0.8-0.5-1.3-1.4-1.3-2.4v-7.2c0-1,0.5-1.9,1.4-2.4l7.7-4.5c0.9-0.5,1.9-0.5,2.8,0
								c0.9,0.5,1.4,1.4,1.4,2.4v7.5c0,1-0.5,1.9-1.4,2.4l0,0l-7.7,4.2C14,34.5,13.5,34.6,13.1,34.6z M20.5,19.3
								c-0.1,0-0.3,0-0.5,0.1l-7.6,4.5c-0.3,0.2-0.5,0.5-0.5,0.8v7.2c0,0.5,0.3,0.7,0.5,0.8c0.1,0.1,0.5,0.2,0.9,0l7.6-4.2
								c0.3-0.2,0.5-0.5,0.5-0.8v-7.5c0-0.5-0.3-0.7-0.5-0.8C20.9,19.4,20.7,19.3,20.5,19.3z M21.4,29.3L21.4,29.3L21.4,29.3z"/>
						</g>
					</g>
				</g>
				<g>
					<g>
						<g>
							<path d="M43,68.6c-0.4,0-0.8-0.1-1.2-0.2l-7.3-3c-1.2-0.5-2-1.6-2-2.9v-5.4c0-1,0.5-2,1.4-2.6c0.9-0.6,2-0.7,2.9-0.4l7.3,2.8
								c1.2,0.5,2.1,1.7,2.1,3l-0.1,5.7c0,1.1-0.5,2-1.4,2.6C44.2,68.4,43.6,68.6,43,68.6z M35.4,55.6c-0.3,0-0.7,0.1-0.9,0.4
								c-0.3,0.3-0.4,0.7-0.4,1.1l0,5.3c0,0.6,0.3,1.1,0.9,1.3l7.2,3l0,0c0.4,0.2,0.9,0.1,1.3-0.1s0.6-0.7,0.6-1.1l0.1-5.7
								c0-0.6-0.4-1.1-0.9-1.3l-7.3-2.7C35.8,55.6,35.6,55.6,35.4,55.6z"/>
						</g>
					</g>
				</g>
				<g>
					<g>
						<g>
							<path d="M58.8,29.8c-1.3,0-2.7-0.9-3-2.5c0-0.2-0.1-0.4-0.1-0.6v-5.3c0-1.3,0.8-2.4,1.9-2.9l8.1-3.2c1.2-0.5,2.5-0.2,3.4,0.8
								c0.5,0.6,0.8,1.4,0.8,2.2l0,5.5c0,1.3-0.8,2.4-2,2.9l0,0l-8.1,2.9C59.5,29.8,59.1,29.8,58.8,29.8z M66.5,17
								c-0.2,0-0.3,0-0.5,0.1l-8,3.2c-0.5,0.2-0.8,0.7-0.8,1.2v5.3c0,0.4,0.2,0.8,0.5,1c0.3,0.2,0.8,0.3,1.1,0.2l8-2.9l0,0
								c0.5-0.2,0.8-0.7,0.8-1.2l0-5.5c0-0.3-0.1-0.7-0.4-0.9C67.2,17.2,66.9,17,66.5,17z"/>
						</g>
					</g>
				</g>
				<g>
					<g>
						<g>
							<path d="M11,45c-0.3,0-0.7-0.2-0.8-0.5c-0.2-0.5,0-1,0.4-1.2l12.2-5.9c0.5-0.2,1,0,1.2,0.4s0,1-0.4,1.2l-12.2,5.9
								C11.3,45,11.2,45,11,45z"/>
						</g>
					</g>
				</g>
				<g>
					<g>
						<g>
							<path d="M11,54c-0.3,0-0.7-0.2-0.8-0.5c-0.2-0.5,0-1,0.4-1.2l12.2-5.9c0.5-0.2,1,0,1.2,0.4s0,1-0.4,1.2l-12.2,5.9
								C11.3,53.9,11.2,54,11,54z"/>
						</g>
					</g>
				</g>
				<g>
					<g>
						<g>
							<path d="M11,62.9c-0.3,0-0.7-0.2-0.8-0.5c-0.2-0.5,0-1,0.4-1.2l12.2-5.9c0.5-0.2,1,0,1.2,0.4s0,1-0.4,1.2l-12.2,5.9
								C11.3,62.8,11.2,62.9,11,62.9z"/>
						</g>
					</g>
				</g>
				<g>
					<g>
						<g>
							<path d="M45.2,50.2c-0.1,0-0.2,0-0.3,0l-12.1-4.1c-0.5-0.2-0.7-0.7-0.6-1.1c0.2-0.5,0.7-0.7,1.1-0.6l12.1,4.1
								c0.5,0.2,0.7,0.7,0.6,1.1C45.9,50,45.6,50.2,45.2,50.2z"/>
						</g>
					</g>
				</g>
				<g>
					<g>
						<g>
							<path d="M45.2,41.9c-0.1,0-0.2,0-0.3,0l-12.1-4.1c-0.5-0.2-0.7-0.7-0.6-1.1c0.2-0.5,0.7-0.7,1.1-0.6l12.1,4.1
								c0.5,0.2,0.7,0.7,0.6,1.1C45.9,41.7,45.6,41.9,45.2,41.9z"/>
						</g>
					</g>
				</g>
				<g>
					<g>
						<g>
							<path d="M45.2,32.2c-0.1,0-0.2,0-0.3,0l-12.1-4.1c-0.5-0.2-0.7-0.7-0.6-1.1c0.2-0.5,0.7-0.7,1.1-0.6l12.1,4.1
								c0.5,0.2,0.7,0.7,0.6,1.1C45.9,32,45.6,32.2,45.2,32.2z"/>
						</g>
					</g>
				</g>
				<g>
					<g>
						<g>
							<path d="M45.2,23.8c-0.1,0-0.2,0-0.3,0l-12.1-4.1c-0.5-0.2-0.7-0.7-0.6-1.1c0.2-0.5,0.7-0.7,1.1-0.6l12.1,4.1
								c0.5,0.2,0.7,0.7,0.6,1.1C45.9,23.6,45.6,23.8,45.2,23.8z"/>
						</g>
					</g>
				</g>
				<g>
					<g>
						<g>
							<path d="M56.4,38.4c-0.4,0-0.7-0.2-0.9-0.6c-0.2-0.5,0.1-1,0.6-1.1l12.4-4.1c0.5-0.2,1,0.1,1.1,0.6c0.2,0.5-0.1,1-0.6,1.1
								l-12.4,4.1C56.6,38.4,56.5,38.4,56.4,38.4z"/>
						</g>
					</g>
				</g>
				<g>
					<g>
						<g>
							<path d="M56.4,46.7c-0.4,0-0.7-0.2-0.9-0.6c-0.2-0.5,0.1-1,0.6-1.1l12.4-4.1c0.5-0.2,1,0.1,1.1,0.6c0.2,0.5-0.1,1-0.6,1.1
								l-12.4,4.1C56.6,46.7,56.5,46.7,56.4,46.7z"/>
						</g>
					</g>
				</g>
				<g>
					<g>
						<g>
							<path d="M56.4,56c-0.4,0-0.7-0.2-0.9-0.6c-0.2-0.5,0.1-1,0.6-1.1l12.4-4.1c0.5-0.2,1,0.1,1.1,0.6c0.2,0.5-0.1,1-0.6,1.1
								l-12.4,4.1C56.6,56,56.5,56,56.4,56z"/>
						</g>
					</g>
				</g>
				<g>
					<g>
						<g>
							<path d="M56.4,65.3c-0.4,0-0.7-0.2-0.9-0.6c-0.2-0.5,0.1-1,0.6-1.1l12.4-4.1c0.5-0.2,1,0.1,1.1,0.6s-0.1,1-0.6,1.1l-12.4,4.1
								C56.5,65.3,56.4,65.3,56.4,65.3z"/>
						</g>
					</g>
				</g>
			</g>
		</g>
	</g>
</g>
</svg>
