<?xml version="1.0" encoding="utf-8"?>
<!-- Generator: Adobe Illustrator 24.2.1, SVG Export Plug-In . SVG Version: 6.00 Build 0)  -->
<svg version="1.1" id="Layer_1" xmlns="http://www.w3.org/2000/svg" xmlns:xlink="http://www.w3.org/1999/xlink" x="0px" y="0px"
	 viewBox="0 0 23.3 17.4" style="enable-background:new 0 0 23.3 17.4;" xml:space="preserve">
<style type="text/css">
	.st0{fill:#FFFFFF;}
</style>
<path class="st0" d="M22,7.8H5.7c-0.5,0-0.7-0.6-0.4-1l4.8-4.8c0.2-0.2,0.2-0.6,0-0.8L9.3,0.5c-0.2-0.2-0.6-0.2-0.8,0L0.7,8.2
	C0.5,8.4,0.5,8.8,0.7,9l7.8,7.9c0.2,0.2,0.6,0.2,0.8,0l0.9-0.9c0.2-0.2,0.2-0.6,0-0.8l-4.5-4.5c-0.3-0.4-0.1-0.9,0.4-0.9H22
	c0.6,0,1-0.4,1-1S22.6,7.8,22,7.8z"/>
</svg>
