<?xml version="1.0" encoding="utf-8"?>
<!-- Generator: Adobe Illustrator 24.2.1, SVG Export Plug-In . SVG Version: 6.00 Build 0)  -->
<svg version="1.1" id="Layer_1" xmlns="http://www.w3.org/2000/svg" xmlns:xlink="http://www.w3.org/1999/xlink" x="0px" y="0px"
	 viewBox="0 0 40.1 38.8" style="enable-background:new 0 0 40.1 38.8;" xml:space="preserve">
<style type="text/css">
	.st0{fill:#57F676;}
	.st1{fill-rule:evenodd;clip-rule:evenodd;fill:#FFFFFF;}
</style>
<g id="XMLID_440_">
	<path id="XMLID_1108_" class="st0" d="M20.1,37.3L20.1,37.3c-9.9,0-18-8-18-18v0c0-9.9,8-18,18-18l0,0c9.9,0,18,8,18,18v0
		C38,29.3,30,37.3,20.1,37.3z"/>
	<g id="XMLID_441_">
		<path id="XMLID_443_" class="st1" d="M29.9,18.9c-0.1-5.2-4.4-9.4-9.7-9.4c-5.2,0-9.4,4.1-9.7,9.2c0,0.1,0,0.3,0,0.4
			c0,1.8,0.5,3.5,1.4,5l-1.7,5.1l5.4-1.7c1.4,0.8,3,1.2,4.7,1.2c5.3,0,9.7-4.3,9.7-9.6C29.9,19.1,29.9,19,29.9,18.9z M20.2,27.2
			c-1.7,0-3.2-0.5-4.5-1.3l-3.1,1l1-3c-1-1.3-1.5-3-1.5-4.7c0-0.3,0-0.5,0-0.8c0.4-4.1,3.9-7.3,8.1-7.3c4.3,0,7.8,3.3,8.1,7.4
			c0,0.2,0,0.4,0,0.6C28.4,23.6,24.7,27.2,20.2,27.2z"/>
		<path id="XMLID_442_" class="st1" d="M24.7,21.1c-0.2-0.1-1.4-0.7-1.6-0.8c-0.2-0.1-0.4-0.1-0.5,0.1c-0.2,0.2-0.6,0.8-0.8,0.9
			c-0.1,0.2-0.3,0.2-0.5,0.1c-0.2-0.1-1-0.4-1.9-1.2c-0.7-0.6-1.2-1.4-1.3-1.6c-0.1-0.2,0-0.4,0.1-0.5c0.1-0.1,0.2-0.3,0.4-0.4
			c0,0,0.1-0.1,0.1-0.1c0.1-0.1,0.1-0.2,0.1-0.3c0.1-0.2,0-0.3,0-0.4s-0.5-1.3-0.7-1.7c-0.2-0.5-0.4-0.4-0.5-0.4c-0.1,0-0.3,0-0.5,0
			c-0.2,0-0.4,0.1-0.6,0.3c-0.2,0.2-0.8,0.8-0.8,2c0,0.3,0,0.5,0.1,0.8c0.2,0.8,0.8,1.5,0.8,1.6c0.1,0.2,1.6,2.6,4,3.6
			c2.4,0.9,2.4,0.6,2.8,0.6c0.4,0,1.4-0.6,1.6-1.1c0.2-0.5,0.2-1,0.1-1.1C25.1,21.3,24.9,21.2,24.7,21.1z"/>
	</g>
</g>
</svg>
