<?xml version="1.0" encoding="utf-8"?>
<!-- Generator: Adobe Illustrator 24.2.1, SVG Export Plug-In . SVG Version: 6.00 Build 0)  -->
<svg version="1.1" id="Layer_1" xmlns="http://www.w3.org/2000/svg" xmlns:xlink="http://www.w3.org/1999/xlink" x="0px" y="0px"
	 viewBox="0 0 29.2 19.4" style="enable-background:new 0 0 29.2 19.4;" xml:space="preserve">
<style type="text/css">
	.st0{fill:#FFFFFF;}
</style>
<g>
	<g>
		<path class="st0" d="M23.5,5c-1.3-1.1-2.7-2-4-2.7c-1.7-0.8-3.4-1.2-5.1-1.2S11,1.5,9.3,2.4C8,3,6.6,3.9,5.3,5
			C3.1,6.9,1.7,8.8,1.6,8.9c-0.2,0.3-0.2,0.8,0,1.1c0.1,0.1,1.4,2,3.7,3.8c1.3,1.1,2.7,2,4,2.7c1.7,0.8,3.4,1.2,5.1,1.2
			s3.4-0.4,5.1-1.2c1.3-0.6,2.7-1.5,4-2.7c2.2-1.9,3.6-3.8,3.7-3.8c0.2-0.3,0.2-0.8,0-1.1C27.2,8.8,25.8,6.9,23.5,5z M14.4,15.8
			c-5.1,0-9.5-4.8-10.8-6.4C4.9,7.8,9.4,3,14.4,3s9.5,4.8,10.8,6.4C23.9,11.1,19.5,15.8,14.4,15.8z"/>
		<path class="st0" d="M14.4,4.7c-2.6,0-4.7,2.1-4.7,4.7s2.1,4.7,4.7,4.7s4.7-2.1,4.7-4.7S17,4.7,14.4,4.7z M14.4,12.3
			c-1.6,0-2.9-1.3-2.9-2.9s1.3-2.9,2.9-2.9s2.9,1.3,2.9,2.9S16,12.3,14.4,12.3z"/>
	</g>
</g>
</svg>
