<?xml version="1.0" encoding="utf-8"?>
<!-- Generator: Adobe Illustrator 24.2.1, SVG Export Plug-In . SVG Version: 6.00 Build 0)  -->
<svg version="1.1" id="Layer_1" xmlns="http://www.w3.org/2000/svg" xmlns:xlink="http://www.w3.org/1999/xlink" x="0px" y="0px"
	 viewBox="0 0 114.5 24.8" style="enable-background:new 0 0 114.5 24.8;" xml:space="preserve">
<style type="text/css">
	.st0{fill:#FFFFFF;}
</style>
<g>
	<g>
		<path class="st0" d="M23.7,22h-4.2V11.2c0-0.1,0-0.3,0-0.5l-4.3,8.3c-0.2,0.3-0.4,0.6-0.7,0.8c-0.3,0.2-0.6,0.3-1,0.3h-0.6
			c-0.4,0-0.7-0.1-1-0.3c-0.3-0.2-0.5-0.4-0.7-0.8l-4.3-8.4c0,0.2,0,0.3,0,0.5V22H2.6V3.2h3.5c0.2,0,0.4,0,0.5,0
			c0.2,0,0.3,0,0.4,0.1c0.1,0.1,0.3,0.1,0.4,0.3C7.5,3.6,7.6,3.8,7.7,4l4.7,9.3c0.2,0.3,0.3,0.7,0.5,1c0.1,0.2,0.1,0.3,0.2,0.5
			c0.1-0.2,0.1-0.3,0.2-0.5c0.2-0.4,0.3-0.7,0.5-1L18.5,4c0.1-0.2,0.2-0.3,0.3-0.4c0.1-0.1,0.2-0.2,0.4-0.3c0.1-0.1,0.3-0.1,0.4-0.1
			c0.1,0,0.3,0,0.5,0h3.5V22z M19.9,21.5h3.2V3.7h-3c-0.2,0-0.3,0-0.5,0c-0.1,0-0.2,0-0.3,0.1c-0.1,0-0.1,0.1-0.2,0.1
			C19.1,4,19.1,4.1,19,4.2l-4.7,9.2c-0.2,0.3-0.3,0.7-0.5,1c-0.2,0.3-0.3,0.7-0.4,1.1l-0.2,0.6l-0.2-0.6c-0.1-0.4-0.3-0.7-0.4-1
			c-0.2-0.3-0.3-0.7-0.5-1L7.3,4.2C7.2,4.1,7.1,4,7.1,3.9C7,3.8,6.9,3.8,6.8,3.7c-0.1,0-0.2-0.1-0.3-0.1c-0.1,0-0.3,0-0.5,0h-3v17.8
			h3.2V11.2c0-0.2,0-0.5,0-0.8c0-0.3,0-0.6-0.1-0.9L6.1,8.3l5.4,10.5c0.1,0.3,0.3,0.4,0.5,0.6c0.2,0.1,0.5,0.2,0.7,0.2h0.6
			c0.3,0,0.5-0.1,0.7-0.2c0.2-0.1,0.4-0.3,0.5-0.6l5.5-10.6L20,9.6c0,0.3-0.1,0.6-0.1,0.8c0,0.3,0,0.5,0,0.8V21.5z"/>
	</g>
	<g>
		<path class="st0" d="M30.5,22h-4.4V8.4h4.4V22z M26.7,21.5H30V8.9h-3.4V21.5z M28.3,7.6c-0.4,0-0.7-0.1-1-0.2
			c-0.3-0.1-0.6-0.3-0.8-0.5c-0.2-0.2-0.4-0.5-0.6-0.8c-0.1-0.3-0.2-0.6-0.2-1c0-0.4,0.1-0.7,0.2-1c0.1-0.3,0.3-0.6,0.6-0.8
			c0.2-0.2,0.5-0.4,0.8-0.5c0.6-0.3,1.4-0.3,2,0c0.3,0.1,0.6,0.3,0.8,0.5c0.2,0.2,0.4,0.5,0.6,0.8c0.1,0.3,0.2,0.6,0.2,1
			c0,0.3-0.1,0.7-0.2,1c-0.1,0.3-0.3,0.6-0.6,0.8c-0.2,0.2-0.5,0.4-0.8,0.5C29,7.6,28.7,7.6,28.3,7.6z M28.3,3.1
			c-0.3,0-0.5,0.1-0.8,0.2c-0.2,0.1-0.5,0.3-0.7,0.4c-0.2,0.2-0.3,0.4-0.4,0.6c-0.1,0.2-0.2,0.5-0.2,0.8c0,0.3,0.1,0.5,0.2,0.8
			c0.1,0.2,0.3,0.5,0.4,0.6C27,6.7,27.3,6.9,27.5,7c0.5,0.2,1.1,0.2,1.6,0c0.3-0.1,0.5-0.3,0.7-0.4c0.2-0.2,0.3-0.4,0.5-0.6
			c0.1-0.2,0.2-0.5,0.2-0.8c0-0.3-0.1-0.5-0.2-0.8c-0.1-0.2-0.3-0.5-0.5-0.7c-0.2-0.2-0.4-0.3-0.7-0.4C28.9,3.2,28.6,3.1,28.3,3.1z"
			/>
	</g>
	<g>
		<path class="st0" d="M36.8,22.2c-0.5,0-0.9,0-1.4-0.1c-0.4-0.1-0.9-0.2-1.3-0.3c-0.4-0.1-0.8-0.3-1.2-0.5
			c-0.4-0.2-0.7-0.4-0.9-0.7l-0.2-0.1l1-1.6c0.1-0.2,0.3-0.4,0.5-0.5c0.4-0.2,1-0.3,1.5,0l0.6,0.3c0.2,0.1,0.4,0.2,0.7,0.3
			c0.3,0.1,0.6,0.1,1,0.1c0.3,0,0.5,0,0.7-0.1c0.2-0.1,0.3-0.1,0.4-0.2c0.1-0.1,0.2-0.2,0.2-0.3c0-0.1,0.1-0.2,0.1-0.3
			c0-0.2-0.1-0.3-0.2-0.5c-0.2-0.1-0.4-0.3-0.6-0.4c-0.3-0.1-0.6-0.2-0.9-0.3c-0.4-0.1-0.7-0.2-1.1-0.4c-0.4-0.1-0.8-0.3-1.1-0.5
			c-0.4-0.2-0.7-0.5-1-0.8c-0.3-0.3-0.6-0.7-0.7-1.1c-0.2-0.4-0.3-1-0.3-1.6c0-0.6,0.1-1.1,0.3-1.7c0.2-0.5,0.6-1,1-1.4
			c0.5-0.4,1-0.7,1.7-0.9c0.7-0.2,1.5-0.3,2.3-0.3c0.5,0,1,0,1.4,0.1c0.5,0.1,0.9,0.2,1.3,0.4c0.4,0.2,0.8,0.3,1.1,0.6
			c0.3,0.2,0.6,0.5,0.9,0.7l0.1,0.1l-1,1.5c-0.1,0.2-0.3,0.3-0.4,0.4c-0.3,0.2-0.8,0.2-1.2,0l-0.6-0.3c-0.2-0.1-0.4-0.2-0.7-0.2
			c-0.2-0.1-0.5-0.1-0.8-0.1c-0.4,0-0.8,0.1-1,0.2c-0.2,0.1-0.3,0.3-0.3,0.6c0,0.2,0.1,0.3,0.2,0.4c0.1,0.1,0.4,0.3,0.6,0.4
			c0.3,0.1,0.6,0.2,0.9,0.3c0.4,0.1,0.7,0.2,1.1,0.4c0.4,0.1,0.8,0.3,1.1,0.5c0.4,0.2,0.7,0.4,1,0.7c0.3,0.3,0.6,0.6,0.7,1
			c0.2,0.4,0.3,0.9,0.3,1.5c0,0.7-0.1,1.3-0.4,1.9c-0.2,0.6-0.6,1.1-1.1,1.5c-0.5,0.4-1.1,0.7-1.8,1C38.5,22,37.7,22.2,36.8,22.2z
			 M32.4,20.3c0.2,0.2,0.4,0.3,0.7,0.5c0.3,0.2,0.7,0.4,1.1,0.5c0.4,0.1,0.8,0.2,1.3,0.3c0.4,0.1,0.9,0.1,1.3,0.1
			c0.9,0,1.6-0.1,2.3-0.3c0.6-0.2,1.2-0.5,1.6-0.9c0.4-0.4,0.8-0.8,1-1.3c0.2-0.5,0.3-1.1,0.3-1.7c0-0.5-0.1-0.9-0.2-1.3
			c-0.2-0.3-0.4-0.6-0.6-0.9c-0.3-0.2-0.6-0.5-0.9-0.6c-0.4-0.2-0.7-0.3-1.1-0.5c-0.4-0.1-0.7-0.3-1.1-0.4c-0.4-0.1-0.7-0.2-1-0.4
			c-0.3-0.1-0.6-0.3-0.8-0.5c-0.2-0.2-0.3-0.5-0.3-0.8c0-0.4,0.2-0.8,0.5-1c0.3-0.2,0.7-0.3,1.3-0.3c0.4,0,0.7,0,1,0.1
			c0.3,0.1,0.5,0.2,0.7,0.3l0.6,0.3c0.3,0.1,0.6,0.1,0.8,0c0.1,0,0.2-0.1,0.2-0.3l0,0l0.8-1.2c-0.2-0.2-0.4-0.3-0.7-0.5
			c-0.3-0.2-0.6-0.4-1-0.5c-0.4-0.1-0.8-0.3-1.2-0.3c-0.4-0.1-0.9-0.1-1.3-0.1c-0.8,0-1.6,0.1-2.2,0.3c-0.6,0.2-1.1,0.5-1.5,0.8
			c-0.4,0.4-0.7,0.8-0.9,1.2c-0.2,0.5-0.3,1-0.3,1.5c0,0.6,0.1,1,0.2,1.4c0.2,0.4,0.4,0.7,0.6,1c0.3,0.3,0.6,0.5,0.9,0.7
			c0.4,0.2,0.7,0.3,1.1,0.5c0.4,0.1,0.7,0.2,1.1,0.4c0.4,0.1,0.7,0.2,1,0.3c0.3,0.1,0.6,0.3,0.8,0.5c0.2,0.2,0.3,0.5,0.3,0.8
			c0,0.2,0,0.4-0.1,0.5c-0.1,0.2-0.2,0.3-0.3,0.5c-0.1,0.1-0.3,0.2-0.6,0.3c-0.2,0.1-0.5,0.1-0.8,0.1c-0.5,0-0.8-0.1-1.1-0.2
			c-0.3-0.1-0.6-0.2-0.8-0.3l-0.6-0.3c-0.3-0.2-0.7-0.2-1,0c-0.1,0.1-0.2,0.2-0.3,0.3L32.4,20.3z"/>
	</g>
	<g>
		<path class="st0" d="M62.8,17c0.1,0,0.2,0,0.3,0.1c0.1,0,0.2,0.1,0.3,0.2L65,19c-0.7,1-1.7,1.7-2.8,2.2c-1.1,0.5-2.4,0.7-3.9,0.7
			c-1.4,0-2.6-0.2-3.7-0.7s-2-1.1-2.8-2s-1.4-1.8-1.8-3c-0.4-1.1-0.6-2.4-0.6-3.7c0-1.4,0.2-2.6,0.7-3.8c0.4-1.1,1.1-2.1,1.9-3
			c0.8-0.8,1.8-1.5,2.9-1.9s2.4-0.7,3.7-0.7c0.7,0,1.3,0.1,1.9,0.2c0.6,0.1,1.2,0.3,1.7,0.5c0.5,0.2,1,0.5,1.5,0.8
			c0.4,0.3,0.8,0.6,1.2,1l-1.4,1.9c-0.1,0.1-0.2,0.2-0.3,0.3C62.9,8,62.8,8,62.5,8c-0.2,0-0.3,0-0.4-0.1c-0.1-0.1-0.3-0.1-0.4-0.2
			s-0.3-0.2-0.5-0.3c-0.2-0.1-0.4-0.2-0.6-0.3C60.3,7,60,6.9,59.7,6.8c-0.3-0.1-0.7-0.1-1.2-0.1c-0.7,0-1.3,0.1-1.9,0.4
			c-0.6,0.3-1.1,0.6-1.5,1.1c-0.4,0.5-0.7,1.1-1,1.8c-0.2,0.7-0.3,1.5-0.3,2.5c0,0.9,0.1,1.8,0.4,2.5c0.3,0.7,0.6,1.3,1,1.8
			c0.4,0.5,1,0.9,1.5,1.1c0.6,0.3,1.2,0.4,1.9,0.4c0.4,0,0.7,0,1.1-0.1c0.3,0,0.6-0.1,0.9-0.2c0.3-0.1,0.5-0.2,0.8-0.4
			s0.5-0.3,0.7-0.6c0.1-0.1,0.2-0.2,0.3-0.2S62.6,17,62.8,17z"/>
	</g>
	<g>
		<path class="st0" d="M70.8,5.1c0,0.3-0.1,0.6-0.2,0.9c-0.1,0.3-0.3,0.5-0.5,0.7c-0.2,0.2-0.5,0.4-0.8,0.5
			c-0.3,0.1-0.6,0.2-0.9,0.2c-0.3,0-0.6-0.1-0.9-0.2c-0.3-0.1-0.5-0.3-0.7-0.5S66.4,6.3,66.3,6c-0.1-0.3-0.2-0.6-0.2-0.9
			c0-0.3,0.1-0.6,0.2-0.9c0.1-0.3,0.3-0.5,0.5-0.7C67,3.3,67.3,3.1,67.5,3c0.3-0.1,0.6-0.2,0.9-0.2c0.3,0,0.6,0.1,0.9,0.2
			c0.3,0.1,0.5,0.3,0.8,0.5c0.2,0.2,0.4,0.5,0.5,0.7C70.8,4.5,70.8,4.8,70.8,5.1z M70.4,8.7v13h-3.9v-13H70.4z"/>
	</g>
	<g>
		<path class="st0" d="M77.8,21.9c-0.6,0-1.2-0.1-1.6-0.3s-0.9-0.4-1.2-0.8c-0.3-0.3-0.6-0.7-0.7-1.2c-0.2-0.5-0.2-1-0.2-1.6v-6.7
			h-1.1c-0.2,0-0.4-0.1-0.5-0.2s-0.2-0.3-0.2-0.6V9.1l2.1-0.4L75,5.5c0.1-0.4,0.4-0.6,0.9-0.6h2v3.8h3.2v2.7h-3.2v6.5
			c0,0.3,0.1,0.6,0.2,0.7s0.4,0.3,0.6,0.3c0.1,0,0.3,0,0.4,0c0.1,0,0.2-0.1,0.2-0.1c0.1,0,0.1-0.1,0.2-0.1s0.1,0,0.2,0
			c0.1,0,0.2,0,0.3,0.1c0.1,0.1,0.1,0.1,0.2,0.3l1.2,1.8c-0.5,0.4-1.1,0.7-1.7,0.8C79.1,21.8,78.5,21.9,77.8,21.9z"/>
	</g>
	<g>
		<path class="st0" d="M82.5,10.5c0.8-0.7,1.7-1.2,2.6-1.5s2-0.5,3.1-0.5c0.8,0,1.5,0.1,2.1,0.4c0.6,0.3,1.2,0.6,1.6,1.1
			c0.4,0.5,0.8,1,1,1.6c0.2,0.6,0.4,1.3,0.4,2.1v8.1h-1.8c-0.4,0-0.6,0-0.8-0.2c-0.2-0.1-0.3-0.3-0.5-0.6l-0.3-0.7
			c-0.3,0.3-0.6,0.5-0.9,0.7c-0.3,0.2-0.6,0.4-0.9,0.5s-0.7,0.3-1,0.3c-0.4,0.1-0.8,0.1-1.2,0.1c-0.6,0-1.1-0.1-1.6-0.2
			c-0.5-0.2-0.9-0.4-1.2-0.7c-0.3-0.3-0.6-0.7-0.8-1.1c-0.2-0.4-0.3-1-0.3-1.5c0-0.5,0.1-0.9,0.4-1.4c0.2-0.5,0.6-0.9,1.2-1.3
			s1.4-0.7,2.3-1c1-0.3,2.2-0.4,3.7-0.5v-0.6c0-0.8-0.2-1.3-0.5-1.7c-0.3-0.3-0.8-0.5-1.3-0.5c-0.5,0-0.8,0-1.1,0.2
			s-0.6,0.2-0.8,0.3c-0.2,0.1-0.5,0.2-0.7,0.3c-0.2,0.1-0.5,0.2-0.8,0.2c-0.3,0-0.5-0.1-0.7-0.2s-0.3-0.3-0.5-0.5L82.5,10.5z
			 M89.5,16.4c-0.8,0-1.4,0.1-1.9,0.2s-0.9,0.2-1.2,0.4c-0.3,0.2-0.5,0.3-0.6,0.5s-0.2,0.4-0.2,0.6c0,0.4,0.1,0.8,0.4,0.9
			s0.6,0.3,1.1,0.3c0.5,0,0.9-0.1,1.3-0.3c0.4-0.2,0.8-0.5,1.1-0.9V16.4z"/>
	</g>
	<g>
		<path class="st0" d="M104,11.5c-0.1,0.2-0.2,0.3-0.3,0.3c-0.1,0.1-0.3,0.1-0.4,0.1c-0.2,0-0.4,0-0.6-0.1c-0.2-0.1-0.4-0.2-0.6-0.3
			s-0.5-0.2-0.7-0.3c-0.3-0.1-0.6-0.1-0.9-0.1c-0.5,0-0.9,0.1-1.1,0.3C99.1,11.7,99,12,99,12.3c0,0.2,0.1,0.4,0.3,0.6
			c0.2,0.2,0.4,0.3,0.7,0.4c0.3,0.1,0.6,0.2,1,0.3c0.4,0.1,0.7,0.2,1.1,0.4c0.4,0.1,0.7,0.3,1.1,0.5s0.7,0.4,1,0.7
			c0.3,0.3,0.5,0.6,0.7,1c0.2,0.4,0.3,0.8,0.3,1.4c0,0.6-0.1,1.2-0.4,1.8s-0.6,1-1,1.4c-0.5,0.4-1,0.7-1.7,0.9
			c-0.7,0.2-1.5,0.3-2.4,0.3c-0.4,0-0.9,0-1.3-0.1c-0.4-0.1-0.9-0.2-1.3-0.3c-0.4-0.1-0.8-0.3-1.1-0.5s-0.7-0.4-0.9-0.6l0.9-1.4
			c0.1-0.2,0.2-0.3,0.4-0.4c0.2-0.1,0.4-0.1,0.6-0.1c0.2,0,0.4,0.1,0.6,0.2c0.2,0.1,0.4,0.2,0.6,0.3c0.2,0.1,0.5,0.2,0.7,0.3
			c0.3,0.1,0.6,0.2,1.1,0.2c0.3,0,0.6,0,0.8-0.1c0.2-0.1,0.4-0.1,0.5-0.3c0.1-0.1,0.2-0.2,0.3-0.4c0.1-0.1,0.1-0.3,0.1-0.4
			c0-0.3-0.1-0.5-0.3-0.6c-0.2-0.2-0.4-0.3-0.7-0.4c-0.3-0.1-0.6-0.2-1-0.3c-0.4-0.1-0.7-0.2-1.1-0.4c-0.4-0.1-0.7-0.3-1.1-0.5
			c-0.4-0.2-0.7-0.4-1-0.7c-0.3-0.3-0.5-0.6-0.7-1.1c-0.2-0.4-0.3-0.9-0.3-1.5c0-0.6,0.1-1.1,0.3-1.6c0.2-0.5,0.5-0.9,1-1.3
			c0.4-0.4,1-0.7,1.6-0.9c0.6-0.2,1.4-0.3,2.3-0.3c0.5,0,0.9,0,1.4,0.1c0.4,0.1,0.9,0.2,1.2,0.4s0.7,0.3,1.1,0.5
			c0.3,0.2,0.6,0.4,0.8,0.7L104,11.5z"/>
	</g>
	<g>
		<path class="st0" d="M106.7,11.2c0-0.3,0.1-0.6,0.2-0.8c0.1-0.3,0.3-0.5,0.5-0.7c0.2-0.2,0.4-0.3,0.7-0.5c0.3-0.1,0.6-0.2,0.9-0.2
			c0.3,0,0.6,0.1,0.9,0.2c0.3,0.1,0.5,0.3,0.7,0.5c0.2,0.2,0.4,0.4,0.5,0.7c0.1,0.3,0.2,0.5,0.2,0.8s-0.1,0.6-0.2,0.8
			c-0.1,0.3-0.3,0.5-0.5,0.7c-0.2,0.2-0.4,0.3-0.7,0.5c-0.3,0.1-0.6,0.2-0.9,0.2c-0.3,0-0.6-0.1-0.9-0.2c-0.3-0.1-0.5-0.3-0.7-0.5
			c-0.2-0.2-0.4-0.4-0.5-0.7S106.7,11.5,106.7,11.2z M106.7,19.7c0-0.3,0.1-0.6,0.2-0.8c0.1-0.3,0.3-0.5,0.5-0.7
			c0.2-0.2,0.4-0.3,0.7-0.5c0.3-0.1,0.6-0.2,0.9-0.2c0.3,0,0.6,0.1,0.9,0.2c0.3,0.1,0.5,0.3,0.7,0.5c0.2,0.2,0.4,0.4,0.5,0.7
			c0.1,0.3,0.2,0.5,0.2,0.8c0,0.3-0.1,0.6-0.2,0.8c-0.1,0.3-0.3,0.5-0.5,0.7c-0.2,0.2-0.4,0.3-0.7,0.5c-0.3,0.1-0.6,0.2-0.9,0.2
			c-0.3,0-0.6-0.1-0.9-0.2c-0.3-0.1-0.5-0.3-0.7-0.5c-0.2-0.2-0.4-0.4-0.5-0.7S106.7,20,106.7,19.7z"/>
	</g>
</g>
</svg>
