<?xml version="1.0" encoding="utf-8"?>
<!-- Generator: Adobe Illustrator 24.2.1, SVG Export Plug-In . SVG Version: 6.00 Build 0)  -->
<svg version="1.1" id="Layer_1" xmlns="http://www.w3.org/2000/svg" xmlns:xlink="http://www.w3.org/1999/xlink" x="0px" y="0px"
	 viewBox="0 0 34.1 25.7" style="enable-background:new 0 0 34.1 25.7;" xml:space="preserve">
<style type="text/css">
	.st0{fill:#00818D;}
</style>
<g>
	<path class="st0" d="M31,6.3H9.3C8.6,6.3,8,5.8,8,5V3.6c0-0.7,0.6-1.3,1.3-1.3H31c0.7,0,1.3,0.6,1.3,1.3V5
		C32.3,5.8,31.7,6.3,31,6.3z"/>
	<circle class="st0" cx="3.9" cy="4.3" r="2.1"/>
	<path class="st0" d="M31,14.4H9.3c-0.7,0-1.3-0.6-1.3-1.3v-1.4c0-0.7,0.6-1.3,1.3-1.3H31c0.7,0,1.3,0.6,1.3,1.3v1.4
		C32.3,13.8,31.7,14.4,31,14.4z"/>
	<circle class="st0" cx="3.9" cy="12.4" r="2.1"/>
	<path class="st0" d="M31,23.4H9.3c-0.7,0-1.3-0.6-1.3-1.3v-1.4c0-0.7,0.6-1.3,1.3-1.3H31c0.7,0,1.3,0.6,1.3,1.3v1.4
		C32.3,22.8,31.7,23.4,31,23.4z"/>
	<circle class="st0" cx="3.9" cy="21.4" r="2.1"/>
</g>
</svg>
