<?xml version="1.0" encoding="utf-8"?>
<!-- Generator: Adobe Illustrator 24.2.1, SVG Export Plug-In . SVG Version: 6.00 Build 0)  -->
<svg version="1.1" id="Layer_1" xmlns="http://www.w3.org/2000/svg" xmlns:xlink="http://www.w3.org/1999/xlink" x="0px" y="0px"
	 viewBox="0 0 56.7 56.2" style="enable-background:new 0 0 56.7 56.2;" xml:space="preserve">
<style type="text/css">
	.st0{fill:#00818D;}
</style>
<g>
	<polygon class="st0" points="26.9,28.6 32.9,22.6 33.9,23.5 27.8,29.5 31.9,42.9 41,15.4 13.5,24.6 	"/>
	<path class="st0" d="M28.3,1.8C13.9,1.8,2.1,13.6,2.1,28.1s11.8,26.3,26.3,26.3s26.3-11.8,26.3-26.3S42.8,1.8,28.3,1.8z M42.7,14.6
		L32.5,45.3c-0.1,0.3-0.3,0.4-0.6,0.4c0,0,0,0,0,0c-0.3,0-0.5-0.2-0.6-0.5l-4.6-15.4l-15.4-4.6c-0.3-0.1-0.5-0.3-0.5-0.6
		c0-0.3,0.2-0.5,0.4-0.6l30.7-10.2c0.2-0.1,0.5,0,0.7,0.2C42.7,14.1,42.8,14.4,42.7,14.6z"/>
</g>
</svg>
