<?xml version="1.0" encoding="utf-8"?>
<!-- Generator: Adobe Illustrator 24.2.1, SVG Export Plug-In . SVG Version: 6.00 Build 0)  -->
<svg version="1.1" id="Layer_1" xmlns="http://www.w3.org/2000/svg" xmlns:xlink="http://www.w3.org/1999/xlink" x="0px" y="0px"
	 viewBox="0 0 40.1 38.8" style="enable-background:new 0 0 40.1 38.8;" xml:space="preserve">
<g>
	<path d="M31.9,5.1h-3.7V3.3c0-0.8-0.7-1.5-1.5-1.5s-1.5,0.7-1.5,1.5v1.8H14.6V3.3c0-0.8-0.7-1.5-1.5-1.5c-0.9,0-1.5,0.7-1.5,1.5
		v1.8H7.8C4.6,5.1,2,7.7,2,10.9v19.9c0,3.2,2.6,5.8,5.8,5.8h24c3.2,0,5.8-2.6,5.8-5.8V10.9C37.7,7.7,35,5.1,31.9,5.1z M7.8,8.1h3.7
		V10c0,0.8,0.7,1.5,1.5,1.5c0.9,0,1.5-0.7,1.5-1.5V8.1h10.5V10c0,0.8,0.7,1.5,1.5,1.5c0.9,0,1.5-0.7,1.5-1.5V8.1h3.6
		c1.5,0,2.8,1.2,2.8,2.8v3.6H5v-3.6C5,9.4,6.3,8.1,7.8,8.1z M31.9,33.6h-24c-1.5,0-2.8-1.2-2.8-2.8V17.6h29.6v13.3
		C34.6,32.4,33.4,33.6,31.9,33.6z"/>
	<path d="M23,21.7l-4.2,4.5l-1.7-1.8c-0.6-0.6-1.5-0.6-2.1-0.1c-0.6,0.6-0.6,1.5-0.1,2.1l2.8,3c0.3,0.3,0.7,0.5,1.1,0.5
		s0.8-0.2,1.1-0.5l5.3-5.7c0.6-0.6,0.5-1.6-0.1-2.1C24.5,21,23.5,21.1,23,21.7z"/>
</g>
</svg>
