<?xml version="1.0" encoding="utf-8"?>
<!-- Generator: Adobe Illustrator 24.2.1, SVG Export Plug-In . SVG Version: 6.00 Build 0)  -->
<svg version="1.1" id="Layer_1" xmlns="http://www.w3.org/2000/svg" xmlns:xlink="http://www.w3.org/1999/xlink" x="0px" y="0px"
	 viewBox="0 0 29.5 30" style="enable-background:new 0 0 29.5 30;" xml:space="preserve">
<style type="text/css">
	.st0{fill:#00818D;}
</style>
<g>
	<path class="st0" d="M26.6,0.9H7.8C5.1,0.9,3,3,3,5.7v1.2H1.8c-0.5,0-1,0.3-1.2,0.7C0.3,8.5,0.9,9.4,1.8,9.4H3v4.5l-1.2,0
		c-0.5,0-1,0.3-1.2,0.7c-0.4,0.9,0.3,1.8,1.1,1.8H3v5H1.8c-0.5,0-1,0.3-1.2,0.7c-0.4,0.9,0.3,1.8,1.1,1.8H3v0.7
		c0,2.6,2.1,4.8,4.8,4.8h18.8c1.3,0,2.4-1.1,2.4-2.4V3.3C29,2,27.9,0.9,26.6,0.9z M27,27.3H7.9c-1.3,0-2.4-1.1-2.4-2.4v-1.1h1.2
		c0.5,0,1-0.3,1.2-0.7c0.4-0.9-0.3-1.8-1.1-1.8H5.5v-5h1.2c0.5,0,1-0.3,1.2-0.7c0.4-0.9-0.3-1.8-1.1-1.8H5.5V9.4h1.2
		c0.5,0,1-0.3,1.2-0.7c0.4-0.9-0.3-1.8-1.1-1.8H5.5V5.8c0-1.3,1.1-2.4,2.4-2.4H27V27.3z"/>
	<path class="st0" d="M10.7,23.5c0.9,0.4,1.8-0.3,1.8-1.1v-1c0-2.5,1.9-4.8,4.4-4.9c2.8-0.2,5,2,5,4.7v1.2c0,0.5,0.3,1,0.7,1.2
		c0.9,0.4,1.8-0.3,1.8-1.1v-1.1c0-2.6-1.4-5.1-3.7-6.3c2.1-2.2,1.7-6-1.2-7.6c-1.5-0.8-3.3-0.8-4.7,0.1c-2.8,1.7-3.2,5.3-1.1,7.5
		c-2.3,1.3-3.7,3.7-3.7,6.3v1.1C10,22.8,10.3,23.3,10.7,23.5z M15,11.7c0-1.3,1.1-2.4,2.4-2.4s2.4,1.1,2.4,2.4s-1.1,2.4-2.4,2.4
		S15,13,15,11.7z"/>
</g>
</svg>
