<?xml version="1.0" encoding="utf-8"?>
<!-- Generator: Adobe Illustrator 24.2.1, SVG Export Plug-In . SVG Version: 6.00 Build 0)  -->
<svg version="1.1" id="Layer_1" xmlns="http://www.w3.org/2000/svg" xmlns:xlink="http://www.w3.org/1999/xlink" x="0px" y="0px"
	 viewBox="0 0 210.7 24.8" style="enable-background:new 0 0 210.7 24.8;" xml:space="preserve">
<style type="text/css">
	.st0{fill:#FFFFFF;}
</style>
<g>
	<g>
		<path class="st0" d="M7,5.2v5.3h7.1v3.9H7v5.4h9.3v4H1.7V1.2h14.5v4H7z"/>
	</g>
	<g>
		<path class="st0" d="M33.6,7.7l-6.2,16.1h-4.4L16.8,7.7h4c0.3,0,0.6,0.1,0.9,0.2c0.2,0.2,0.4,0.4,0.5,0.6l2.2,7.2
			c0.2,0.6,0.4,1.2,0.5,1.7c0.1,0.6,0.3,1.1,0.4,1.7c0.2-1.1,0.5-2.2,0.9-3.4l2.3-7.2C28.6,8.3,28.8,8.1,29,8
			c0.2-0.2,0.5-0.2,0.8-0.2H33.6z"/>
	</g>
	<g>
		<path class="st0" d="M38.6,16.6c0.2,1.3,0.6,2.3,1.2,2.9c0.7,0.6,1.5,0.9,2.6,0.9c0.6,0,1-0.1,1.4-0.2s0.8-0.3,1.1-0.4
			c0.3-0.2,0.6-0.3,0.9-0.4c0.3-0.1,0.5-0.2,0.8-0.2c0.4,0,0.7,0.1,0.9,0.4l1.4,1.7c-0.5,0.6-1,1-1.6,1.4c-0.6,0.4-1.2,0.6-1.8,0.8
			c-0.6,0.2-1.2,0.3-1.8,0.4C43.1,24,42.5,24,42,24c-1.1,0-2.2-0.2-3.2-0.5c-1-0.4-1.8-0.9-2.6-1.6c-0.7-0.7-1.3-1.6-1.7-2.7
			c-0.4-1.1-0.6-2.3-0.6-3.7c0-1.1,0.2-2.1,0.5-3c0.4-1,0.9-1.8,1.6-2.5c0.7-0.7,1.5-1.3,2.5-1.7c1-0.4,2.1-0.6,3.3-0.6
			c1.1,0,2,0.2,2.9,0.5c0.9,0.3,1.6,0.8,2.3,1.4c0.6,0.6,1.1,1.4,1.5,2.3c0.4,0.9,0.5,1.9,0.5,3.1c0,0.4,0,0.7,0,0.9
			c0,0.2-0.1,0.4-0.2,0.5c-0.1,0.1-0.2,0.2-0.3,0.3c-0.1,0.1-0.3,0.1-0.5,0.1H38.6z M44.6,13.8c0-0.4,0-0.8-0.1-1.1s-0.3-0.7-0.5-1
			c-0.2-0.3-0.5-0.5-0.9-0.7s-0.8-0.3-1.3-0.3c-0.9,0-1.6,0.3-2.1,0.8s-0.9,1.3-1,2.3H44.6z"/>
	</g>
	<g>
		<path class="st0" d="M55.8,9.5c0.3-0.3,0.6-0.6,1-0.8c0.3-0.2,0.7-0.5,1.1-0.6c0.4-0.2,0.8-0.3,1.2-0.4c0.4-0.1,0.9-0.1,1.4-0.1
			c0.9,0,1.7,0.2,2.3,0.5c0.7,0.3,1.2,0.7,1.7,1.3c0.5,0.5,0.8,1.2,1.1,1.9c0.2,0.7,0.4,1.6,0.4,2.4v10.2h-4.8V13.6
			c0-0.8-0.2-1.4-0.5-1.8c-0.4-0.4-0.9-0.7-1.6-0.7c-0.5,0-1,0.1-1.5,0.3c-0.5,0.2-0.9,0.5-1.3,0.9v11.5h-4.8V7.7h3
			c0.6,0,1,0.3,1.2,0.8L55.8,9.5z"/>
	</g>
	<g>
		<path class="st0" d="M74.5,24c-0.8,0-1.4-0.1-2-0.3s-1.1-0.5-1.5-0.9c-0.4-0.4-0.7-0.9-0.9-1.5s-0.3-1.2-0.3-1.9V11h-1.4
			c-0.2,0-0.5-0.1-0.6-0.2c-0.2-0.2-0.3-0.4-0.3-0.7V8.2l2.6-0.5l0.9-3.9c0.1-0.5,0.5-0.7,1.1-0.7h2.5v4.7h4V11h-4v8
			c0,0.4,0.1,0.7,0.3,0.9c0.2,0.2,0.4,0.4,0.8,0.4c0.2,0,0.3,0,0.4-0.1s0.2-0.1,0.3-0.1c0.1,0,0.2-0.1,0.2-0.1
			c0.1,0,0.2-0.1,0.3-0.1c0.1,0,0.3,0,0.3,0.1c0.1,0.1,0.2,0.2,0.3,0.3l1.5,2.3c-0.6,0.5-1.3,0.8-2.1,1S75.3,24,74.5,24z"/>
	</g>
	<g>
		<path class="st0" d="M87.9,7.5c1.2,0,2.3,0.2,3.3,0.6c1,0.4,1.9,0.9,2.6,1.6s1.3,1.6,1.7,2.6c0.4,1,0.6,2.2,0.6,3.4
			c0,1.3-0.2,2.4-0.6,3.5c-0.4,1-1,1.9-1.7,2.6c-0.7,0.7-1.6,1.3-2.6,1.7S89.1,24,87.9,24c-1.2,0-2.3-0.2-3.4-0.6
			c-1-0.4-1.9-0.9-2.6-1.7c-0.7-0.7-1.3-1.6-1.7-2.6c-0.4-1-0.6-2.2-0.6-3.5c0-1.3,0.2-2.4,0.6-3.4c0.4-1,1-1.9,1.7-2.6
			s1.6-1.3,2.6-1.6C85.6,7.7,86.7,7.5,87.9,7.5z M87.9,20.5c1.1,0,1.9-0.4,2.4-1.2s0.8-2,0.8-3.6c0-1.6-0.3-2.8-0.8-3.5
			S89,11,87.9,11c-1.1,0-2,0.4-2.5,1.2s-0.8,2-0.8,3.5c0,1.6,0.3,2.8,0.8,3.6S86.8,20.5,87.9,20.5z"/>
	</g>
	<g>
		<path class="st0" d="M108.7,11.2c-0.1,0.2-0.3,0.3-0.4,0.4c-0.1,0.1-0.3,0.1-0.5,0.1c-0.2,0-0.5,0-0.7-0.1
			c-0.2-0.1-0.5-0.2-0.7-0.3c-0.3-0.1-0.6-0.2-0.9-0.3c-0.3-0.1-0.7-0.1-1.1-0.1c-0.6,0-1.1,0.1-1.4,0.3c-0.3,0.2-0.5,0.6-0.5,1
			c0,0.3,0.1,0.5,0.3,0.7c0.2,0.2,0.5,0.4,0.8,0.5c0.4,0.1,0.7,0.3,1.2,0.4c0.4,0.1,0.9,0.3,1.4,0.4s0.9,0.4,1.4,0.6
			c0.4,0.2,0.8,0.5,1.2,0.8c0.4,0.3,0.6,0.7,0.8,1.2c0.2,0.5,0.3,1,0.3,1.7c0,0.8-0.1,1.5-0.4,2.2s-0.7,1.2-1.3,1.7
			c-0.6,0.5-1.3,0.9-2.1,1.1c-0.8,0.3-1.8,0.4-2.9,0.4c-0.5,0-1.1-0.1-1.6-0.2c-0.5-0.1-1.1-0.2-1.6-0.4c-0.5-0.2-1-0.4-1.4-0.6
			c-0.4-0.2-0.8-0.5-1.1-0.8l1.1-1.8c0.1-0.2,0.3-0.4,0.5-0.5c0.2-0.1,0.4-0.2,0.7-0.2c0.3,0,0.5,0.1,0.8,0.2
			c0.2,0.1,0.5,0.3,0.7,0.4c0.3,0.1,0.6,0.3,0.9,0.4c0.3,0.1,0.8,0.2,1.3,0.2c0.4,0,0.7,0,0.9-0.1c0.3-0.1,0.5-0.2,0.6-0.3
			s0.3-0.3,0.3-0.4c0.1-0.2,0.1-0.3,0.1-0.5c0-0.3-0.1-0.6-0.3-0.8c-0.2-0.2-0.5-0.4-0.9-0.5c-0.4-0.1-0.8-0.3-1.2-0.4
			c-0.4-0.1-0.9-0.3-1.4-0.4s-0.9-0.4-1.4-0.6c-0.4-0.2-0.8-0.5-1.2-0.9c-0.4-0.4-0.6-0.8-0.9-1.3c-0.2-0.5-0.3-1.1-0.3-1.9
			c0-0.7,0.1-1.3,0.4-1.9c0.3-0.6,0.7-1.2,1.2-1.6c0.5-0.5,1.2-0.8,2-1.1c0.8-0.3,1.7-0.4,2.8-0.4c0.6,0,1.1,0.1,1.7,0.2
			c0.5,0.1,1,0.2,1.5,0.4c0.5,0.2,0.9,0.4,1.3,0.7s0.7,0.5,1,0.8L108.7,11.2z"/>
	</g>
	<g>
		<path class="st0" d="M125.2,24.3c-0.9,0-1.7-0.2-2.4-0.6c-0.7-0.4-1.4-1-1.9-1.7c-0.5-0.7-1-1.6-1.3-2.7c-0.3-1-0.5-2.2-0.5-3.5
			c0-1.2,0.2-2.4,0.5-3.4c0.3-1.1,0.8-2,1.4-2.7c0.6-0.8,1.4-1.4,2.3-1.8c0.9-0.4,1.9-0.7,2.9-0.7c0.9,0,1.6,0.1,2.2,0.4
			c0.4,0.2,0.8,0.4,1.2,0.7V0.4h5.3v23.7h-3.2c-0.7,0-1.2-0.3-1.4-1l-0.3-0.8c-0.2,0.2-0.5,0.4-0.7,0.6c-0.4,0.3-0.8,0.5-1.2,0.7
			c-0.4,0.2-0.9,0.4-1.4,0.5S125.8,24.3,125.2,24.3z M126.2,7.7c-1,0-1.9,0.2-2.7,0.6c-0.8,0.4-1.5,1-2.1,1.7
			c-0.6,0.7-1,1.6-1.4,2.6c-0.3,1-0.5,2.1-0.5,3.3c0,1.3,0.1,2.4,0.4,3.4c0.3,1,0.7,1.8,1.2,2.5c0.5,0.7,1.1,1.2,1.8,1.5
			c0.7,0.4,1.4,0.5,2.2,0.5c0.5,0,1-0.1,1.5-0.2c0.4-0.1,0.9-0.3,1.3-0.4c0.4-0.2,0.8-0.4,1.1-0.7c0.3-0.3,0.7-0.6,1-0.9l0.3-0.3
			l0.5,1.6c0.1,0.4,0.4,0.6,0.9,0.6h2.7V0.9h-4.3v8.4L129.7,9c-0.4-0.4-0.9-0.7-1.5-0.9C127.7,7.8,127,7.7,126.2,7.7z M126.9,20.7
			c-0.4,0-0.8-0.1-1.1-0.3c-0.3-0.2-0.7-0.5-0.9-0.9c-0.2-0.4-0.4-0.9-0.6-1.5c-0.1-0.6-0.2-1.3-0.2-2.2c0-0.9,0.1-1.7,0.2-2.3
			c0.2-0.6,0.4-1.2,0.7-1.6c0.3-0.4,0.7-0.7,1.1-0.9c0.8-0.4,1.9-0.4,2.7,0c0.5,0.2,0.9,0.5,1.3,0.9l0.1,0.1v7l-0.1,0.1
			c-0.2,0.3-0.4,0.5-0.7,0.7c-0.2,0.2-0.5,0.4-0.7,0.5c-0.3,0.1-0.5,0.2-0.8,0.3C127.6,20.6,127.2,20.7,126.9,20.7z M127.4,11.3
			c-0.4,0-0.8,0.1-1.1,0.2c-0.3,0.2-0.6,0.4-0.9,0.8c-0.3,0.4-0.5,0.8-0.6,1.4c-0.1,0.6-0.2,1.3-0.2,2.2c0,0.8,0.1,1.5,0.2,2.1
			c0.1,0.5,0.3,1,0.5,1.3c0.2,0.3,0.4,0.5,0.7,0.7c0.5,0.3,1.3,0.2,1.8,0.1c0.3-0.1,0.5-0.2,0.7-0.3c0.2-0.1,0.4-0.3,0.6-0.4
			c0.2-0.2,0.4-0.4,0.5-0.6v-6.6c-0.3-0.3-0.7-0.6-1-0.7C128.2,11.3,127.8,11.3,127.4,11.3z"/>
	</g>
	<g>
		<path class="st0" d="M145.2,24.3c-1.1,0-2.2-0.2-3.3-0.6c-1-0.4-1.9-0.9-2.7-1.7c-0.8-0.7-1.4-1.7-1.8-2.8
			c-0.4-1.1-0.7-2.4-0.7-3.8c0-1.1,0.2-2.2,0.6-3.1c0.4-1,0.9-1.9,1.6-2.6c0.7-0.7,1.6-1.3,2.6-1.8c1-0.4,2.1-0.7,3.4-0.7
			c1.1,0,2.1,0.2,3,0.5c0.9,0.3,1.7,0.8,2.4,1.5c0.7,0.7,1.2,1.5,1.5,2.4c0.4,0.9,0.6,2,0.6,3.2c0,0.4,0,0.7,0,0.9
			c0,0.3-0.1,0.5-0.2,0.6c-0.1,0.2-0.3,0.3-0.5,0.4c-0.2,0.1-0.4,0.1-0.6,0.1h-9c0.2,1.1,0.5,2,1.1,2.5c0.6,0.6,1.4,0.8,2.4,0.8
			c0.5,0,1-0.1,1.4-0.2c0.4-0.1,0.7-0.3,1-0.4c0.3-0.2,0.6-0.3,0.9-0.4c0.3-0.2,0.6-0.2,0.9-0.2c0.5,0,0.8,0.2,1.1,0.5l1.5,1.9
			l-0.1,0.2c-0.5,0.6-1.1,1.1-1.7,1.4c-0.6,0.4-1.2,0.7-1.8,0.9c-0.6,0.2-1.2,0.3-1.9,0.4C146.4,24.3,145.8,24.3,145.2,24.3z
			 M145,7.8c-1.2,0-2.3,0.2-3.2,0.6c-0.9,0.4-1.8,1-2.4,1.7c-0.7,0.7-1.2,1.5-1.5,2.4c-0.4,0.9-0.5,1.9-0.5,3c0,1.4,0.2,2.6,0.6,3.7
			c0.4,1,1,1.9,1.7,2.6c0.7,0.7,1.6,1.2,2.5,1.6c1.4,0.5,3,0.7,4.8,0.4c0.6-0.1,1.2-0.2,1.8-0.4c0.6-0.2,1.2-0.5,1.7-0.8
			c0.5-0.3,1-0.7,1.4-1.2l-1.3-1.6c-0.2-0.2-0.4-0.3-0.7-0.3c-0.3,0-0.5,0.1-0.7,0.2c-0.3,0.1-0.6,0.3-0.9,0.4
			c-0.3,0.2-0.7,0.3-1.1,0.5c-0.4,0.1-0.9,0.2-1.5,0.2c-1.1,0-2-0.3-2.7-1c-0.7-0.6-1.1-1.7-1.3-3.1l0-0.3h9.5c0.2,0,0.3,0,0.4-0.1
			c0.1,0,0.2-0.1,0.2-0.2c0.1-0.1,0.1-0.3,0.1-0.4c0-0.2,0-0.5,0-0.8c0-1.1-0.2-2.1-0.5-3c-0.3-0.9-0.8-1.6-1.4-2.2
			c-0.6-0.6-1.3-1.1-2.2-1.4C147,8,146.1,7.8,145,7.8z M148.2,14.1h-6.5l0-0.3c0.2-1,0.5-1.8,1.1-2.4c0.6-0.6,1.3-0.9,2.3-0.9
			c0.6,0,1,0.1,1.4,0.3c0.4,0.2,0.7,0.4,1,0.8c0.2,0.3,0.4,0.7,0.5,1.1c0.1,0.4,0.2,0.8,0.2,1.2V14.1z M142.3,13.6h5.4
			c0-0.3-0.1-0.5-0.1-0.8c-0.1-0.3-0.2-0.6-0.4-0.9c-0.2-0.3-0.5-0.5-0.8-0.6s-0.7-0.2-1.2-0.2c-0.8,0-1.5,0.2-2,0.7
			C142.7,12.2,142.4,12.9,142.3,13.6z"/>
	</g>
	<g>
		<path class="st0" d="M159.7,24.1h-5.3V0.4h5.3V24.1z M154.9,23.6h4.3V0.9h-4.3V23.6z"/>
	</g>
	<g>
		<path class="st0" d="M174.9,24.3c-0.9,0-1.7-0.2-2.4-0.6c-0.7-0.4-1.4-1-1.9-1.7c-0.5-0.7-1-1.6-1.3-2.7c-0.3-1-0.5-2.2-0.5-3.5
			c0-1.2,0.2-2.4,0.5-3.4c0.3-1.1,0.8-2,1.4-2.7c0.6-0.8,1.4-1.4,2.3-1.8c0.9-0.4,1.9-0.7,2.9-0.7c0.9,0,1.6,0.1,2.2,0.4
			c0.4,0.2,0.8,0.4,1.2,0.7V0.4h5.3v23.7h-3.2c-0.7,0-1.2-0.3-1.4-1l-0.3-0.8c-0.2,0.2-0.5,0.4-0.7,0.6c-0.4,0.3-0.8,0.5-1.2,0.7
			c-0.4,0.2-0.9,0.4-1.4,0.5S175.4,24.3,174.9,24.3z M175.9,7.7c-1,0-1.9,0.2-2.7,0.6c-0.8,0.4-1.5,1-2.1,1.7
			c-0.6,0.7-1,1.6-1.4,2.6c-0.3,1-0.5,2.1-0.5,3.3c0,1.3,0.1,2.4,0.4,3.4c0.3,1,0.7,1.8,1.2,2.5c0.5,0.7,1.1,1.2,1.8,1.5
			c0.7,0.4,1.4,0.5,2.2,0.5c0.5,0,1-0.1,1.5-0.2c0.4-0.1,0.9-0.3,1.3-0.4c0.4-0.2,0.8-0.4,1.1-0.7c0.3-0.3,0.7-0.6,1-0.9l0.3-0.3
			l0.5,1.6c0.1,0.4,0.4,0.6,0.9,0.6h2.7V0.9h-4.3v8.4L179.4,9c-0.4-0.4-0.9-0.7-1.5-0.9C177.4,7.8,176.7,7.7,175.9,7.7z M176.5,20.7
			c-0.4,0-0.8-0.1-1.1-0.3c-0.3-0.2-0.7-0.5-0.9-0.9c-0.2-0.4-0.4-0.9-0.6-1.5c-0.1-0.6-0.2-1.3-0.2-2.2c0-0.9,0.1-1.7,0.2-2.3
			c0.2-0.6,0.4-1.2,0.7-1.6c0.3-0.4,0.7-0.7,1.1-0.9c0.8-0.4,1.9-0.4,2.7,0c0.5,0.2,0.9,0.5,1.3,0.9l0.1,0.1v7l-0.1,0.1
			c-0.2,0.3-0.4,0.5-0.7,0.7c-0.2,0.2-0.5,0.4-0.7,0.5c-0.3,0.1-0.5,0.2-0.8,0.3C177.2,20.6,176.9,20.7,176.5,20.7z M177.1,11.3
			c-0.4,0-0.8,0.1-1.1,0.2c-0.3,0.2-0.6,0.4-0.9,0.8c-0.3,0.4-0.5,0.8-0.6,1.4c-0.1,0.6-0.2,1.3-0.2,2.2c0,0.8,0.1,1.5,0.2,2.1
			c0.1,0.5,0.3,1,0.5,1.3c0.2,0.3,0.4,0.5,0.7,0.7c0.5,0.3,1.3,0.2,1.8,0.1c0.3-0.1,0.5-0.2,0.7-0.3c0.2-0.1,0.4-0.3,0.6-0.4
			c0.2-0.2,0.4-0.4,0.5-0.6v-6.6c-0.3-0.3-0.7-0.6-1-0.7C177.9,11.3,177.5,11.3,177.1,11.3z"/>
	</g>
	<g>
		<path class="st0" d="M192.8,24.1h-5.3V7.5h5.3V24.1z M188,23.6h4.3V8H188V23.6z M190.8,6h-3.3l2.3-4.2c0.2-0.3,0.4-0.6,0.7-0.8
			c0.3-0.2,0.7-0.3,1.2-0.3h5.2l-4.4,4.5c-0.3,0.3-0.5,0.4-0.8,0.6C191.6,6,191.2,6,190.8,6z M188.4,5.5h2.5c0.3,0,0.6,0,0.8-0.1
			c0.2-0.1,0.4-0.2,0.6-0.5l3.6-3.6h-4c-0.4,0-0.7,0.1-0.9,0.2c-0.2,0.1-0.4,0.3-0.5,0.6L188.4,5.5z"/>
	</g>
	<g>
		<path class="st0" d="M199.6,24.3c-0.8,0-1.5-0.1-2.1-0.3c-0.6-0.2-1.2-0.5-1.6-0.9c-0.4-0.4-0.8-0.9-1-1.5c-0.2-0.6-0.4-1.3-0.4-2
			c0-0.6,0.2-1.2,0.5-1.9c0.3-0.6,0.8-1.2,1.6-1.7c0.7-0.5,1.7-0.9,3-1.3c1.2-0.3,2.6-0.5,4.4-0.6v-0.4c0-0.9-0.2-1.5-0.5-1.9
			c-0.3-0.4-0.8-0.5-1.5-0.5c-0.5,0-1,0.1-1.3,0.2c-0.3,0.1-0.7,0.3-0.9,0.4c-0.3,0.2-0.6,0.3-0.8,0.4c-0.6,0.3-1.5,0.3-2-0.1
			c-0.2-0.2-0.5-0.4-0.6-0.7l-1-1.7l0.2-0.1c1-0.9,2.1-1.5,3.3-2c1.2-0.4,2.5-0.6,3.9-0.6c1,0,1.9,0.2,2.7,0.5
			c0.8,0.3,1.5,0.8,2.1,1.4c0.6,0.6,1,1.3,1.3,2.1c0.3,0.8,0.4,1.7,0.4,2.6v10.3h-2.4c-0.5,0-0.9-0.1-1.1-0.2
			c-0.3-0.2-0.5-0.4-0.7-0.9l-0.2-0.6c-0.3,0.3-0.6,0.5-0.9,0.7c-0.4,0.3-0.8,0.5-1.2,0.7c-0.4,0.2-0.9,0.3-1.3,0.4
			C200.7,24.3,200.2,24.3,199.6,24.3z M202,10.9c0.8,0,1.4,0.2,1.8,0.7c0.4,0.5,0.6,1.2,0.6,2.2v0.9l-0.2,0c-1.8,0-3.3,0.2-4.5,0.5
			c-1.2,0.3-2.1,0.7-2.8,1.2c-0.7,0.5-1.2,1-1.4,1.5c-0.3,0.6-0.4,1.1-0.4,1.6c0,0.7,0.1,1.3,0.3,1.8c0.2,0.5,0.5,0.9,0.9,1.3
			c0.4,0.3,0.9,0.6,1.4,0.8c0.6,0.2,1.2,0.3,1.9,0.3c0.5,0,1,0,1.4-0.1c0.4-0.1,0.8-0.2,1.2-0.4c0.4-0.2,0.8-0.4,1.1-0.6
			c0.4-0.2,0.7-0.5,1.1-0.9l0.3-0.2l0.5,1.2c0.1,0.3,0.3,0.5,0.5,0.6c0.2,0.1,0.5,0.2,0.9,0.2h1.9v-9.8c0-0.9-0.1-1.7-0.4-2.5
			c-0.3-0.7-0.7-1.4-1.2-1.9c-0.5-0.5-1.2-1-1.9-1.3c-0.7-0.3-1.6-0.5-2.5-0.5c-1.3,0-2.6,0.2-3.7,0.6c-1.1,0.4-2.1,1-3,1.7l0.8,1.3
			c0.1,0.2,0.3,0.4,0.5,0.5c0.2,0.1,0.4,0.2,0.7,0.2c0.3,0,0.6-0.1,0.9-0.2c0.3-0.1,0.5-0.3,0.8-0.4c0.3-0.2,0.6-0.3,1-0.4
			C200.9,11,201.4,10.9,202,10.9z M201.2,21.2c-0.6,0-1.1-0.1-1.5-0.4c-0.4-0.3-0.5-0.7-0.5-1.4c0-0.3,0.1-0.6,0.2-0.9
			c0.2-0.3,0.5-0.5,0.9-0.7c0.4-0.2,0.9-0.4,1.5-0.5c0.6-0.1,1.4-0.2,2.4-0.3l0.3,0v2.6l-0.1,0.1c-0.5,0.5-1,0.9-1.5,1.1
			C202.4,21,201.8,21.2,201.2,21.2z M203.9,17.6c-0.8,0-1.5,0.1-2.1,0.2c-0.6,0.1-1.1,0.3-1.4,0.4c-0.3,0.2-0.5,0.3-0.6,0.5
			c-0.1,0.2-0.2,0.4-0.2,0.6c0,0.5,0.1,0.8,0.3,1c0.3,0.2,0.6,0.3,1.2,0.3c0.6,0,1.1-0.1,1.5-0.3c0.4-0.2,0.8-0.5,1.3-0.9V17.6z"/>
	</g>
</g>
</svg>
