<?xml version="1.0" encoding="utf-8"?>
<!-- Generator: Adobe Illustrator 24.2.1, SVG Export Plug-In . SVG Version: 6.00 Build 0)  -->
<svg version="1.1" id="Layer_1" xmlns="http://www.w3.org/2000/svg" xmlns:xlink="http://www.w3.org/1999/xlink" x="0px" y="0px"
	 viewBox="0 0 35.6 27.7" style="enable-background:new 0 0 35.6 27.7;" xml:space="preserve">
<style type="text/css">
	.st0{fill:#FFFFFF;}
</style>
<g>
	<g>
		<path class="st0" d="M29.4,2.5c-0.6-0.6-1.5-0.6-2.1,0c-0.6,0.6-0.6,1.5,0,2.1c5.2,5.2,5.2,13.6,0,18.7c-0.6,0.6-0.6,1.5,0,2.1
			c0.3,0.3,0.6,0.4,1,0.4c0.4,0,0.7-0.1,1-0.4C35.7,19.1,35.7,8.8,29.4,2.5z"/>
		<path class="st0" d="M24.6,7.4c-0.6-0.6-1.5-0.6-2.1,0c-0.6,0.6-0.6,1.5,0,2.1c2.5,2.5,2.5,6.6,0,9c-0.6,0.6-0.6,1.5,0,2.1
			c0.3,0.3,0.6,0.4,1,0.4c0.4,0,0.7-0.1,1-0.4C28.2,16.9,28.2,11,24.6,7.4z"/>
		<path class="st0" d="M8.6,4.6c0.6-0.6,0.6-1.5,0-2.1S7.2,2,6.6,2.5c-6.3,6.3-6.3,16.6,0,22.9c0.3,0.3,0.6,0.4,1,0.4s0.7-0.1,1-0.4
			c0.6-0.6,0.6-1.5,0-2.1C3.5,18.2,3.5,9.8,8.6,4.6z"/>
		<path class="st0" d="M13.5,9.4c0.6-0.6,0.6-1.5,0-2.1c-0.6-0.6-1.5-0.6-2.1,0c-3.6,3.6-3.6,9.6,0,13.2c0.3,0.3,0.6,0.4,1,0.4
			c0.4,0,0.7-0.1,1-0.4c0.6-0.6,0.6-1.5,0-2.1C11,16,11,11.9,13.5,9.4z"/>
	</g>
	<circle class="st0" cx="18" cy="14" r="2.5"/>
</g>
</svg>
