<?xml version="1.0" encoding="utf-8"?>
<!-- Generator: Adobe Illustrator 24.2.1, SVG Export Plug-In . SVG Version: 6.00 Build 0)  -->
<svg version="1.1" id="Layer_1" xmlns="http://www.w3.org/2000/svg" xmlns:xlink="http://www.w3.org/1999/xlink" x="0px" y="0px"
	 viewBox="0 0 181.1 115.9" style="enable-background:new 0 0 181.1 115.9;" xml:space="preserve">
<style type="text/css">
	.st0{opacity:0.42;}
	.st1{fill:#FFFFFF;}
</style>
<g class="st0">
	<g>
		<path class="st1" d="M112.6,113.3H26.3c-13.1,0-23.8-10.7-23.8-23.8V3.1h86.4c13.1,0,23.8,10.7,23.8,23.8V113.3z M3.5,4.1v85.4
			c0,12.6,10.2,22.8,22.8,22.8h85.4V26.9c0-12.6-10.2-22.8-22.8-22.8H3.5z"/>
	</g>
	<g>
		<path class="st1" d="M167,113.1h-51.5V61.6c0-6.5,5.3-11.7,11.7-11.7h51.5v51.5C178.8,107.9,173.5,113.1,167,113.1z M116.5,112.1
			H167c5.9,0,10.7-4.8,10.7-10.7V50.8h-50.5c-5.9,0-10.7,4.8-10.7,10.7V112.1z"/>
	</g>
</g>
</svg>
