<?xml version="1.0" encoding="utf-8"?>
<!-- Generator: Adobe Illustrator 24.2.1, SVG Export Plug-In . SVG Version: 6.00 Build 0)  -->
<svg version="1.1" id="Layer_1" xmlns="http://www.w3.org/2000/svg" xmlns:xlink="http://www.w3.org/1999/xlink" x="0px" y="0px"
	 viewBox="0 0 245.5 24.8" style="enable-background:new 0 0 245.5 24.8;" xml:space="preserve">
<style type="text/css">
	.st0{fill:#FFFFFF;}
</style>
<g>
	<g>
		<path class="st0" d="M12.9,23.6H7.4V6H1.3V1.5h17.6V6h-6.1V23.6z M7.9,23.1h4.5V5.5h6.1V2H1.8v3.5h6.1V23.1z"/>
	</g>
	<g>
		<path class="st0" d="M24.2,23.8c-1.2,0-2.3-0.2-3.3-0.6c-1-0.4-1.9-0.9-2.6-1.6c-0.7-0.7-1.3-1.6-1.7-2.6c-0.4-1-0.6-2.1-0.6-3.4
			c0-1.2,0.2-2.4,0.6-3.4c0.4-1,1-1.9,1.7-2.6C19.1,9,20,8.5,20.9,8.1c1-0.4,2.1-0.6,3.3-0.6c1.2,0,2.3,0.2,3.3,0.6
			c1,0.4,1.8,0.9,2.5,1.6c0.7,0.7,1.3,1.6,1.7,2.6c0.4,1,0.6,2.1,0.6,3.4c0,1.2-0.2,2.4-0.6,3.4c-0.4,1-0.9,1.9-1.7,2.6
			c-0.7,0.7-1.6,1.3-2.5,1.6C26.5,23.6,25.4,23.8,24.2,23.8z M24.2,8c-1.1,0-2.2,0.2-3.1,0.5c-0.9,0.4-1.7,0.9-2.4,1.5
			c-0.7,0.7-1.2,1.5-1.6,2.4c-0.4,0.9-0.6,2-0.6,3.2c0,1.2,0.2,2.3,0.6,3.2c0.4,0.9,0.9,1.8,1.6,2.4c0.7,0.7,1.5,1.2,2.4,1.5
			c0.9,0.4,2,0.5,3.1,0.5c1.1,0,2.2-0.2,3.1-0.5c0.9-0.4,1.7-0.9,2.4-1.5c0.7-0.7,1.2-1.5,1.5-2.4c0.4-0.9,0.6-2,0.6-3.2
			c0-1.2-0.2-2.2-0.6-3.2c-0.4-0.9-0.9-1.7-1.5-2.4c-0.7-0.7-1.5-1.2-2.4-1.5C26.4,8.2,25.4,8,24.2,8z M24.2,20.4
			c-1.2,0-2-0.4-2.6-1.2c-0.5-0.8-0.8-2-0.8-3.5c0-1.6,0.3-2.7,0.8-3.5c0.6-0.8,1.4-1.2,2.6-1.2c1.1,0,2,0.4,2.5,1.2
			c0.5,0.8,0.8,2,0.8,3.5s-0.3,2.7-0.8,3.5C26.2,20,25.4,20.4,24.2,20.4z M24.2,11.4c-1,0-1.7,0.3-2.2,1c-0.5,0.7-0.7,1.8-0.7,3.2
			c0,1.5,0.2,2.6,0.7,3.3c0.5,0.7,1.2,1,2.2,1c1,0,1.7-0.3,2.1-1c0.5-0.7,0.7-1.8,0.7-3.3c0-1.5-0.2-2.6-0.7-3.2
			C25.9,11.7,25.2,11.4,24.2,11.4z"/>
	</g>
	<g>
		<path class="st0" d="M39.1,23.8c-0.8,0-1.6-0.2-2.3-0.6c-0.7-0.4-1.3-0.9-1.8-1.6c-0.5-0.7-0.9-1.5-1.2-2.5
			c-0.3-1-0.4-2.1-0.4-3.4c0-1.2,0.2-2.3,0.5-3.3c0.3-1,0.8-1.9,1.4-2.6c0.6-0.7,1.3-1.3,2.2-1.7c0.8-0.4,1.8-0.6,2.8-0.6
			c0.8,0,1.5,0.1,2.1,0.4C42.7,8,43,8.2,43.4,8.4V1h5.1v22.6h-3.1c-0.7,0-1.1-0.3-1.4-0.9l-0.2-0.8c-0.2,0.2-0.5,0.4-0.7,0.6
			c-0.3,0.3-0.7,0.5-1.1,0.7c-0.4,0.2-0.8,0.4-1.3,0.5C40.2,23.8,39.7,23.8,39.1,23.8z M40.1,8c-0.9,0-1.8,0.2-2.6,0.6
			c-0.8,0.4-1.4,0.9-2,1.6c-0.6,0.7-1,1.5-1.3,2.5c-0.3,1-0.5,2-0.5,3.1c0,1.2,0.1,2.3,0.4,3.2c0.3,0.9,0.6,1.7,1.1,2.4
			c0.5,0.6,1,1.1,1.7,1.5s1.3,0.5,2.1,0.5c0.5,0,1-0.1,1.4-0.1c0.4-0.1,0.8-0.2,1.2-0.4c0.4-0.2,0.7-0.4,1-0.7
			c0.3-0.3,0.6-0.5,0.9-0.9l0.3-0.3l0.5,1.6c0.1,0.4,0.4,0.6,0.9,0.6H48V1.5h-4.1v8.1l-0.4-0.4c-0.4-0.4-0.9-0.7-1.4-0.9
			C41.5,8.1,40.9,8,40.1,8z M40.7,20.3c-0.4,0-0.8-0.1-1.1-0.2c-0.3-0.2-0.6-0.4-0.9-0.8c-0.2-0.4-0.4-0.8-0.5-1.4
			c-0.1-0.6-0.2-1.3-0.2-2.1c0-0.9,0.1-1.6,0.2-2.2c0.2-0.6,0.4-1.1,0.7-1.5c0.3-0.4,0.6-0.7,1-0.9c0.8-0.4,1.8-0.4,2.6,0
			c0.4,0.2,0.8,0.5,1.2,0.9l0.1,0.1v6.7l-0.1,0.1c-0.2,0.2-0.4,0.5-0.6,0.7c-0.2,0.2-0.4,0.4-0.7,0.5c-0.2,0.1-0.5,0.2-0.8,0.3
			C41.4,20.3,41.1,20.3,40.7,20.3z M41.2,11.3c-0.4,0-0.7,0.1-1.1,0.2c-0.3,0.1-0.6,0.4-0.8,0.7c-0.2,0.3-0.4,0.8-0.6,1.4
			c-0.1,0.6-0.2,1.3-0.2,2.1c0,0.8,0.1,1.5,0.2,2c0.1,0.5,0.3,0.9,0.5,1.3c0.2,0.3,0.4,0.5,0.7,0.6c0.5,0.3,1.2,0.2,1.7,0.1
			c0.3-0.1,0.5-0.1,0.7-0.3c0.2-0.1,0.4-0.2,0.6-0.4c0.2-0.2,0.3-0.3,0.5-0.5v-6.3c-0.3-0.3-0.6-0.5-1-0.7
			C42,11.4,41.6,11.3,41.2,11.3z"/>
	</g>
	<g>
		<path class="st0" d="M58.4,23.8c-1.2,0-2.3-0.2-3.3-0.6c-1-0.4-1.9-0.9-2.6-1.6c-0.7-0.7-1.3-1.6-1.7-2.6c-0.4-1-0.6-2.1-0.6-3.4
			c0-1.2,0.2-2.4,0.6-3.4c0.4-1,1-1.9,1.7-2.6c0.7-0.7,1.6-1.2,2.6-1.6c1-0.4,2.1-0.6,3.3-0.6c1.2,0,2.3,0.2,3.3,0.6
			c1,0.4,1.8,0.9,2.5,1.6c0.7,0.7,1.3,1.6,1.7,2.6c0.4,1,0.6,2.1,0.6,3.4c0,1.2-0.2,2.4-0.6,3.4c-0.4,1-0.9,1.9-1.7,2.6
			c-0.7,0.7-1.6,1.3-2.5,1.6C60.7,23.6,59.6,23.8,58.4,23.8z M58.4,8c-1.1,0-2.2,0.2-3.1,0.5c-0.9,0.4-1.7,0.9-2.4,1.5
			c-0.7,0.7-1.2,1.5-1.6,2.4c-0.4,0.9-0.6,2-0.6,3.2c0,1.2,0.2,2.3,0.6,3.2c0.4,0.9,0.9,1.8,1.6,2.4c0.7,0.7,1.5,1.2,2.4,1.5
			c0.9,0.4,2,0.5,3.1,0.5c1.1,0,2.2-0.2,3.1-0.5c0.9-0.4,1.7-0.9,2.4-1.5c0.7-0.7,1.2-1.5,1.5-2.4c0.4-0.9,0.6-2,0.6-3.2
			c0-1.2-0.2-2.2-0.6-3.2c-0.4-0.9-0.9-1.7-1.5-2.4c-0.7-0.7-1.5-1.2-2.4-1.5C60.5,8.2,59.5,8,58.4,8z M58.4,20.4
			c-1.2,0-2-0.4-2.6-1.2c-0.5-0.8-0.8-2-0.8-3.5s0.3-2.7,0.8-3.5c0.6-0.8,1.4-1.2,2.6-1.2c1.1,0,2,0.4,2.5,1.2
			c0.5,0.8,0.8,2,0.8,3.5s-0.3,2.7-0.8,3.5C60.4,20,59.5,20.4,58.4,20.4z M58.4,11.4c-1,0-1.7,0.3-2.2,1c-0.5,0.7-0.7,1.8-0.7,3.2
			c0,1.5,0.2,2.6,0.7,3.3c0.5,0.7,1.2,1,2.2,1c1,0,1.7-0.3,2.1-1c0.5-0.7,0.7-1.8,0.7-3.3c0-1.5-0.2-2.5-0.7-3.2
			C60,11.7,59.3,11.4,58.4,11.4z"/>
	</g>
	<g>
		<path class="st0" d="M72.9,23.8c-0.5,0-1.1-0.1-1.6-0.2c-0.5-0.1-1-0.2-1.5-0.4c-0.5-0.2-1-0.4-1.4-0.6c-0.4-0.2-0.8-0.5-1.1-0.8
			l-0.2-0.1l1.2-1.9c0.1-0.2,0.3-0.4,0.5-0.5c0.4-0.3,1.2-0.3,1.7,0l0.7,0.4c0.2,0.1,0.5,0.3,0.8,0.4c0.3,0.1,0.7,0.2,1.2,0.2
			c0.3,0,0.6,0,0.8-0.1c0.2-0.1,0.4-0.1,0.5-0.3c0.1-0.1,0.2-0.2,0.3-0.3c0.1-0.1,0.1-0.3,0.1-0.4c0-0.2-0.1-0.4-0.2-0.6
			c-0.2-0.2-0.4-0.3-0.7-0.5c-0.3-0.1-0.7-0.3-1.1-0.4c-0.4-0.1-0.9-0.3-1.3-0.4c-0.5-0.2-0.9-0.4-1.3-0.6c-0.5-0.2-0.9-0.5-1.2-0.9
			c-0.4-0.4-0.6-0.8-0.9-1.3c-0.2-0.5-0.3-1.2-0.3-1.9c0-0.7,0.1-1.3,0.4-2c0.3-0.6,0.7-1.2,1.2-1.6c0.5-0.5,1.2-0.8,2-1.1
			C72,7.6,72.9,7.5,74,7.5c0.6,0,1.1,0.1,1.6,0.2c0.5,0.1,1,0.2,1.5,0.4c0.5,0.2,0.9,0.4,1.3,0.7c0.4,0.3,0.7,0.5,1,0.8l0.1,0.1
			l-1.1,1.8c-0.1,0.2-0.3,0.4-0.5,0.5c-0.3,0.2-0.9,0.2-1.4,0l-0.7-0.3c-0.2-0.1-0.5-0.2-0.8-0.3c-0.3-0.1-0.6-0.1-1-0.1
			c-0.5,0-0.9,0.1-1.2,0.3c-0.2,0.2-0.4,0.4-0.4,0.7c0,0.2,0.1,0.4,0.2,0.5c0.2,0.2,0.4,0.3,0.7,0.4c0.3,0.1,0.7,0.3,1.1,0.4
			c0.4,0.1,0.9,0.3,1.3,0.4c0.4,0.2,0.9,0.3,1.3,0.6c0.4,0.2,0.8,0.5,1.2,0.8c0.4,0.3,0.6,0.7,0.9,1.2c0.2,0.5,0.3,1,0.3,1.7
			c0,0.8-0.1,1.5-0.4,2.2c-0.3,0.7-0.7,1.3-1.3,1.7c-0.6,0.5-1.3,0.9-2.1,1.1C74.9,23.7,74,23.8,72.9,23.8z M67.7,21.6
			c0.2,0.2,0.5,0.4,0.9,0.6c0.4,0.2,0.8,0.4,1.3,0.6c0.5,0.2,1,0.3,1.5,0.4c0.5,0.1,1,0.1,1.5,0.1c1,0,1.9-0.1,2.7-0.4
			c0.8-0.2,1.4-0.6,1.9-1c0.5-0.4,0.9-1,1.2-1.6c0.3-0.6,0.4-1.3,0.4-2c0-0.6-0.1-1.1-0.3-1.5c-0.2-0.4-0.4-0.8-0.7-1.1
			c-0.3-0.3-0.7-0.5-1.1-0.7c-0.4-0.2-0.8-0.4-1.3-0.5c-0.4-0.2-0.9-0.3-1.3-0.4c-0.4-0.1-0.8-0.3-1.2-0.4c-0.4-0.2-0.7-0.3-0.9-0.5
			c-0.3-0.2-0.4-0.5-0.4-0.9c0-0.5,0.2-0.9,0.6-1.1c0.4-0.3,0.9-0.4,1.5-0.4c0.4,0,0.8,0.1,1.1,0.2c0.3,0.1,0.6,0.2,0.9,0.3l0.7,0.3
			c0.4,0.2,0.8,0.2,1,0.1c0.1-0.1,0.2-0.2,0.3-0.3l0,0l0.9-1.4c-0.2-0.2-0.5-0.4-0.8-0.6c-0.4-0.2-0.8-0.4-1.2-0.6
			c-0.4-0.2-0.9-0.3-1.4-0.4C75,8.1,74.5,8,74,8c-1,0-1.8,0.1-2.6,0.4c-0.7,0.2-1.3,0.6-1.8,1c-0.5,0.4-0.8,0.9-1.1,1.5
			c-0.2,0.6-0.4,1.1-0.4,1.8c0,0.7,0.1,1.2,0.3,1.7c0.2,0.5,0.4,0.9,0.8,1.2c0.3,0.3,0.7,0.6,1.1,0.8c0.4,0.2,0.8,0.4,1.3,0.6
			c0.4,0.2,0.9,0.3,1.3,0.4c0.4,0.1,0.8,0.3,1.2,0.4c0.4,0.2,0.7,0.3,0.9,0.6c0.3,0.2,0.4,0.6,0.4,0.9c0,0.2,0,0.4-0.1,0.6
			c-0.1,0.2-0.2,0.4-0.4,0.5c-0.2,0.1-0.4,0.3-0.7,0.4c-0.3,0.1-0.6,0.1-1,0.1c-0.5,0-1-0.1-1.3-0.2c-0.3-0.1-0.6-0.3-0.9-0.4
			l-0.7-0.4c-0.4-0.2-0.9-0.2-1.2,0c-0.1,0.1-0.3,0.2-0.4,0.4L67.7,21.6z"/>
	</g>
	<g>
		<path class="st0" d="M93,1.2v22.1h-4.6V1.2H93z"/>
	</g>
	<g>
		<path class="st0" d="M103.2,7.8c1.2,0,2.2,0.2,3.2,0.5c1,0.4,1.8,0.9,2.5,1.6c0.7,0.7,1.2,1.5,1.6,2.5c0.4,1,0.6,2.1,0.6,3.3
			c0,1.2-0.2,2.3-0.6,3.3c-0.4,1-0.9,1.8-1.6,2.5c-0.7,0.7-1.5,1.2-2.5,1.6c-1,0.4-2,0.6-3.2,0.6c-1.2,0-2.2-0.2-3.2-0.6
			c-1-0.4-1.8-0.9-2.5-1.6c-0.7-0.7-1.2-1.5-1.6-2.5c-0.4-1-0.6-2.1-0.6-3.3c0-1.2,0.2-2.3,0.6-3.3c0.4-1,0.9-1.8,1.6-2.5
			c0.7-0.7,1.5-1.2,2.5-1.6C101,7.9,102,7.8,103.2,7.8z M103.2,20.2c1.1,0,1.8-0.4,2.3-1.1c0.5-0.7,0.7-1.9,0.7-3.4
			s-0.2-2.6-0.7-3.4c-0.5-0.7-1.3-1.1-2.3-1.1c-1.1,0-1.9,0.4-2.4,1.1c-0.5,0.7-0.8,1.9-0.8,3.4s0.3,2.6,0.8,3.4
			C101.3,19.8,102.1,20.2,103.2,20.2z"/>
	</g>
	<g>
		<path class="st0" d="M123.1,11.4c-0.1,0.2-0.2,0.3-0.4,0.4c-0.1,0.1-0.3,0.1-0.5,0.1c-0.2,0-0.4,0-0.7-0.1
			c-0.2-0.1-0.5-0.2-0.7-0.3s-0.5-0.2-0.8-0.3c-0.3-0.1-0.7-0.1-1.1-0.1c-0.6,0-1,0.1-1.3,0.3c-0.3,0.2-0.5,0.5-0.5,0.9
			c0,0.3,0.1,0.5,0.3,0.7c0.2,0.2,0.5,0.4,0.8,0.5c0.3,0.1,0.7,0.3,1.1,0.4c0.4,0.1,0.9,0.3,1.3,0.4s0.9,0.3,1.3,0.6
			c0.4,0.2,0.8,0.5,1.1,0.8c0.3,0.3,0.6,0.7,0.8,1.1c0.2,0.4,0.3,1,0.3,1.6c0,0.8-0.1,1.5-0.4,2.1c-0.3,0.6-0.7,1.2-1.2,1.7
			c-0.5,0.5-1.2,0.8-2,1.1c-0.8,0.3-1.7,0.4-2.8,0.4c-0.5,0-1,0-1.6-0.1c-0.5-0.1-1-0.2-1.5-0.4c-0.5-0.2-0.9-0.4-1.4-0.6
			c-0.4-0.2-0.8-0.5-1.1-0.7l1.1-1.7c0.1-0.2,0.3-0.4,0.5-0.5c0.2-0.1,0.4-0.2,0.7-0.2c0.3,0,0.5,0.1,0.7,0.2
			c0.2,0.1,0.4,0.2,0.7,0.4c0.2,0.1,0.5,0.3,0.9,0.4c0.3,0.1,0.7,0.2,1.2,0.2c0.4,0,0.7,0,0.9-0.1c0.2-0.1,0.4-0.2,0.6-0.3
			c0.1-0.1,0.3-0.3,0.3-0.4c0.1-0.2,0.1-0.3,0.1-0.5c0-0.3-0.1-0.6-0.3-0.8c-0.2-0.2-0.5-0.4-0.8-0.5c-0.3-0.1-0.7-0.3-1.1-0.4
			c-0.4-0.1-0.9-0.3-1.3-0.4s-0.9-0.3-1.3-0.6s-0.8-0.5-1.1-0.8c-0.3-0.3-0.6-0.8-0.8-1.2c-0.2-0.5-0.3-1.1-0.3-1.8
			c0-0.7,0.1-1.3,0.4-1.9c0.3-0.6,0.6-1.1,1.1-1.5c0.5-0.4,1.1-0.8,1.9-1.1c0.8-0.3,1.6-0.4,2.7-0.4c0.6,0,1.1,0,1.6,0.1
			c0.5,0.1,1,0.2,1.5,0.4c0.5,0.2,0.9,0.4,1.2,0.6c0.4,0.2,0.7,0.5,1,0.8L123.1,11.4z"/>
	</g>
	<g>
		<path class="st0" d="M138.9,5.6v5h6.8v3.7h-6.8v5.1h8.8v3.8h-13.9V1.8h13.9v3.8H138.9z"/>
	</g>
	<g>
		<path class="st0" d="M164.3,8l-5.9,15.3h-4.2L148.3,8h3.8c0.3,0,0.6,0.1,0.8,0.2c0.2,0.2,0.4,0.3,0.5,0.6l2.1,6.9
			c0.2,0.6,0.4,1.1,0.5,1.6c0.1,0.5,0.3,1.1,0.4,1.6c0.2-1.1,0.5-2.1,0.9-3.2l2.2-6.9c0.1-0.2,0.2-0.4,0.4-0.6
			c0.2-0.2,0.5-0.2,0.8-0.2H164.3z"/>
	</g>
	<g>
		<path class="st0" d="M169,16.5c0.1,1.3,0.5,2.2,1.2,2.8c0.6,0.6,1.4,0.9,2.4,0.9c0.5,0,1-0.1,1.4-0.2c0.4-0.1,0.7-0.3,1-0.4
			c0.3-0.2,0.6-0.3,0.8-0.4c0.3-0.1,0.5-0.2,0.8-0.2c0.4,0,0.6,0.1,0.8,0.4l1.3,1.6c-0.5,0.5-1,1-1.5,1.3c-0.5,0.3-1.1,0.6-1.7,0.8
			c-0.6,0.2-1.2,0.3-1.7,0.4c-0.6,0.1-1.1,0.1-1.6,0.1c-1.1,0-2.1-0.2-3-0.5c-0.9-0.3-1.8-0.9-2.5-1.6c-0.7-0.7-1.3-1.5-1.7-2.6
			c-0.4-1-0.6-2.2-0.6-3.6c0-1,0.2-2,0.5-2.9c0.3-0.9,0.9-1.7,1.5-2.4c0.7-0.7,1.4-1.2,2.4-1.6c0.9-0.4,2-0.6,3.2-0.6
			c1,0,1.9,0.2,2.8,0.5s1.6,0.8,2.2,1.4c0.6,0.6,1.1,1.3,1.4,2.2c0.3,0.9,0.5,1.9,0.5,3c0,0.3,0,0.6,0,0.8c0,0.2-0.1,0.4-0.2,0.5
			c-0.1,0.1-0.2,0.2-0.3,0.3c-0.1,0-0.3,0.1-0.5,0.1H169z M174.8,13.8c0-0.4,0-0.7-0.1-1.1c-0.1-0.3-0.2-0.7-0.5-0.9
			c-0.2-0.3-0.5-0.5-0.8-0.7c-0.3-0.2-0.8-0.3-1.3-0.3c-0.9,0-1.5,0.2-2,0.7c-0.5,0.5-0.8,1.2-1,2.1H174.8z"/>
	</g>
	<g>
		<path class="st0" d="M185.4,9.7c0.3-0.3,0.6-0.5,0.9-0.8c0.3-0.2,0.7-0.4,1-0.6c0.4-0.2,0.7-0.3,1.2-0.4c0.4-0.1,0.9-0.1,1.4-0.1
			c0.8,0,1.6,0.1,2.2,0.4c0.6,0.3,1.2,0.7,1.6,1.2c0.4,0.5,0.8,1.1,1,1.8s0.3,1.5,0.3,2.3v9.7h-4.6v-9.7c0-0.7-0.2-1.3-0.5-1.8
			c-0.3-0.4-0.9-0.6-1.5-0.6c-0.5,0-1,0.1-1.4,0.3c-0.4,0.2-0.9,0.5-1.3,0.9v10.9h-4.6V8h2.8c0.6,0,0.9,0.3,1.1,0.8L185.4,9.7z"/>
	</g>
	<g>
		<path class="st0" d="M203.3,23.6c-0.7,0-1.4-0.1-1.9-0.3s-1-0.5-1.4-0.9c-0.4-0.4-0.7-0.9-0.9-1.4c-0.2-0.6-0.3-1.2-0.3-1.8v-7.9
			h-1.3c-0.2,0-0.4-0.1-0.6-0.2c-0.2-0.2-0.3-0.4-0.3-0.7V8.5l2.4-0.5l0.9-3.7c0.1-0.5,0.5-0.7,1-0.7h2.4V8h3.8v3.1h-3.8v7.6
			c0,0.4,0.1,0.6,0.3,0.9s0.4,0.3,0.7,0.3c0.2,0,0.3,0,0.4-0.1c0.1,0,0.2-0.1,0.3-0.1c0.1,0,0.2-0.1,0.2-0.1s0.2-0.1,0.3-0.1
			c0.1,0,0.2,0,0.3,0.1c0.1,0.1,0.2,0.2,0.3,0.3l1.4,2.2c-0.6,0.4-1.3,0.8-2,1C204.9,23.4,204.1,23.6,203.3,23.6z"/>
	</g>
	<g>
		<path class="st0" d="M216.1,7.8c1.2,0,2.2,0.2,3.2,0.5c1,0.4,1.8,0.9,2.5,1.6c0.7,0.7,1.2,1.5,1.6,2.5c0.4,1,0.6,2.1,0.6,3.3
			c0,1.2-0.2,2.3-0.6,3.3c-0.4,1-0.9,1.8-1.6,2.5c-0.7,0.7-1.5,1.2-2.5,1.6c-1,0.4-2,0.6-3.2,0.6c-1.2,0-2.2-0.2-3.2-0.6
			c-1-0.4-1.8-0.9-2.5-1.6c-0.7-0.7-1.2-1.5-1.6-2.5c-0.4-1-0.6-2.1-0.6-3.3c0-1.2,0.2-2.3,0.6-3.3s0.9-1.8,1.6-2.5
			c0.7-0.7,1.5-1.2,2.5-1.6C213.9,7.9,214.9,7.8,216.1,7.8z M216.1,20.2c1.1,0,1.8-0.4,2.3-1.1s0.7-1.9,0.7-3.4s-0.2-2.6-0.7-3.4
			c-0.5-0.7-1.3-1.1-2.3-1.1c-1.1,0-1.9,0.4-2.4,1.1c-0.5,0.7-0.8,1.9-0.8,3.4s0.3,2.6,0.8,3.4C214.2,19.8,215,20.2,216.1,20.2z"/>
	</g>
	<g>
		<path class="st0" d="M235.9,11.4c-0.1,0.2-0.2,0.3-0.4,0.4c-0.1,0.1-0.3,0.1-0.5,0.1c-0.2,0-0.4,0-0.7-0.1
			c-0.2-0.1-0.5-0.2-0.7-0.3s-0.5-0.2-0.8-0.3c-0.3-0.1-0.7-0.1-1.1-0.1c-0.6,0-1,0.1-1.3,0.3c-0.3,0.2-0.5,0.5-0.5,0.9
			c0,0.3,0.1,0.5,0.3,0.7c0.2,0.2,0.5,0.4,0.8,0.5c0.3,0.1,0.7,0.3,1.1,0.4c0.4,0.1,0.9,0.3,1.3,0.4c0.4,0.2,0.9,0.3,1.3,0.6
			s0.8,0.5,1.1,0.8c0.3,0.3,0.6,0.7,0.8,1.1c0.2,0.4,0.3,1,0.3,1.6c0,0.8-0.1,1.5-0.4,2.1c-0.3,0.6-0.7,1.2-1.2,1.7
			c-0.5,0.5-1.2,0.8-2,1.1c-0.8,0.3-1.7,0.4-2.8,0.4c-0.5,0-1,0-1.6-0.1c-0.5-0.1-1-0.2-1.5-0.4c-0.5-0.2-0.9-0.4-1.4-0.6
			c-0.4-0.2-0.8-0.5-1.1-0.7l1.1-1.7c0.1-0.2,0.3-0.4,0.5-0.5c0.2-0.1,0.4-0.2,0.7-0.2c0.3,0,0.5,0.1,0.7,0.2
			c0.2,0.1,0.4,0.2,0.7,0.4c0.2,0.1,0.5,0.3,0.9,0.4c0.3,0.1,0.7,0.2,1.2,0.2c0.4,0,0.7,0,0.9-0.1c0.2-0.1,0.4-0.2,0.6-0.3
			c0.1-0.1,0.3-0.3,0.3-0.4c0.1-0.2,0.1-0.3,0.1-0.5c0-0.3-0.1-0.6-0.3-0.8c-0.2-0.2-0.5-0.4-0.8-0.5c-0.3-0.1-0.7-0.3-1.1-0.4
			c-0.4-0.1-0.9-0.3-1.3-0.4c-0.4-0.2-0.9-0.3-1.3-0.6c-0.4-0.2-0.8-0.5-1.1-0.8c-0.3-0.3-0.6-0.8-0.8-1.2c-0.2-0.5-0.3-1.1-0.3-1.8
			c0-0.7,0.1-1.3,0.4-1.9c0.3-0.6,0.6-1.1,1.1-1.5c0.5-0.4,1.1-0.8,1.9-1.1c0.8-0.3,1.6-0.4,2.7-0.4c0.6,0,1.1,0,1.6,0.1
			c0.5,0.1,1,0.2,1.5,0.4c0.5,0.2,0.9,0.4,1.2,0.6c0.4,0.2,0.7,0.5,1,0.8L235.9,11.4z"/>
	</g>
	<g>
		<path class="st0" d="M239.1,10.9c0-0.4,0.1-0.7,0.2-1c0.1-0.3,0.3-0.6,0.5-0.8c0.2-0.2,0.5-0.4,0.8-0.5c0.3-0.1,0.7-0.2,1-0.2
			c0.4,0,0.7,0.1,1,0.2c0.3,0.1,0.6,0.3,0.8,0.5s0.4,0.5,0.6,0.8c0.1,0.3,0.2,0.6,0.2,1c0,0.4-0.1,0.7-0.2,1
			c-0.1,0.3-0.3,0.6-0.6,0.8s-0.5,0.4-0.8,0.5c-0.3,0.1-0.7,0.2-1,0.2c-0.4,0-0.7-0.1-1-0.2c-0.3-0.1-0.6-0.3-0.8-0.5
			c-0.2-0.2-0.4-0.5-0.5-0.8C239.2,11.6,239.1,11.3,239.1,10.9z M239.1,21c0-0.4,0.1-0.7,0.2-1c0.1-0.3,0.3-0.6,0.5-0.8
			c0.2-0.2,0.5-0.4,0.8-0.5c0.3-0.1,0.7-0.2,1-0.2c0.4,0,0.7,0.1,1,0.2c0.3,0.1,0.6,0.3,0.8,0.5s0.4,0.5,0.6,0.8
			c0.1,0.3,0.2,0.6,0.2,1c0,0.4-0.1,0.7-0.2,1s-0.3,0.6-0.6,0.8c-0.2,0.2-0.5,0.4-0.8,0.5c-0.3,0.1-0.7,0.2-1,0.2
			c-0.4,0-0.7-0.1-1-0.2c-0.3-0.1-0.6-0.3-0.8-0.5c-0.2-0.2-0.4-0.5-0.5-0.8C239.2,21.7,239.1,21.4,239.1,21z"/>
	</g>
</g>
</svg>
