<?xml version="1.0" encoding="utf-8"?>
<!-- Generator: Adobe Illustrator 24.2.1, SVG Export Plug-In . SVG Version: 6.00 Build 0)  -->
<svg version="1.1" id="Layer_1" xmlns="http://www.w3.org/2000/svg" xmlns:xlink="http://www.w3.org/1999/xlink" x="0px" y="0px"
	 viewBox="0 0 42.2 35.8" style="enable-background:new 0 0 42.2 35.8;" xml:space="preserve">
<style type="text/css">
	.st0{fill:#FFFFFF;}
</style>
<g>
	<path class="st0" d="M38.8,7.6h-5.1V3.5c0-0.7-0.5-1.2-1.2-1.2H3.1c-0.7,0-1.2,0.5-1.2,1.2v23.2c0,0.7,0.5,1.2,1.2,1.2h4.6V32
		c0,0.7,0.5,1.2,1.2,1.2h30c0.7,0,1.2-0.5,1.2-1.2V8.9C40.1,8.2,39.5,7.6,38.8,7.6z M4.3,25.5V4.7h27.1v20.8H4.3z M37.2,30.8H10.1
		v-2.9h22.5c0.7,0,1.2-0.5,1.2-1.2V10.1h3.4V30.8z"/>
	<path class="st0" d="M21.5,13.5c2,0,3.6-1.6,3.6-3.6s-1.6-3.6-3.6-3.6c-2,0-3.6,1.6-3.6,3.6C17.9,11.9,19.5,13.5,21.5,13.5z"/>
	<path class="st0" d="M24.9,15.7c-0.2-0.3-0.5-0.4-0.8-0.5c-0.5-0.1-0.9,0.1-1.1,0.5l-2,2.5l-4.8-6.9c-0.4-0.6-1.1-0.7-1.7-0.3
		c-0.1,0.1-0.2,0.2-0.3,0.3L7,21.7c-0.4,0.6-0.2,1.3,0.3,1.7c0.2,0.1,0.4,0.2,0.7,0.2h20.7c0.7,0,1.2-0.6,1.2-1.2
		c0-0.3-0.1-0.5-0.3-0.8L24.9,15.7z"/>
</g>
</svg>
