<?xml version="1.0" encoding="utf-8"?>
<!-- Generator: Adobe Illustrator 24.2.1, SVG Export Plug-In . SVG Version: 6.00 Build 0)  -->
<svg version="1.1" id="Layer_1" xmlns="http://www.w3.org/2000/svg" xmlns:xlink="http://www.w3.org/1999/xlink" x="0px" y="0px"
	 viewBox="0 0 146.4 24.8" style="enable-background:new 0 0 146.4 24.8;" xml:space="preserve">
<style type="text/css">
	.st0{fill:#FFFFFF;}
</style>
<g>
	<g>
		<path class="st0" d="M22.7,23h-4.2V12.2c0-0.1,0-0.3,0-0.5l-4.3,8.3c-0.2,0.3-0.4,0.6-0.7,0.8c-0.3,0.2-0.6,0.3-1,0.3h-0.6
			c-0.4,0-0.7-0.1-1-0.3c-0.3-0.2-0.5-0.4-0.7-0.8l-4.3-8.4c0,0.2,0,0.3,0,0.5V23H1.7V4.2h3.5c0.2,0,0.4,0,0.5,0
			c0.2,0,0.3,0,0.4,0.1c0.1,0.1,0.3,0.1,0.4,0.3C6.6,4.6,6.7,4.8,6.8,5l4.7,9.3c0.2,0.3,0.3,0.7,0.5,1c0.1,0.2,0.1,0.3,0.2,0.5
			c0.1-0.2,0.1-0.3,0.2-0.5c0.2-0.4,0.3-0.7,0.5-1L17.6,5c0.1-0.2,0.2-0.3,0.3-0.4c0.1-0.1,0.2-0.2,0.4-0.3c0.1-0.1,0.3-0.1,0.4-0.1
			c0.1,0,0.3,0,0.5,0h3.5V23z M19,22.5h3.2V4.7h-3c-0.2,0-0.3,0-0.5,0c-0.1,0-0.2,0-0.3,0.1c-0.1,0-0.1,0.1-0.2,0.1
			c-0.1,0.1-0.1,0.2-0.2,0.3l-4.7,9.2c-0.2,0.3-0.3,0.7-0.5,1c-0.2,0.3-0.3,0.7-0.4,1.1l-0.2,0.6L12,16.5c-0.1-0.4-0.3-0.7-0.4-1
			c-0.2-0.3-0.3-0.7-0.5-1L6.3,5.2C6.3,5.1,6.2,5,6.1,4.9C6.1,4.8,6,4.8,5.9,4.7c-0.1,0-0.2-0.1-0.3-0.1c-0.1,0-0.3,0-0.5,0h-3v17.8
			h3.2V12.2c0-0.2,0-0.5,0-0.8c0-0.3,0-0.6-0.1-0.9L5.2,9.3l5.4,10.5c0.1,0.3,0.3,0.4,0.5,0.6c0.2,0.1,0.5,0.2,0.7,0.2h0.6
			c0.3,0,0.5-0.1,0.7-0.2c0.2-0.1,0.4-0.3,0.5-0.6l5.5-10.6l-0.2,1.4c0,0.3-0.1,0.6-0.1,0.8c0,0.3,0,0.5,0,0.8V22.5z"/>
	</g>
	<g>
		<path class="st0" d="M29.6,23h-4.4V9.4h4.4V23z M25.7,22.5h3.4V9.9h-3.4V22.5z M27.4,8.6c-0.4,0-0.7-0.1-1-0.2
			c-0.3-0.1-0.6-0.3-0.8-0.5c-0.2-0.2-0.4-0.5-0.6-0.8c-0.1-0.3-0.2-0.6-0.2-1c0-0.4,0.1-0.7,0.2-1c0.1-0.3,0.3-0.6,0.6-0.8
			c0.2-0.2,0.5-0.4,0.8-0.5c0.6-0.3,1.4-0.3,2,0c0.3,0.1,0.6,0.3,0.8,0.5c0.2,0.2,0.4,0.5,0.6,0.8C30,5.4,30,5.8,30,6.1
			c0,0.3-0.1,0.7-0.2,1c-0.1,0.3-0.3,0.6-0.6,0.8c-0.2,0.2-0.5,0.4-0.8,0.5C28.1,8.6,27.7,8.6,27.4,8.6z M27.4,4.1
			c-0.3,0-0.5,0.1-0.8,0.2c-0.2,0.1-0.5,0.3-0.7,0.4c-0.2,0.2-0.3,0.4-0.4,0.6c-0.1,0.2-0.2,0.5-0.2,0.8c0,0.3,0.1,0.5,0.2,0.8
			c0.1,0.2,0.3,0.5,0.4,0.6c0.2,0.2,0.4,0.3,0.7,0.4c0.5,0.2,1.1,0.2,1.6,0c0.3-0.1,0.5-0.3,0.7-0.4c0.2-0.2,0.3-0.4,0.5-0.6
			c0.1-0.2,0.2-0.5,0.2-0.8c0-0.3-0.1-0.5-0.2-0.8c-0.1-0.2-0.3-0.5-0.5-0.7c-0.2-0.2-0.4-0.3-0.7-0.4C28,4.2,27.7,4.1,27.4,4.1z"/>
	</g>
	<g>
		<path class="st0" d="M35.8,23.2c-0.5,0-0.9,0-1.4-0.1c-0.5-0.1-0.9-0.2-1.3-0.3c-0.4-0.1-0.8-0.3-1.2-0.5
			c-0.4-0.2-0.7-0.4-0.9-0.7l-0.2-0.1l1-1.6c0.1-0.2,0.3-0.4,0.5-0.5c0.4-0.2,1-0.3,1.5,0l0.6,0.3c0.2,0.1,0.4,0.2,0.7,0.3
			c0.3,0.1,0.6,0.1,1,0.1c0.3,0,0.5,0,0.7-0.1c0.2-0.1,0.3-0.1,0.4-0.2c0.1-0.1,0.2-0.2,0.2-0.3c0-0.1,0.1-0.2,0.1-0.3
			c0-0.2-0.1-0.3-0.2-0.5c-0.2-0.1-0.4-0.3-0.6-0.4c-0.3-0.1-0.6-0.2-0.9-0.3c-0.4-0.1-0.7-0.2-1.1-0.4c-0.4-0.1-0.8-0.3-1.1-0.5
			c-0.4-0.2-0.7-0.5-1-0.8c-0.3-0.3-0.6-0.7-0.7-1.1c-0.2-0.4-0.3-1-0.3-1.6c0-0.6,0.1-1.1,0.3-1.7c0.2-0.5,0.6-1,1-1.4
			c0.5-0.4,1-0.7,1.7-0.9c0.7-0.2,1.5-0.3,2.3-0.3c0.5,0,1,0,1.4,0.1c0.5,0.1,0.9,0.2,1.3,0.4c0.4,0.2,0.8,0.3,1.1,0.6
			c0.3,0.2,0.6,0.5,0.9,0.7l0.1,0.1l-1,1.5c-0.1,0.2-0.3,0.3-0.4,0.4c-0.3,0.2-0.8,0.2-1.2,0l-0.6-0.3c-0.2-0.1-0.4-0.2-0.7-0.2
			c-0.2-0.1-0.5-0.1-0.8-0.1c-0.4,0-0.8,0.1-1,0.2c-0.2,0.1-0.3,0.3-0.3,0.6c0,0.2,0.1,0.3,0.2,0.4c0.2,0.1,0.4,0.3,0.6,0.4
			c0.3,0.1,0.6,0.2,0.9,0.3c0.4,0.1,0.7,0.2,1.1,0.4c0.4,0.1,0.8,0.3,1.1,0.5c0.4,0.2,0.7,0.4,1,0.7c0.3,0.3,0.6,0.6,0.7,1
			c0.2,0.4,0.3,0.9,0.3,1.5c0,0.7-0.1,1.3-0.4,1.9c-0.2,0.6-0.6,1.1-1.1,1.5c-0.5,0.4-1.1,0.7-1.8,1C37.6,23,36.8,23.2,35.8,23.2z
			 M31.5,21.3c0.2,0.2,0.4,0.3,0.7,0.5c0.3,0.2,0.7,0.4,1.1,0.5c0.4,0.1,0.8,0.2,1.3,0.3c0.4,0.1,0.9,0.1,1.3,0.1
			c0.9,0,1.6-0.1,2.3-0.3c0.6-0.2,1.2-0.5,1.6-0.9c0.4-0.4,0.8-0.8,1-1.3c0.2-0.5,0.3-1.1,0.3-1.7c0-0.5-0.1-0.9-0.2-1.3
			c-0.2-0.3-0.4-0.6-0.6-0.9c-0.3-0.2-0.6-0.5-0.9-0.6c-0.4-0.2-0.7-0.3-1.1-0.5c-0.4-0.1-0.7-0.3-1.1-0.4c-0.4-0.1-0.7-0.2-1-0.4
			c-0.3-0.1-0.6-0.3-0.8-0.5c-0.2-0.2-0.3-0.5-0.3-0.8c0-0.4,0.2-0.8,0.5-1c0.3-0.2,0.7-0.3,1.3-0.3c0.4,0,0.7,0,1,0.1
			c0.3,0.1,0.5,0.2,0.7,0.3l0.6,0.3c0.3,0.1,0.6,0.1,0.8,0c0.1,0,0.2-0.1,0.2-0.3l0,0l0.8-1.2c-0.2-0.2-0.4-0.3-0.7-0.5
			c-0.3-0.2-0.6-0.4-1-0.5c-0.4-0.1-0.8-0.3-1.2-0.3c-0.4-0.1-0.9-0.1-1.3-0.1c-0.8,0-1.6,0.1-2.2,0.3c-0.6,0.2-1.1,0.5-1.5,0.8
			c-0.4,0.4-0.7,0.8-0.9,1.2c-0.2,0.5-0.3,1-0.3,1.5c0,0.6,0.1,1,0.2,1.4c0.2,0.4,0.4,0.7,0.6,1c0.3,0.3,0.6,0.5,0.9,0.7
			c0.4,0.2,0.7,0.3,1.1,0.5c0.4,0.1,0.7,0.2,1.1,0.4c0.4,0.1,0.7,0.2,1,0.3c0.3,0.1,0.6,0.3,0.8,0.5c0.2,0.2,0.3,0.5,0.3,0.8
			c0,0.2,0,0.4-0.1,0.5c-0.1,0.2-0.2,0.3-0.3,0.5c-0.2,0.1-0.3,0.2-0.6,0.3c-0.2,0.1-0.5,0.1-0.8,0.1c-0.5,0-0.8-0.1-1.1-0.2
			c-0.3-0.1-0.6-0.2-0.8-0.3l-0.6-0.3c-0.3-0.2-0.7-0.2-1,0c-0.1,0.1-0.2,0.2-0.3,0.3L31.5,21.3z"/>
	</g>
	<g>
		<path class="st0" d="M53.8,7.7V12h5.7v3.1h-5.7v4.4h7.5v3.3H49.5V4.4h11.8v3.3H53.8z"/>
	</g>
	<g>
		<path class="st0" d="M75.4,9.7l-5,13h-3.5l-5-13H65c0.3,0,0.5,0.1,0.7,0.2c0.2,0.1,0.3,0.3,0.4,0.5l1.8,5.8
			c0.2,0.5,0.3,0.9,0.4,1.4c0.1,0.5,0.2,0.9,0.3,1.4c0.2-0.9,0.4-1.8,0.8-2.7l1.9-5.8c0.1-0.2,0.2-0.4,0.4-0.5s0.4-0.2,0.7-0.2H75.4
			z"/>
	</g>
	<g>
		<path class="st0" d="M79.4,16.9c0.1,1.1,0.5,1.9,1,2.4c0.5,0.5,1.2,0.7,2.1,0.7c0.5,0,0.8-0.1,1.2-0.2c0.3-0.1,0.6-0.2,0.9-0.4
			s0.5-0.3,0.7-0.4s0.4-0.2,0.7-0.2c0.3,0,0.5,0.1,0.7,0.3l1.1,1.4c-0.4,0.5-0.8,0.8-1.3,1.1c-0.5,0.3-0.9,0.5-1.4,0.7
			c-0.5,0.2-1,0.3-1.5,0.3s-1,0.1-1.4,0.1c-0.9,0-1.8-0.1-2.6-0.4c-0.8-0.3-1.5-0.7-2.1-1.3c-0.6-0.6-1.1-1.3-1.4-2.2
			c-0.3-0.9-0.5-1.9-0.5-3c0-0.9,0.1-1.7,0.4-2.5c0.3-0.8,0.7-1.5,1.3-2c0.6-0.6,1.2-1,2-1.4C80.1,9.7,81,9.5,82,9.5
			c0.9,0,1.7,0.1,2.4,0.4s1.3,0.7,1.8,1.2c0.5,0.5,0.9,1.1,1.2,1.9s0.4,1.6,0.4,2.5c0,0.3,0,0.5,0,0.7c0,0.2-0.1,0.3-0.1,0.4
			s-0.2,0.2-0.3,0.2c-0.1,0-0.3,0.1-0.4,0.1H79.4z M84.3,14.6c0-0.3,0-0.6-0.1-0.9S84,13.2,83.8,13c-0.2-0.2-0.4-0.4-0.7-0.6
			c-0.3-0.1-0.6-0.2-1.1-0.2c-0.7,0-1.3,0.2-1.7,0.6c-0.4,0.4-0.7,1-0.8,1.8H84.3z"/>
	</g>
	<g>
		<path class="st0" d="M93.3,11.1c0.3-0.2,0.5-0.5,0.8-0.7c0.3-0.2,0.6-0.4,0.9-0.5c0.3-0.1,0.6-0.2,1-0.3s0.7-0.1,1.2-0.1
			c0.7,0,1.3,0.1,1.9,0.4s1,0.6,1.4,1c0.4,0.4,0.7,1,0.9,1.6c0.2,0.6,0.3,1.3,0.3,2v8.3h-3.9v-8.3c0-0.6-0.1-1.1-0.4-1.5
			s-0.7-0.5-1.3-0.5c-0.4,0-0.8,0.1-1.2,0.3c-0.4,0.2-0.7,0.4-1.1,0.7v9.3h-3.9v-13h2.4c0.5,0,0.8,0.2,1,0.7L93.3,11.1z"/>
	</g>
	<g>
		<path class="st0" d="M108.5,22.9c-0.6,0-1.2-0.1-1.6-0.3s-0.9-0.4-1.2-0.8c-0.3-0.3-0.6-0.7-0.7-1.2c-0.2-0.5-0.3-1-0.3-1.6v-6.7
			h-1.1c-0.2,0-0.4-0.1-0.5-0.2s-0.2-0.3-0.2-0.6v-1.5l2.1-0.4l0.8-3.2c0.1-0.4,0.4-0.6,0.9-0.6h2v3.8h3.2v2.7h-3.2v6.5
			c0,0.3,0.1,0.6,0.2,0.7s0.4,0.3,0.6,0.3c0.1,0,0.3,0,0.4,0c0.1,0,0.2-0.1,0.3-0.1c0.1,0,0.1-0.1,0.2-0.1c0.1,0,0.1,0,0.2,0
			c0.1,0,0.2,0,0.3,0.1c0.1,0.1,0.1,0.1,0.2,0.3l1.2,1.8c-0.5,0.4-1.1,0.7-1.7,0.8C109.9,22.8,109.2,22.9,108.5,22.9z"/>
	</g>
	<g>
		<path class="st0" d="M119.4,9.5c1,0,1.9,0.2,2.7,0.5c0.8,0.3,1.5,0.8,2.1,1.3c0.6,0.6,1,1.3,1.4,2.1c0.3,0.8,0.5,1.8,0.5,2.8
			c0,1-0.2,2-0.5,2.8c-0.3,0.8-0.8,1.5-1.4,2.1c-0.6,0.6-1.3,1-2.1,1.3c-0.8,0.3-1.7,0.5-2.7,0.5c-1,0-1.9-0.2-2.7-0.5
			c-0.8-0.3-1.5-0.8-2.1-1.3c-0.6-0.6-1-1.3-1.4-2.1c-0.3-0.8-0.5-1.8-0.5-2.8c0-1,0.2-2,0.5-2.8s0.8-1.5,1.4-2.1
			c0.6-0.6,1.3-1,2.1-1.3C117.5,9.7,118.4,9.5,119.4,9.5z M119.4,20c0.9,0,1.6-0.3,2-0.9s0.6-1.6,0.6-2.9s-0.2-2.2-0.6-2.9
			c-0.4-0.6-1.1-0.9-2-0.9c-0.9,0-1.6,0.3-2,0.9c-0.4,0.6-0.6,1.6-0.6,2.9s0.2,2.2,0.6,2.9C117.8,19.7,118.5,20,119.4,20z"/>
	</g>
	<g>
		<path class="st0" d="M136.2,12.5c-0.1,0.2-0.2,0.3-0.3,0.3c-0.1,0.1-0.3,0.1-0.4,0.1c-0.2,0-0.4,0-0.6-0.1
			c-0.2-0.1-0.4-0.2-0.6-0.3s-0.5-0.2-0.7-0.3c-0.3-0.1-0.6-0.1-0.9-0.1c-0.5,0-0.9,0.1-1.1,0.3c-0.3,0.2-0.4,0.5-0.4,0.8
			c0,0.2,0.1,0.4,0.3,0.6c0.2,0.2,0.4,0.3,0.7,0.4c0.3,0.1,0.6,0.2,1,0.3c0.4,0.1,0.7,0.2,1.1,0.4s0.7,0.3,1.1,0.5
			c0.4,0.2,0.7,0.4,1,0.7c0.3,0.3,0.5,0.6,0.7,1c0.2,0.4,0.3,0.8,0.3,1.4c0,0.6-0.1,1.2-0.4,1.8c-0.2,0.5-0.6,1-1,1.4
			c-0.5,0.4-1,0.7-1.7,0.9c-0.7,0.2-1.5,0.3-2.4,0.3c-0.4,0-0.9,0-1.3-0.1c-0.4-0.1-0.9-0.2-1.3-0.3c-0.4-0.1-0.8-0.3-1.1-0.5
			c-0.4-0.2-0.7-0.4-0.9-0.6l0.9-1.4c0.1-0.2,0.2-0.3,0.4-0.4c0.2-0.1,0.4-0.1,0.6-0.1c0.2,0,0.4,0.1,0.6,0.2
			c0.2,0.1,0.4,0.2,0.6,0.3c0.2,0.1,0.5,0.2,0.7,0.3s0.6,0.2,1.1,0.2c0.3,0,0.6,0,0.8-0.1c0.2-0.1,0.4-0.1,0.5-0.3
			c0.1-0.1,0.2-0.2,0.3-0.4c0.1-0.1,0.1-0.3,0.1-0.4c0-0.3-0.1-0.5-0.3-0.6c-0.2-0.2-0.4-0.3-0.7-0.4c-0.3-0.1-0.6-0.2-1-0.3
			s-0.7-0.2-1.1-0.4s-0.7-0.3-1.1-0.5s-0.7-0.4-1-0.7c-0.3-0.3-0.5-0.6-0.7-1.1c-0.2-0.4-0.3-0.9-0.3-1.5c0-0.6,0.1-1.1,0.3-1.6
			c0.2-0.5,0.5-0.9,1-1.3c0.4-0.4,1-0.7,1.6-0.9c0.6-0.2,1.4-0.3,2.3-0.3c0.5,0,0.9,0,1.4,0.1c0.4,0.1,0.9,0.2,1.2,0.4
			s0.7,0.3,1.1,0.5s0.6,0.4,0.8,0.7L136.2,12.5z"/>
	</g>
	<g>
		<path class="st0" d="M139,12.2c0-0.3,0.1-0.6,0.2-0.8c0.1-0.3,0.3-0.5,0.5-0.7s0.4-0.3,0.7-0.5c0.3-0.1,0.6-0.2,0.9-0.2
			c0.3,0,0.6,0.1,0.9,0.2c0.3,0.1,0.5,0.3,0.7,0.5s0.4,0.4,0.5,0.7c0.1,0.3,0.2,0.5,0.2,0.8s-0.1,0.6-0.2,0.8s-0.3,0.5-0.5,0.7
			s-0.4,0.3-0.7,0.5c-0.3,0.1-0.6,0.2-0.9,0.2c-0.3,0-0.6-0.1-0.9-0.2c-0.3-0.1-0.5-0.3-0.7-0.5s-0.4-0.4-0.5-0.7
			C139,12.8,139,12.5,139,12.2z M139,20.7c0-0.3,0.1-0.6,0.2-0.8c0.1-0.3,0.3-0.5,0.5-0.7s0.4-0.3,0.7-0.5c0.3-0.1,0.6-0.2,0.9-0.2
			c0.3,0,0.6,0.1,0.9,0.2c0.3,0.1,0.5,0.3,0.7,0.5s0.4,0.4,0.5,0.7c0.1,0.3,0.2,0.5,0.2,0.8c0,0.3-0.1,0.6-0.2,0.8s-0.3,0.5-0.5,0.7
			s-0.4,0.3-0.7,0.5c-0.3,0.1-0.6,0.2-0.9,0.2c-0.3,0-0.6-0.1-0.9-0.2c-0.3-0.1-0.5-0.3-0.7-0.5s-0.4-0.4-0.5-0.7
			C139,21.3,139,21,139,20.7z"/>
	</g>
</g>
</svg>
