<?xml version="1.0" encoding="utf-8"?>
<!-- Generator: Adobe Illustrator 24.2.1, SVG Export Plug-In . SVG Version: 6.00 Build 0)  -->
<svg version="1.1" id="Layer_1" xmlns="http://www.w3.org/2000/svg" xmlns:xlink="http://www.w3.org/1999/xlink" x="0px" y="0px"
	 viewBox="0 0 40.1 38.8" style="enable-background:new 0 0 40.1 38.8;" xml:space="preserve">
<style type="text/css">
	.st0{fill:#3E5C9A;}
	.st1{fill:#FFFFFF;}
</style>
<g id="XMLID_1419_">
	<path id="XMLID_422_" class="st0" d="M19.9,37.3L19.9,37.3c-9.9,0-18-8-18-18l0,0c0-9.9,8-18,18-18l0,0c9.9,0,18,8,18,18l0,0
		C37.9,29.3,29.8,37.3,19.9,37.3z"/>
	<path id="XMLID_28_" class="st1" d="M17.2,30.2h4.4V19.3h3l0.3-3.7h-3.4c0,0,0-1.4,0-2.1c0-0.9,0.2-1.2,1-1.2c0.7,0,2.4,0,2.4,0
		V8.5c0,0-2.5,0-3,0c-3.3,0-4.7,1.4-4.7,4.2c0,2.4,0,2.9,0,2.9h-2.3v3.7h2.3V30.2z"/>
</g>
</svg>
