<?xml version="1.0" encoding="utf-8"?>
<!-- Generator: Adobe Illustrator 24.2.1, SVG Export Plug-In . SVG Version: 6.00 Build 0)  -->
<svg version="1.1" id="Layer_1" xmlns="http://www.w3.org/2000/svg" xmlns:xlink="http://www.w3.org/1999/xlink" x="0px" y="0px"
	 viewBox="0 0 40.1 38.8" style="enable-background:new 0 0 40.1 38.8;" xml:space="preserve">
<style type="text/css">
	.st0{fill:#C3271A;}
	.st1{fill:#FFFFFF;}
</style>
<g id="XMLID_434_">
	<path id="XMLID_439_" class="st0" d="M20.1,37.3L20.1,37.3c-9.9,0-18-8-18-18v0c0-9.9,8-18,18-18l0,0c9.9,0,18,8,18,18v0
		C38,29.3,30,37.3,20.1,37.3z"/>
	<g id="XMLID_435_">
		<path id="XMLID_437_" class="st1" d="M33.8,12.4c-0.3-1.2-1.3-2.2-2.5-2.6C29,9.3,20.1,9.3,20.1,9.3s-9,0-11.2,0.6
			c-1.2,0.3-2.2,1.3-2.5,2.6c-0.6,2.3-0.6,7-0.6,7s0,4.7,0.6,7c0.3,1.2,1.3,2.2,2.5,2.6c2.2,0.6,11.2,0.6,11.2,0.6s9,0,11.2-0.6
			c1.2-0.3,2.2-1.3,2.5-2.6c0.6-2.3,0.6-7,0.6-7S34.4,14.7,33.8,12.4z"/>
		<polygon id="XMLID_436_" class="st0" points="17.1,23.7 17.1,15.1 24.6,19.4 		"/>
	</g>
</g>
</svg>
