<?xml version="1.0" encoding="utf-8"?>
<!-- Generator: Adobe Illustrator 24.2.1, SVG Export Plug-In . SVG Version: 6.00 Build 0)  -->
<svg version="1.1" id="Layer_1" xmlns="http://www.w3.org/2000/svg" xmlns:xlink="http://www.w3.org/1999/xlink" x="0px" y="0px"
	 viewBox="0 0 23.3 22.7" style="enable-background:new 0 0 23.3 22.7;" xml:space="preserve">
<style type="text/css">
	.st0{fill-rule:evenodd;clip-rule:evenodd;fill:#00818D;}
</style>
<g>
	<g transform="translate(-806.000000, -2730.000000)">
		<g transform="translate(-14.000000, -75.000000)">
			<g transform="translate(307.000000, 2555.000000)">
				<g transform="translate(0.000000, 237.000000)">
					<g transform="translate(513.000000, 13.000000)">
						<path class="st0" d="M11.7,20C6.9,20,3,16.1,3,11.3c0-4.8,3.9-8.7,8.7-8.7s8.7,3.9,8.7,8.7C20.3,16.1,16.5,20,11.7,20
							 M11.7,0.9c5.8,0,10.4,4.7,10.4,10.4c0,5.8-4.7,10.4-10.4,10.4S1.2,17.1,1.2,11.3C1.2,5.6,5.9,0.9,11.7,0.9z M11.7,4.4
							c-0.5,0-0.9,0.4-0.9,0.9v6c0,0,0,0,0,0c0,0.2,0.1,0.5,0.3,0.6l4.3,4.3c0.2,0.2,0.4,0.3,0.6,0.3c0.2,0,0.5-0.1,0.6-0.3
							c0.3-0.3,0.3-0.9,0-1.2l-4-4V5.3C12.5,4.8,12.2,4.4,11.7,4.4z"/>
					</g>
				</g>
			</g>
		</g>
	</g>
</g>
</svg>
