<?xml version="1.0" encoding="utf-8"?>
<!-- Generator: Adobe Illustrator 24.2.1, SVG Export Plug-In . SVG Version: 6.00 Build 0)  -->
<svg version="1.1" id="Layer_1" xmlns="http://www.w3.org/2000/svg" xmlns:xlink="http://www.w3.org/1999/xlink" x="0px" y="0px"
	 viewBox="0 0 60.1 58.1" style="enable-background:new 0 0 60.1 58.1;" xml:space="preserve">
<style type="text/css">
	.st0{fill:#FFFFFF;}
</style>
<g>
	<rect x="15.5" y="6.5" class="st0" width="2" height="32.6"/>
	<path class="st0" d="M38.1,10.8H21.2v12.9h16.9V10.8z M36.5,21.8H23.2v-8.6h13.3V21.8z"/>
	<path class="st0" d="M51.4,15.6V8h-2V3.2H45V1.3H14.2c-3,0-5.5,2.9-5.5,6.5v41.6c0,3.6,2.5,6.5,5.5,6.5h14.3v1l1.8-1h6.1l1.8,1v-1
		h6.4v-4.8H49v-4.2v-0.5V34.3h2.4v-7.7h-2v-1.9h2v-7.7h-2v-1.4H51.4z M49.4,13.7h-4.8v-3.4h4.8V13.7z M47.4,5.6v2.9h-2.8V5.6H47.4z
		 M14.3,3.6h28.6v4.4v7.5v1.6v7.5v1.6v7.5v6.7H14.3c-1.4,0-2.7,0.6-3.6,1.7V8C10.7,5.6,12.3,3.6,14.3,3.6z M36.5,47.2v6.1l-3-1.7
		l-3,1.7v-6.1H36.5z M42.9,53.5h-4.4v-2.4h4.4V53.5z M47.4,49.1h-9.3v-2.4h9.3V49.1z M47.4,44.8H15.5v1.9h12.9v2.4H15.5v1.9h12.9
		v2.4H13.9c-2,0-3.6-2-3.6-4.3v-1.9c0-2.4,1.6-4.3,3.6-4.3h29.7l0,0h0.9v-8.6h2.8V44.8z M49.4,31.9h-4.8v-3.4h4.8V31.9z M47.4,26.2
		h-2.8v-1.4h2.8V26.2z M49.4,22.8h-4.8v-3.4h4.8V22.8z M47.4,17.1h-2.8v-1.4h2.8V17.1z"/>
</g>
</svg>
